<?xml version="1.0" encoding="UTF-8"?>
<svg id="Warstwa_1" data-name="Warstwa 1" xmlns="http://www.w3.org/2000/svg" viewBox="0 0 200 200.3">
  <defs>
    <style>
      .cls-1 {
        stroke-width: 1.31px;
      }

      .cls-1, .cls-2, .cls-3 {
        fill: none;
        stroke: #1e1212;
        stroke-linecap: round;
        stroke-linejoin: round;
      }

      .cls-2 {
        stroke-width: .77px;
      }

      .cls-3 {
        stroke-width: .77px;
      }

      .cls-4 {
        fill: #adadad;
      }
    </style>
  </defs>
  <path class="cls-4" d="M80.44,69.29c-.27.44,6.38-5.27,6.57-5.48,2.04-2.27,20.52-19.67,21.6-17.51.48.96-6.68,7-10.67,10.82-4.84,4.64-17.32,19.38-17.32,19.38,0,0,17.21-16.52,32.16-25.84,14.95-9.32,26.14-10.35,26.14-10.35,0,0-12.81,5.61-27.79,15.18-2.12,1.35-28.26,22.64-28.26,22.64l27.44-13.08s-25.6,13-32.12,18.7c-5.57,4.88-.19,6.73-5.92,13.58-3.28,3.93-10.82,12.01-16.97,19.6-.8.99,9.89-5.02,19.89-10.01,11.4-5.69,10.73-4.14,18.41-8.01,7.01-3.53,12.84-8.42,12.84-8.42,0,0-6.58,12.7-16.12,22.53-1.65,1.71,14.82-8.84,18.97-11.31,15.45-9.18,26.51-27.89,26.51-27.89,0,0-3.61,12.87-5.22,14.93-1.33,1.69-3.96,6.65-3.96,6.65,0,0,16.75-12.01,19.15-14.33,2.99-2.89,13.72-15.48,13.72-15.48,0,0-13.11,19.6-17.36,22.92-.42.32-10.58,11.06-10.58,11.06,0,0,21.36-11.68,21.45-11.74,12.2-7.61,27.65-25.9,27.65-25.9,0,0-7.42,12.36-16.65,21.64-7.96,8-17.72,13.69-17.72,13.69,0,0,7.55-1.17,10.91-2.57,6.78-2.84,14.22-4.59,18.77-8.65,2.87-2.56,2.36-3.49,3.67-7.84.6-2.01,7.3-2.89,7.41-6.76.1-3.52-2.9-.94-2.9-.94,0,0,7.67-12.88,7.81-15.56.45-9.02-8.16-18.04-11.76-16.63-3.07,1.2-1.62,5.52-3.13,4.7-1.35-.73-8.44-7.02-11.96-7.67-4.37-.82-5.97,5.38-9.93,5.24-7.33-.26-1.45-6.55-7.45-8.08-6.77-1.73-18.61,3.72-28.45,8.4-1.24.59,3.7-8.2-.31-7.8-12.46,1.25-22.8,10.23-38.54,36.2Z"/>
  <path class="cls-4" d="M19.14,145.33c-1.34-.39,8.33-.07,11.63,1.95,6.84,4.2,12.6,11.04,5.37,16.71-2.28,1.79-9.57.19-9.57.19,0,0,10.79-3.06,9.87-6.15-3.71-12.51-12.69-11.35-17.29-12.7Z"/>
  <path class="cls-3" d="M12.34,147.79c-4.98,5.69,3.19,13.31,11.51,15.34,4.21,1.03,8.47.62,11.07-2.2,7.14-7.74-16.03-20.63-22.58-13.15Z"/>
  <path class="cls-3" d="M10.83,149.48c-2.72-1.36,5.31-11.46,6.57-12.47,8.91-7.13,22.05-8.69,32.87-10.79,30.16-5.84,48.88-15.76,72.58-35.07,4.33-3.53,11.86-17.27,13.71-18.19,0,0-5.09,15.93-10.65,22.58-.53.63,15.19-9.65,20.3-15.16,1.75-1.88,13.14-16.08,13.61-15.85.24.12-10.51,16.75-16.96,23.13-2.74,2.71-11.95,11-11.19,11.76.16.16,19.82-10.58,20.6-11.03,13.17-7.56,27.7-28.63,29.29-27.57.41.28-12.29,17.57-16.6,21.69-23.42,22.38-34.37,17.39-57.26,28.85-15.05,7.53-23.75,13.99-31.48,24.8-4.23,5.93-7.17,13.81-11.63,20.06-11.29,15.81-30.89,13.51-44.5,6.71"/>
  <path class="cls-2" d="M87.24,114.46c15.02-12.44,22.34-29.33,30.28-45.21.59-1.19,11.07-.34,13.31-1.68,1.58-.95,1.84-5.42,3.03-5.9,2.27-.91,4.77,5.83,6.24,3.88,2.77-3.69,1.43-11.45,7.08-13.15,6-1.8,20.73,2.82,24.95-.34,2.52-1.89-1.01-9.45-1.01-11.97,0-2.8,5.77,5.18,7.75,3.2,1.44-1.44-1.25-6.71.68-6.07,12.35,4.12,12.33,13.83,10.14,24.35-1.13,5.42-6.25,7.9-5.93,8.86.25.76,3.71-.54,3.71.84,0,1.95-5.77,4.42-6.91,5.56-2.97,2.97-.82,3.92-2.44,6.51-2.99,4.78-25.38,13.65-30.31,15.52-20.98,7.95-34.37,8.96-54.53,20.7"/>
  <path class="cls-2" d="M13.59,136.64c3.98-7.96,10.3-11.67,24.09-21.06"/>
  <path class="cls-2" d="M26.32,129.51c6.97-8.18,16.36-14.39,19.09-15.76"/>
  <path class="cls-2" d="M37.69,150.27c10.91,5.61,28.44-14.25,32.28-20"/>
  <path class="cls-2" d="M40.42,155.73c4.85,4.24,11.52,3.18,13.94,1.37,3.72-2.79,5-8.18,12.12-16.06"/>
  <path class="cls-3" d="M11.18,153.54c-1.91-6.43-2.1-7.51-2.09-10.73.01-3.04,1.16-7.15,2.42-9.85,3.56-7.63,11.88-13.41,18.71-17.87,8.85-5.77,18.72-10.75,26.46-18.03,14.68-13.82,25.92-30.31,41.29-43.32,1.23-1.04,10.51-9.27,12.13-9.27,1.95,0-16.75,17.08-21.17,22.13-1.22,1.39-7.79,8.11-9.73,11.34-.39.64,15.75-14.51,26.42-22.64,7.67-5.84,26.91-15.76,35.66-15.72,2.4.01-19.96,8.39-26.13,12.72-5.08,3.56-33.59,26.04-33.52,26.07.59.3,29.03-13.75,29.03-13.75,0,0-11.35,5.77-16.31,8.55-7.84,4.39-18.05,8.88-19.06,16.02-.39,2.72-.36,4.65-5.19,11.08-6.39,8.52-16.74,16.56-21.35,25.78"/>
  <path class="cls-2" d="M52.16,120.43c4.5-4.18,16.21-10.37,19.03-11.79,10.99-5.49,22.04-6.63,37.04-20.75"/>
  <path class="cls-2" d="M67.46,85.94c4.89-5.9,12.9-17.34,14.83-20.23,6.37-9.55,8.68-15.08,17.53-23.6,4.38-4.21,17.61-10.29,20.4-8.43,2.33,1.56-2.43,8.04-2.19,7.92,8.76-4.38,9.2-5.27,17.7-7.58,3.71-1.01,14.15-2.74,14.5-1.01.29,1.45.5,4.58,2.92,5.84,6.51,3.39,8.28-2.53,12.16-3.16,0,0,3.43.73,5.99,6.24"/>
  <path class="cls-2" d="M147.18,36.76c.78-.52-4.49,5.36-7.44,8.84-2.89,3.41-8.13,7.48-11.5,10.17-1.79,1.43,6.8,2.82,12.68-1.11"/>
  <path class="cls-2" d="M77.37,101.87c5.94-9.9,21.53-23.75,29.07-31.3,1.39-1.39-9.39,9.9-10.85,11.21-1.57,1.4-6.64,8.99-6.64,11.38,0,.8,4.91-7.6,15.98-14.39"/>
  <path class="cls-1" d="M20.04,162.76c5.29,3.37,23.4,5.99,27.58,4.97,14.34-3.52,16.68-14.44,30.5-33.45,5.6-7.7,14.91-14.57,23.2-19.16,13.76-7.63,32.01-11.89,52.23-19.12,20.22-7.23,25.92-9.42,25.52-17.8-.12-2.45,6.27-2.92,8.16-6.95.89-1.9-3.62-.48-3.62-.48,0,0,7.88-8.69,7.68-17.09-.32-13.3-12.08-16.23-12.08-16.23l-1.06,6.06-7.49-4.02s-1.36-3.49-5.4-4.16c-3.71-.62-6.24,7.48-12.86,3.33-5.2-3.26,4.15-8.61-16.35-4.96-2.46.44-17.64,7.4-17.64,7.4,0,0,5.92-8.76.3-7.7-25.97,4.87-34.51,40.31-62.84,64.48-14.67,12.51-57.62,28.8-45.81,53.21,1.18,2.44,2.24,6.73,9.98,11.66Z"/>
  <path class="cls-2" d="M69.51,136.48c1.04-2.09,7.88-10.15,23.79-20.15"/>
  <path class="cls-2" d="M55.87,122.84c2.58-4.3,14.25-7.42,24.4-13.94"/>
  <path class="cls-2" d="M41.17,144.52c9.09-.45,24.1-12.12,31.82-20.46"/>
  <path class="cls-2" d="M118.31,91.93c2.18-4.37,2.74-21.34,4.7-10.91.31,1.66.46,3.32.46,5"/>
  <path class="cls-2" d="M137.55,82.99c3.79-3.79,16.97-32.93,12.73-18.79"/>
  <path class="cls-2" d="M169.68,58.44c0,7.68-6.76,17.97-11.97,23.18"/>
  <path class="cls-2" d="M173.47,58.9c-.84,1.69-1.99,2.99-3.03,4.55"/>
  <path class="cls-2" d="M181.2,49.05c0,2.22-.36,4.41-1.06,6.52"/>
  <path class="cls-2" d="M166.65,84.2c1.69-.24,3.34-.52,5-.91"/>
  <path class="cls-2" d="M110.28,59.65c0-2.6,14.75-5.3,17.28-5.3"/>
  <path class="cls-2" d="M161.8,42.98c-.86,3.45-6.67,5.82-9.55,6.97"/>
  <path class="cls-2" d="M158.92,49.65c.78,1.56,6.12-1.49,6.67-2.58"/>
</svg>