<?xml version="1.0" encoding="UTF-8"?>
<svg id="Warstwa_1" data-name="Warstwa 1" xmlns="http://www.w3.org/2000/svg" viewBox="0 0 200 200.3">
  <defs>
    <style>
      .cls-1 {
        stroke-width: .77px;
      }

      .cls-1, .cls-2 {
        fill: none;
        stroke: #1e1212;
        stroke-linecap: round;
        stroke-linejoin: round;
      }

      .cls-2 {
        stroke-width: 1.31px;
      }

      .cls-3 {
        fill: #adadad;
      }
    </style>
  </defs>
  <path class="cls-3" d="M182.83,61.05s-5.21,21.69-43.3,48.36c-49.47,34.64-68.57,28.86-88.3,28.48-5-.1-30.38-8.73-30.38-8.73,0,0,9.7,19.85,22.68,26.19,38.76,18.91,82.28,4.31,111.92-28,12.79-13.94,22.37-27.81,25.06-45.27.25-1.61,2.31-21.02,2.31-21.02Z"/>
  <path class="cls-3" d="M89.77,64.38c-8-.93-26.59,1.01-38.64,9.69-9.56,6.89-23.76,25.77-14.37,38.15,9.4,12.38,36.43,6.53,45.25,3.34,22.04-7.98,31.68-25.26,32.44-30.48,1.38-9.45-11.95-19.22-24.68-20.7Z"/>
  <path class="cls-1" d="M34.82,109.61c-4.32-10.44,2.35-30.76,29.17-41.77,27.19-11.16,44.29.18,49.51,10.62,4.29,8.58-4.02,23.6-28.09,36.01-17.47,9-46.02,6.18-50.59-4.86Z"/>
  <path class="cls-2" d="M179.22,44.52c-9.8-11.78-32.95-9.88-62.84-.45-23.41,7.38-64.64,22.69-77.6,32.59-11.89,9.08-26.96,30.43-20.35,45.55,5.04,11.52,20.26,15.04,35.11,16.03,46.04,3.07,69.87-17.32,103.17-43.39,14.94-11.7,31.87-39.07,22.51-50.32Z"/>
  <path class="cls-2" d="M18.5,122.22c10.95,40.32,58.81,49.33,92.12,36,16.1-6.44,34.28-18.45,45.73-32.05,11.84-14.06,21.13-31.31,23.59-41.95,1.62-7.02,5.76-24.67,1.08-36.73"/>
  <path class="cls-1" d="M101.95,76.33c0-2.27.34,4.56,0,6.81"/>
  <path class="cls-1" d="M107.01,81.21l-1.75,2.27"/>
  <path class="cls-1" d="M108.23,85.05c-1.46,1.95-3.87,3.2-5.76,4.71"/>
  <path class="cls-1" d="M47.16,85.75c.65.21.36.09.87.35"/>
  <path class="cls-1" d="M51.35,81.91c-.51.76-.35.31-.35,1.39"/>
  <path class="cls-1" d="M43.85,93.43l1.75-.17"/>
  <path class="cls-1" d="M55.89,112.27c2.02,0,3.84-.95,5.58-1.92"/>
  <path class="cls-1" d="M59.9,115.06c1.24,0,2.32-.31,3.49-.7"/>
  <path class="cls-1" d="M64.16,111.33c1.5-.21,5.35.87,6.73,1.46"/>
  <path class="cls-1" d="M138.9,121.16c15.04-10.49,17.8-12.94,24.49-22.03"/>
  <path class="cls-1" d="M155.72,115.86c7.89-8.56,11.42-10.86,15.4-21.36"/>
  <path class="cls-1" d="M170.43,49.21c6.13,3.07,3.77,9.89-2.16,16.98"/>
</svg>