<?xml version="1.0" encoding="UTF-8"?>
<svg id="Warstwa_1" data-name="Warstwa 1" xmlns="http://www.w3.org/2000/svg" viewBox="0 0 200 200.3">
  <defs>
    <style>
      .cls-1 {
        stroke-width: .77px;
      }

      .cls-1, .cls-2 {
        fill: none;
        stroke: #1e1212;
        stroke-linecap: round;
        stroke-linejoin: round;
      }

      .cls-2 {
        stroke-width: 1.31px;
      }

      .cls-3 {
        fill: #adadad;
      }
    </style>
  </defs>
  <path class="cls-3" d="M85.85,29.34c.94.4-11.89-1.16-14.35.67-5.65,4.24-9.64,8.06-9.55,25.02.05,9.95,2.57,15.02,8.1,23.65,1.75,2.73,5.9,6.36,9.07,7.14,1.41.34,5.05,1.39,5.05,1.39,0,0-4.86,6.15-4.9,13.16-.05,6.48,1.62,10.93,6.49,19.43,4.36,7.59,12.38,13.59,20.09,18.04,3.51,2.02,9.63,2.16,9.63,2.16,0,0,.95,10.11,4.35,15.22,4.5,6.76,16.07,16.64,23.81,19.32,6.67,2.32,22.91,1.15,22.91,1.15l.96,6.59s-6.72,1.18-5.69,2.71c2.1,3.12,13.13,3.16,13.13,3.16,0,0-13.59.66-19.53-1.18-9.73-3.02-29.63-10.64-37.49-16.68-20.96-16.13-43.47-46.8-54.78-78.25-5.03-13.99-14.48-40.16.62-63.72,1.3-2.03.91-8.27,3.8-8.79,2.21-.4,1.59,6.24,5.42,4.59,6.02-2.61,11.28,4.56,12.84,5.23Z"/>
  <path class="cls-3" d="M160.15,150.89c10.02-3.8,8.39-12.15,9.27-12.02,3.51.52,5.37,6.24,3.2,11.67-2.11,5.27,2.97,2.4,15.15,1.67,3.81-.23-21.96,7.87-24.81,4.37"/>
  <path class="cls-3" d="M15.7,62.16s6.05,5.61,8.43,5.83c4.25.39,8.73-3.62,11.26-.51.43.52-8.34,4.41-8.6,10.47-.38,8.54,4.41,15.12,10.86,23.41,3.77,4.85,10,10.73,14.39,13.27,5.49,3.18,12.66,2.2,12.66,2.2,0,0,2.79,11.34,9.1,15.86,5.13,3.68,12.04,6.09,12.04,6.09l16.46,19.34s-15.08-4.92-15.2-4.97c-8.65-3.63-21.17-12.15-30.33-20.14-18-15.69-37.37-42.77-35.68-62.65.17-2.03-5.37-8.2-5.37-8.2Z"/>
  <path class="cls-3" d="M122.69,118.15c-.56-1.26.12,8.2-.87,11.14-1,2.94-2.78,6.54-2.77,6.54,1.97-.33,3.52-2.64,5.74-3.01,8.43-1.39,3.36.78.49-3.81-.88-1.42-1.72-8.89-2.6-10.86Z"/>
  <path class="cls-3" d="M98.65,66.06c-.41-1.18-.49,4.89-1.86,10.05-.91,3.44-3.42,5.7-3.42,5.7,0,0,4.44-.56,7.85.97,2.88,1.29,8.1,5.57,8.1,5.57l-10.4-9.46s.14-11.63-.27-12.83Z"/>
  <path class="cls-2" d="M76.76,22.82c-4.21-1.56.96-12.87-5.52-12.62-4.49.18-4.87,13.43-5.56,14.52-9.78,15.37-10.85,23.4-9.18,41.14,3.07,32.66,30.86,86.58,63.07,106.09,30.05,18.2,53.43,18,55.36,16.54,3.76-2.85-7.68-6.63-7.68-6.99.19-11.75-1.38-23.8-15.02-38.66-10.36-11.29-27.37-13.19-27.37-13.19,0,0-.22-20.72-5.65-29.61-8.3-13.57-21.39-22.3-21.39-22.3,0,0,2.77-14.98.71-23.73-3.54-15.05-10.79-27.12-21.77-31.19Z"/>
  <path class="cls-2" d="M124.59,117.05c-.15-.07,9.64-3.53,25.18,2.81,15.1,6.17,21.97,22.97,23.07,23.47,5.6,2.53,12.84.96,15.21,4.88,4.56,7.54-21.02,9.13-24.44,9.26"/>
  <path class="cls-2" d="M57.69,78.51c-13.59-12.76-25.69-11.1-27.28-12.14-1.52-.98-7.72-10.56-13.4-7.48-3.04,1.65,1.41,6.51,4.5,9.53.98.95-1.45,5.64-.3,10.55,9.11,38.78,50.34,71.26,81.7,79.39"/>
  <path class="cls-1" d="M69.3,20.39c-.37,1.67,1.86,5.91,3.74,3.6"/>
  <path class="cls-1" d="M155.83,183.89c.62.97,7.07-.59,8.55-.75"/>
  <path class="cls-1" d="M26.67,68.69c.43.35-4.6.72-6.27-1.89"/>
  <path class="cls-1" d="M162.7,156.8c2.95-.31,10.76-4.02,11.08-9.96"/>
  <path class="cls-1" d="M78.85,29.12c-14.76-2.11-17.57,19.6-17.71,24.25-.16,5.01,2.29,27.55,22.59,33.7"/>
  <path class="cls-1" d="M88.39,85.78c-8.54-.69-13.5,17.25-2.57,34.46,3.13,4.93,11.98,18.06,30.06,19.81"/>
  <path class="cls-1" d="M115.73,140.22c1.14,18.25,19.59,38.5,44.67,35.51"/>
  <path class="cls-1" d="M119.7,135.49c.83-2.23,3.67-4.54,9.56-3.25"/>
  <path class="cls-1" d="M32.68,69.65c-4.81,1.31-8.96,8.57-2.78,20.42,6.62,12.72,19.37,25.9,29.01,26.47,3.08.18,8.68.51,12.49-2.77"/>
  <path class="cls-1" d="M64.48,116.43c1.16,10.93,11.3,20.28,21.61,22.95"/>
  <path class="cls-1" d="M166.51,135.47c5.58,13.47-4.38,14.36-5.76,14.99"/>
  <path class="cls-1" d="M91.53,42.41c-3.85-7.29-8.46-11.27-11.16-10.44-2.4.73,8.1,2.07,11.73,22.66"/>
  <path class="cls-1" d="M114.93,100.27c-3.81-6.97-11.91-14.86-15.32-12.96-.44.25,7.41,3.26,16.45,21.15"/>
  <path class="cls-1" d="M144.09,141.07c-6.53-5.58-11.35-5.98-15.36-5.57-.31.03,5.51,1.72,10.68,6.32"/>
  <path class="cls-1" d="M141.77,120.99c-5.41-2.24-10.58-2.49-13.34.16-.1.1,8.79-.08,15.5,4.78"/>
  <path class="cls-1" d="M54.28,81.34c-1.48-3.74-12.14-11.04-17.63-9.84-3.54.77,6.38,2.7,10.16,7.52"/>
</svg>