<?xml version="1.0" encoding="UTF-8"?>
<svg id="Warstwa_1" data-name="Warstwa 1" xmlns="http://www.w3.org/2000/svg" viewBox="0 0 200 200.3">
  <defs>
    <style>
      .cls-1 {
        fill: none;
      }

      .cls-1, .cls-2, .cls-3 {
        stroke-linecap: round;
        stroke-linejoin: round;
      }

      .cls-1, .cls-3 {
        stroke: #1e1212;
        stroke-width: 1.31px;
      }

      .cls-2 {
        fill: #adadad;
        stroke: rgba(30, 18, 18, 0);
        stroke-width: .77px;
      }

      .cls-3 {
        fill: #fff;
      }
    </style>
  </defs>
  <path class="cls-2" d="M68.51,56.12c-1.05.45-20.91,23.02-23,33.47-1.89,9.44-12.45,15.83-13.47,16.85-.28.28-9.2,7.45-8.21,12.92,1.07,5.93,14.67,17.21,21.29,15.21,12.14-3.65,42.39,5.14,54.17,2.26,5.82-1.42,24.04,2.77,30.15,1.75,5.28-.88,19.64-7.25,24.89-8.06,6.11-.94,22.55-1.14,26.91-4.9,4.05-3.5-6.71-13.99-9.79-16.24-7.61-5.55-23.62-9.07-26.57-27.62-2.08-13.04-19.58-36.73-24.85-36.94-11.24-.44-10.36-5.54-15.63-6.65-7.67-1.61-17.36.22-22.88,5.63-6.5,6.37-.16,6.73-13.01,12.3Z"/>
  <path class="cls-1" d="M108.04,147.24c-4.39.24-12.87-7.28-4.29-6.21,2.04.26,7.65,6.02,4.29,6.21Z"/>
  <path class="cls-1" d="M105.77,147.16c-1.1-1.32-2.73-1.23-4.63-1.23-2.07,0-4.05-.88-5.95.18-3.93,2.18,13.75,4.84,10.58,1.05Z"/>
  <path class="cls-1" d="M109.53,147.16c-4.41,2.6,8.15,5.73,8.4,5.25,1.75-3.5-6.75-6.21-8.4-5.25Z"/>
  <path class="cls-1" d="M106.55,148.73c.35-.18-7.01,3.78-5.77,5.42,2.1,2.8,7.13-2.65,8.92-3.85"/>
  <path class="cls-1" d="M154.91,148.38c1.65-.71-6.5-7.52-8.83-.52-.6,1.8,7.58,1.06,8.83.52Z"/>
  <path class="cls-1" d="M172.93,138.06c-.99-9.25-10.53-1.19-5.34.7,1.53.56,5.53,1.08,5.34-.7Z"/>
  <path class="cls-1" d="M172.84,136.31c6.32-3.16,9.03,10.28-1.4,3.32"/>
  <path class="cls-1" d="M149.49,161.67c3.56-4.02-8.43-1.79-10.23-.35-.44.35,8.21,2.64,10.23.35Z"/>
  <path class="cls-1" d="M52.86,148.99c-6.76-5.12-11.93,10.26-2.8,3.41,1.36-1.02,4.16-2.38,2.8-3.41Z"/>
  <path class="cls-1" d="M74.29,145.49c-2.17-1.91-4.01,7.78.26,7.78,1.8,0,1.1-6.58-.26-7.78Z"/>
  <path class="cls-1" d="M27.41,136.31c.31-3.53-8.13-3.68-9.53-.18-.61,1.52,9.17,4.29,9.53.18Z"/>
  <path class="cls-1" d="M127.8,72.74c.75-5.87-7.52,7.78-4.46,7.78s4.16-5.43,4.46-7.78Z"/>
  <path class="cls-1" d="M97.37,76.76c-2.88,4.48-2.83-6.34-1.49-8.13.72-.96,2.71,6.23,1.49,8.13Z"/>
  <path class="cls-3" d="M58.28,94.07c-1.52,2.8-7.95-5.08-5.6-7.43s6.45,5.87,5.6,7.43Z"/>
  <path class="cls-1" d="M72.71,55.07c-2.49,1.17-1.96-6.54.44-8.13,5.83-3.89,2.34,6.83-.44,8.13Z"/>
  <path class="cls-1" d="M114.34,45.89c-1.38,1.18-4.02-5.45-2.54-5.95,3.37-1.12,4.07,4.63,2.54,5.95Z"/>
  <path class="cls-3" d="M153.43,100.81c-3.26,6.41,1.79,9.02,2.62,8.4,2.03-1.52-.16-11.21-2.45-8.92"/>
  <path class="cls-1" d="M72.54,123.63c1.08-3.79-7.51-5.22-3.24-.09,1.4,1.67,2.6,2.32,3.24.09Z"/>
  <path class="cls-1" d="M79.01,120.48c-2.56.24-.74-2.17.61-3.41,5.31-4.86,6.43,2.75-.61,3.41Z"/>
  <path class="cls-1" d="M77.26,125.99c-3.31-2.44-1.02,4.16-.09,4.72,2.69,1.61,1.23-3.88.09-4.72Z"/>
  <path class="cls-3" d="M116.17,122.5c-5.37-1.04,4.98-10.24,5.95-9.27,3.11,3.11-3.13,9.81-5.95,9.27Z"/>
  <path class="cls-1" d="M129.12,119.44c-1.34-1.34-9.01,1.22-7.52,2.71,1.74,1.74,9.34-.9,7.52-2.71Z"/>
  <path class="cls-1" d="M148,116.72c-.66,1.31-6.78-3.5-6.29-4.72,1.58-3.96,7.73,1.88,6.29,4.72Z"/>
  <path class="cls-1" d="M148.88,117.07c-4.06-.06-4.46,10.82-.88,4.37.73-1.31,2.9-4.35.88-4.37Z"/>
  <path class="cls-1" d="M164.8,114.28c1.89-4.16-9.81-2.54-4.9-.35,1.58.7,4.1,2.11,4.9.35Z"/>
  <path class="cls-1" d="M78.22,82.27c-4.21,1.1,4.41,7,5.25,4.9,1.03-2.57-3.54-5.34-5.25-4.9Z"/>
  <path class="cls-1" d="M37.82,108.59c1.89-5.25-5.95-12.04-2.62-2.89.45,1.24,1.99,4.66,2.62,2.89Z"/>
  <path class="cls-1" d="M43.59,124.94c-2.46-4.93-1.29-9.58,1.93-3.15"/>
  <path class="cls-1" d="M46.39,124.77l-.18-.7v-.88l.18-1.22.17-1.4.52-1.05.52-.7.52-.35.52-.18h.52l.35.18.52.7.17.35.18.35v.35l-.18.7-.52.7-.7.88-.52.7-.7.88-.52.52-.52.35-.52.35"/>
  <path class="cls-1" d="M57.93,99.76c0-1.97-4.44-4.3-6.65-2.1-1.37,1.37,6.65,5.47,6.65,2.1Z"/>
</svg>