<?xml version="1.0" encoding="UTF-8"?>
<svg id="Warstwa_1" data-name="Warstwa 1" xmlns="http://www.w3.org/2000/svg" viewBox="0 0 200 200.3">
  <defs>
    <style>
      .cls-1 {
        stroke-width: .77px;
      }

      .cls-1, .cls-2 {
        fill: none;
        stroke: #1e1212;
        stroke-linecap: round;
        stroke-linejoin: round;
      }

      .cls-2 {
        stroke-width: 1.31px;
      }

      .cls-3 {
        fill: #adadad;
      }
    </style>
  </defs>
  <path class="cls-3" d="M78.47,111.39c-.38-.72-2.16,12.62-1.99,14.5,1.08,11.81,3.58,22.32,5.47,29.64,3.19,12.32,7.61,23.67,13.8,27.43,3.31,2,15.7,6.56,23.02,2.36,8.4-4.82,9.37-16.19,5.66-23.19-2.63-4.97-14.55-11.04-19.72-11.2-7.47-.23-.96,6.33-6.03,7.22-7.78,1.36-13.3-16.75-15.26-21.22-2.14-4.89-2.68-21.2-4.95-25.52Z"/>
  <path class="cls-3" d="M151.76,137.86c-.72-.45-2.22,2.64-2.96,3.17-2.44,1.73-5.69,2.41-8.44,3.55-7.8,3.21-22.87,4.26-16.35,16.4,1.05,1.95,1.47,6.04,2.94,7.59,7.21,7.6,35.73-19.92,34.7-29.22-.38-3.46-5.78-3.69-8.35-2.91-.56.17-1.18,1.64-1.55,1.42Z"/>
  <path class="cls-3" d="M155.6,96.15s-.69,3.49-2.95,5.19c-3.72,2.8-11.24.93-7.96,6.83,4.95,8.91,21.83,15.99,26.97,17.98,5.14,1.99-19.95-3.2-20.67-4.49-4.43-7.92-14.67-9.76-16.98-12.18-4.81-5.07,10.27-10.93,20.88-13.29"/>
  <path class="cls-3" d="M52.54,30.8c-10.38,12.56-13.44,34.7-6.92,38.75,5.16,3.21,17.5-4.62,24.51-5.32,9.43-.94,12.84.32,19.02,4.96,3.29,2.47,6.97,2.17,1.88,4.73-7.83,3.93-11.6-11.6-24.23-3.83-8.46,5.21-28.41,14.59-32.41,13.14-12.35-4.49,2.59-14.07,4.12-18.29,1.29-3.56,1.64-12.33,2.08-15.79,1.37-10.84,3.1-13.25,10.64-18.91"/>
  <path class="cls-2" d="M61.46,13.65c-9.3,1.24-15.88,4.67-24.47,15.08-8.63,10.47-9.28,17.04-14.37,30.62-6.19,16.5-19.58,22.05-12.12,29.1,9.53,9.01,25.17,11.61,37.32,9.84,14.61-2.13,27.01-11.73,31.19-12.78,8.52-2.13,18.49,3.43,30.12-4.72,5.7-3.99,20.69-18.71,20.23-25.26-.29-4.1-9.28-10.8-16.43-13.84-18.47-7.86-23.78-31.74-51.48-28.05Z"/>
  <path class="cls-2" d="M52.17,98.83c0,25.39,13.75,64.84,34.6,79.63,6.88,4.88,23.97,12.22,32.62,6.46,11.56-7.7,7.41-22.08.5-31.29-5.34-7.12-12.32-10.83-18.54-17.05-8.22-8.23-11.48-14.82-14.07-25.83-.91-3.87-1.99-17.71-1.99-24.5"/>
  <path class="cls-2" d="M117.07,101.98c17.39-7.26,33.22-20.12,54.47-12.25,17.88,6.62,11.26,23.67,16.56,30.46,6.36,8.15,3.15,19.2-.83,17.71-6.43-2.41-22.93-1-25.83-1.32-10.43-1.16-23.84-4.14-32.12-12.92-3.22-3.42-19.1-18.83-12.25-21.69Z"/>
  <path class="cls-2" d="M133.63,127.48c0,7.74-9.16,17.74-15.73,21.03"/>
  <path class="cls-2" d="M128,170.69c10.66-1.65,18.04-7.37,23.03-13.57,5.2-6.47,8.17-12.74,11.9-20.2"/>
  <path class="cls-1" d="M53.05,30.2c-16.97,5.65-11.47,21.7-14.47,34.58-.77,3.32-13.76,10.41-7.58,16.58,6,6,26.15-5.91,32.63-9.71,14.47-8.47,16.09,1.7,24.52,2.12,7.86.39,13.64-7.32,20.46-9.88"/>
  <path class="cls-1" d="M78.45,26.85c14.25,0,14.44,38.88,25.93,24.52"/>
  <path class="cls-1" d="M42.64,60.19c0,23.99,23.66-4.07,38.11,5.12"/>
  <path class="cls-1" d="M156.12,95.39c0-.63-22.67,4.83-23.69,11.9-.52,3.61,5.05,4.56,12.51,7.7,4.99,2.09,2.54,7.04,9.98,8.12"/>
  <path class="cls-1" d="M172.12,101.3c-1.05-3.16,3.72,7.15,3.95,10.47.42,6.09-1.18,9.82-1.18,9.82,0,0,6.53-7.33,7.55,4.58"/>
  <path class="cls-1" d="M147.78,140.64c-8.83,8.5-12.69,1.91-19.18,8.4"/>
  <path class="cls-1" d="M150.37,143.05c-2.89,4.38-8.83,4.74-9.87,5.6"/>
  <path class="cls-1" d="M77.45,112.05c-.68,6-1.16,11.75-.66,17.03.37,3.96-.03,6.23,2.06,11.52"/>
  <path class="cls-1" d="M81.4,126.8c-.65,8.5,8.45,24.84,12.75,30.79"/>
  <path class="cls-1" d="M91.57,144.07c-.44,1.94,6.47,11.7,8.82,11.47.3-.03.12-.6.09-.9-.62-6.27,7.78-3.37,11.12-1.46"/>
  <path class="cls-1" d="M85.32,156.85l1.16,2.75"/>
</svg>