<?xml version="1.0" encoding="UTF-8"?>
<svg id="Warstwa_1" data-name="Warstwa 1" xmlns="http://www.w3.org/2000/svg" viewBox="0 0 200 200.3">
  <defs>
    <style>
      .cls-1 {
        stroke-width: .77px;
      }

      .cls-1, .cls-2 {
        fill: none;
        stroke: #1e1212;
        stroke-linecap: round;
        stroke-linejoin: round;
      }

      .cls-2 {
        stroke-width: 1.31px;
      }

      .cls-3 {
        fill: #adadad;
      }
    </style>
  </defs>
  <path class="cls-3" d="M153.84,57.69c0-2.27-4.65,2.83-4.3,10.34.34,7.25-10.09,13.2-12.59,26.75-1.77,9.62-9.58,4.09-9.04,12.43.4,6.15-6.15,7.29-6.35,10.13-1.15,16.18-10.68,25.88-15.09,29.55-.22.18-7.27,2.04-12.86,1.3-5.67-.74-9.88-4.08-9.88-4.08l-17.81.8-9.86,6.29-6.39-3.68s-18.98-.83-17.61,1c3.6,4.8,4.27,6.46,11.07,8.15,5.02,1.25,15.06,3.55,18.91,2.96,11.58-1.79,14.98,7.63,22.82,5.38,7.01-2.01,12.79-.04,15.24-2.93,8.02-9.47,2.17-7.3,9.49-13.4,12.09-10.07,9.16-15.99,23.03-25.19,9.08-6.02,12.29-5.19,13.72-9.02,8.97-23.99,27.87-13.75,39.14-40.4,1.34-3.16-7.85-7.75-12.23-9.21-1.49-.5-19.4-6.76-19.4-7.18Z"/>
  <path class="cls-2" d="M13.66,137.64c.08-1.39,7.52-7.79,9.55-15.56.54-2.08,5.77-10.57,6.91-12.03,1.03-1.32,7.71-5.81,8.05-6.26.35-.45-.16-4.83,1.03-8.11,1.2-3.28,3.05-2.42,3.76-5,.71-2.59-2.32-.69,2.86-10.82s16.78-27.1,17.56-28.55c.78-1.45,3.63,1.41,5.59-.17,1.96-1.57,1.96-7.31,4.69-8.46,2.72-1.15,20.09-.89,22.1-1.23s4.97,3.52,6.83,3.31,2.36-5.39,4.72-6.47c2.37-1.08,10.68-3,12.48-3.36,1.8-.36,4.63,4.12,5.59,4.47.95.34,3.26-3.64,5.8-3.34,2.53.31,3.48,3.8,6.96,2.32s11.38-1.48,12.55-1.61c1.69-.19,8.67,2.53,8.6,2.71-1.98,4.8-1.71,14.69-6.44,19.49-6.7,6.81-1.07,7.08-3.92,12.3-2.52,4.61-8.58,9.83-10.25,17.02-2.22,9.62-7.21,13.87-10.68,15.5-2.71,1.28,1.54,5.67-.44,9.52-.48.93-7.27,4.19-7.27,4.19,0,0,1.25,7.84-.28,9.52-1.46,1.6-13.32,20.92-15.35,20.92-3.15,0-12.84-.26-16.29-.68-2.06-.25-2-4.09-5.38-3.41-7.83,1.57-16.18.21-16.18.21,0,0-7.38,5.31-9.48,6.4-2.1,1.09-6.21-3.55-8.57-3.46-2.36.09-15.42.71-15.42.71,0,0-10.36-2.59-16.47-1.27-4.64,1-3.37-5.95-3.21-8.8Z"/>
  <path class="cls-2" d="M155.14,56.19c2.68,2.2,32.62,14.15,31.45,16.19-.95,1.67-4.55,8.56-6.32,10.55-5.96,6.71-14.7,11.4-18.05,14.71-3.08,3.04-5.85-.56-8.6,4.98-2.04,4.09,1.23,4.17-4.98,6.52-2.12.8-2.68,8.78-5.69,9.35-3.54.67-14.6,7.29-25.45,24.54-1.89,3.01-5.5,1.06-9.78,5.56-1.33,1.4-6.5,11.4-8.15,15.01-.75,1.65-8.68.44-10.09.86-2.08.61-10.76,1.83-15.91-1.17-9.29-5.4-5.25-5.6-10.75-3.33-1.98.82-10.21-2.64-12.29-3.05-9.39-1.86-5.92,5.07-20.31-9.46"/>
  <path class="cls-1" d="M102.51,49.58c-1.09,1.62-.52.69-1.61,2.86"/>
  <path class="cls-1" d="M107.33,47.8l-1.78,3.04"/>
  <path class="cls-1" d="M86.44,51.01c1.61,0,3.05.33,4.64.53"/>
  <path class="cls-1" d="M176.98,73.87c.13-.27.35-.83.18.18-.82,4.9-7.78,9.18-11.43,11.6"/>
  <path class="cls-1" d="M26.26,140.12c0,2.05,5.28,1.07,6.79,1.07"/>
  <path class="cls-1" d="M27.51,136.91c1.95-.65,3.97-.65,5.89-1.61"/>
  <path class="cls-1" d="M28.76,125.65l1.96.89"/>
  <path class="cls-1" d="M31.8,124.05l2.32.89"/>
  <path class="cls-1" d="M33.05,118.69l2.5-.89"/>
  <path class="cls-1" d="M50.19,138.69c3.4,0,6.58-1.25,10-1.25"/>
  <path class="cls-1" d="M78.76,129.05c2.61-.65,6.2.73,8.57,1.78"/>
  <path class="cls-1" d="M90.72,118.69c.92.46,3.26-.81,4.29-1.07"/>
  <path class="cls-1" d="M97.15,112.98h1.07"/>
  <path class="cls-1" d="M92.51,110.83c-.29.88-.18.35-.18,1.61"/>
  <path class="cls-1" d="M105.9,115.48c-.79-.4-1.26,3-1.43,3.57"/>
  <path class="cls-1" d="M85.55,138.33c2.17-.43,3.97-1.22,6.25-1.43"/>
  <path class="cls-1" d="M72.69,155.12c1.88.95,3.65,2.03,5.71,2.86"/>
  <path class="cls-1" d="M78.94,153.33c.68,1.36,2.33,2.33,3.39,3.39"/>
  <path class="cls-1" d="M87.51,157.08l1.61-.89"/>
  <path class="cls-1" d="M140.55,100.12c1.88,0,3.54-1.24,5.36-1.61"/>
  <path class="cls-1" d="M145.37,94.76c.36.06.71.12,1.07.18"/>
  <path class="cls-1" d="M154.65,74.58c2.04-.51,5.25-.59,7.14.36"/>
  <path class="cls-1" d="M164.12,71.73l1.61,1.78"/>
</svg>