<?xml version="1.0" encoding="UTF-8"?>
<svg id="Warstwa_1" data-name="Warstwa 1" xmlns="http://www.w3.org/2000/svg" viewBox="0 0 200 200.3">
  <defs>
    <style>
      .cls-1 {
        stroke-width: .49px;
      }

      .cls-1, .cls-2, .cls-3, .cls-4, .cls-5 {
        fill: none;
        stroke: #1e1212;
        stroke-linecap: round;
        stroke-linejoin: round;
      }

      .cls-2 {
        stroke-width: 1.31px;
      }

      .cls-3 {
        stroke-width: .57px;
      }

      .cls-4 {
        stroke-width: .6px;
      }

      .cls-5 {
        stroke-width: .77px;
      }

      .cls-6 {
        fill: #adadad;
      }
    </style>
  </defs>
  <path class="cls-6" d="M153.83,120.58c3.21-.14,7.74-5.09,8.16-1.42.54,4.72-9.48,7.32-8.74,3.4"/>
  <path class="cls-6" d="M131.61,113.76c-.48-1.31,2,1.14,4.27-.68,3.24-2.59,3.63-7.74,5.94-3.49,2.1,3.87-7.2,12.4-10.21,4.17Z"/>
  <path class="cls-6" d="M118.44,125.9c-4.44,4.71,8.11,9.07,9.71,6.19,1.38-2.48,2.05-5.17-4.02-3.81-2.28.51-4.96-3.16-5.69-2.38Z"/>
  <path class="cls-6" d="M108.24,144.88s-1.34,1.03.67,3.06c.85.86,5.76,1.33,6.95-.25,1.05-1.39,2.16-5.57.01-4.52-2.15,1.04-7.63,1.72-7.63,1.72Z"/>
  <path class="cls-6" d="M96.29,135.05c-1.24-.02-.31,5.84,3.92,4.31,5.98-2.17,6.88-3,4.25-6.43-1.03-1.34-4.87,2.17-8.17,2.12Z"/>
  <path class="cls-6" d="M144.05,94.42c1.01-1.24,1.69,3.68,5.83,3.12,6.2-.83,2.09,2.92,2.05,3.28-.29,2.82-5.36.43-7.04-.34-3.59-1.65-2.78-3.68-.84-6.07Z"/>
  <path class="cls-6" d="M120.54,96.53c-1.62,3.08.91,6.81,5.54,5.29,4.16-1.37,8.32-3.14,4.67-6.61-2.06-1.95.61.2-4.98,2.78-4.26,1.96-4.48-2.89-5.24-1.46Z"/>
  <path class="cls-6" d="M103.32,119.64c-.11-.05.36,3.72,1.91,4.58,2.94,1.62,11.22-2.85,10.61-6.79-.52-3.32-3.11-6.09-3.63-1.69-.36,2.99-7.59,4.53-8.89,3.9Z"/>
  <path class="cls-6" d="M80.64,105.11c-20.07,18.41-19.78,21.21-25.05,26.62-.3.31-5.67,8.61-5.67,8.61l9.21-4.39-1.34,9.7,9.96-2.2s14.84-21.18,21.4-27.86c14.55-14.8,31.62-29.18,46.67-38.13,23.05-13.72,46.19-17.05,56.97-34.66,9.62-15.72-31.58-23.94-42.42-16.31-22.71,15.99-29.72,30.87-45.64,52.29-8.69,11.68-9.82,11.33-24.46,26.97"/>
  <path class="cls-6" d="M17.03,160.39c-1.56-16.49,30.07,6.01,22.5,16.38-3.43,4.7-3.31-1.67-4.72-6.29-1.74-5.68-11.55-14.45-17.89-11.06-.19.1.16,1.5.11.98Z"/>
  <path class="cls-5" d="M18.4,165.79c2.97,6.84,18.75,16.64,17.6,8.33-1.85-13.38-23.97-23.03-17.6-8.33Z"/>
  <path class="cls-5" d="M16.76,158.14c-2.44-16.75,7.95-21.34,26.14-22.8,4.52-.36,21.87-13.86,21.87-13.86,0,0-15.27,16.13-15.05,19.33.08,1.24,10.5-5.26,10.5-5.26.04.09-2.77,6.87-3.74,10.15-.8,2.71,8.79-2.02,9.56-.48.92,1.83-4.5,7.66-5.8,11.79-4.28,13.53-12.96,19.88-21.72,20.45"/>
  <path class="cls-5" d="M60.87,124.93c12.03-9.87,24.43-24.47,32.61-33.05,19.33-20.29,60.73-101.87,100-55.08,9.95,11.86-47.83,35.65-49.52,36.7-35.19,21.9-74.35,54.8-86.17,90.44"/>
  <path class="cls-5" d="M59.78,135.93c6-10.41,26.02-33.76,30.32-38,18.14-17.86,36.61-24.7,58.84-35.64,10.03-4.94,34.86-12.56,45.26-24.18"/>
  <path class="cls-5" d="M59.15,145.2c20.22-30.65,45.86-58.54,51.7-65.42,13.56-15.97,21.33-27.46,37.86-39.51,7.9-5.76,17.05-11.78,31.13-14.9"/>
  <path class="cls-4" d="M113.75,113.89c-2.54-1.57-13.54,4.13-9.86,8.1,2.12,2.29,14.95-4.94,9.86-8.1Z"/>
  <path class="cls-3" d="M131.29,95.31c-.85-2.86-12.45-.34-11.39,3.21.74,2.49,12.14-.71,11.39-3.21Z"/>
  <path class="cls-3" d="M152.89,98.58c.85-2.63-8.3-6.36-9.54-3.59-1.3,2.89,8.74,6.09,9.54,3.59Z"/>
  <path class="cls-3" d="M140.81,108.44c-2.11-2.26-11.56,2.16-9.15,6.47,1.67,2.98,11.67-3.78,9.15-6.47Z"/>
  <path class="cls-3" d="M160.91,117.66c-1.4-2.69-8.9.17-7.78,3.93.65,2.19,9.6-.43,7.78-3.93Z"/>
  <path class="cls-4" d="M128.31,127.87c-.99-2.09-11.75-5.07-9.87-.43,1.44,3.55,12.17,5.27,9.87.43Z"/>
  <path class="cls-4" d="M104.24,132.49c-1.49-2.66-9.5,1.18-8.67,3.7.78,2.36,10.64-.17,8.67-3.7Z"/>
  <path class="cls-1" d="M117.1,144.2c-.16-3.83-9.76-2.37-9.25,1.04.41,2.79,9.35,1.28,9.25-1.04Z"/>
  <path class="cls-5" d="M187.29,32.14c-11.21,10.01-25.34,14.45-39.49,22.89-8.17,4.88-42.18,26.97-77.13,72.83"/>
  <path class="cls-5" d="M58.01,145.8c9.67-15.82,9.27-18.11,27.23-37.72,4.44-4.84,10.66-9.76,17.65-17.34"/>
  <path class="cls-5" d="M65.8,145.31c28.88-61.43,70.57-67.29,103.34-83.83"/>
  <path class="cls-4" d="M103.33,121.34c.78,1.71,1.92,3.63,4.06,3.19,2.17-.44,8.58-3.86,8.69-6.11.06-1.34-.47-2.2-1.54-3.75"/>
  <path class="cls-3" d="M119.84,98.44c.28.99.4,2.42,1.08,3.16,1.6,1.75,10.21-.83,10.74-2.42.49-1.48.06-2.01-.37-3.76"/>
  <path class="cls-3" d="M143.17,95.1c-.85,2.44-.74,3.73.83,4.6,2.83,1.57,4.75,2.24,6.59,1.91.82-.14,1.66-1.26,2.19-3.25"/>
  <path class="cls-3" d="M131.83,115.11c.91,1.37,1.54,2.22,2.68,2.21,3.32-.05,7.49-3.59,7.84-4.6.41-1.19-.34-2.58-1.15-3.75"/>
  <path class="cls-3" d="M153.19,121.8c.42,1.31,1.13,2.46,2.15,2.54,1.43.11,6.13-1.57,6.35-2.97.18-1.15.1-2.28-.73-3.72"/>
  <path class="cls-4" d="M118.29,125.95c-.42,1.56-1.29,3.22-.18,4.31,2.35,2.32,7.81,3.25,9.21,2.36,1.13-.73.76-1.32,1.24-3.16"/>
  <path class="cls-4" d="M95.62,136.38c.38,1.34,1.15,2.44,2.04,2.8,1.49.62,7.63-1.05,7.79-3.03.09-1.22-.25-2.21-1.11-3.47"/>
  <path class="cls-1" d="M107.83,145.29s.12,2.17,1.13,2.8c2.12,1.3,7.34-.51,7.78-.9.44-.39.61-1.44.39-3.13"/>
  <path class="cls-4" d="M98.08,132.95c-6.71,3.87,6.5,1.84,4.56-.95"/>
  <path class="cls-4" d="M107.16,115.59c-5.56,3.67-2.58,5.08.94,3.47,6.06-2.76,5.52-6.79-.03-4.08"/>
  <path class="cls-3" d="M126.69,95.2c-1.32.09-6.09,2.19-4.49,2.49,2.78.52,10.56-2.93,4.49-2.49Z"/>
  <path class="cls-3" d="M147.29,94.36c-2.57-.48-1.71,1.52.11,2.33,1.93.86,6.17,1.28,3.14-.97"/>
  <path class="cls-3" d="M133.39,111.11c4.92-3.71,6.69-2.96,5.18-.69-1.94,2.91-9.03,4.92-5.49,1.01"/>
  <path class="cls-3" d="M155.59,117.61c-3.48,1.76-1.96,3.02.4,2.46,3.3-.78,5.62-4.58-.21-2.62"/>
  <path class="cls-4" d="M124.35,125.64c-1.72-.63-4.93-.91-4.01.6.96,1.59,9.67,3.44,5.75.17"/>
  <path class="cls-1" d="M111.64,142.68c-5.03,1.96-1.24,2.25.68,2,2.16-.29,5.68-2.32-.51-2.01"/>
  <path class="cls-5" d="M17.79,164.82c-4.11-11.54,4.14-11.15,8.43-8.97,4.84,2.45,10.17,7.33,12.73,12.41,1.84,3.65,2.75,11.73-5.93,9.26"/>
  <path class="cls-2" d="M20.28,169.74c2.32,3.57,9.79,9.19,17.26,8.3,13.13-1.56,18.4-8.56,22.42-19.44,6.33-17.16,27.25-41.4,36.98-51.04,7.36-7.29,35.38-28.2,44.63-32.93,15.8-8.09,22.41-8.47,37.1-18.02,6.03-3.92,17.23-13.16,15.16-19.43-1.48-4.48-14.7-20.21-37.41-12.34-13,4.5-14.85,4.19-58.37,62.1-11.03,14.68-47.41,47.17-54.98,47.56-4.4.22-13.86,1.48-20.07,5.6-2.54,1.68-13.85,12.47-2.7,29.65Z"/>
  <path class="cls-5" d="M26.99,150.94c.11-7.31,10.84-10.14,13.17-10.96"/>
  <path class="cls-5" d="M36.45,156.41c-.36.64,6.58.33,11.1-7.19"/>
  <path class="cls-5" d="M44.24,166.58c5.82,1.09,11.75-8.02,12.91-14.76"/>
  <path class="cls-5" d="M47.7,159.12c3.35-1.79,4.76-4.26,5.9-6.86"/>
  <path class="cls-5" d="M114.37,80.03c-2.9,1.6,4.09-5.23,6.33-7.66,5-5.41,9.14-11.58,14.49-16.7,15.31-14.64,32.18-18.97,49.96-28.76"/>
  <path class="cls-5" d="M107.48,85.79c15.45-10.9,38.52-17.04,56.89-20.42"/>
</svg>