<?xml version="1.0" encoding="UTF-8"?>
<svg id="Warstwa_1" data-name="Warstwa 1" xmlns="http://www.w3.org/2000/svg" viewBox="0 0 200 200.3">
  <defs>
    <style>
      .cls-1 {
        stroke-linecap: round;
      }

      .cls-1, .cls-2 {
        fill: none;
        stroke: #000;
        stroke-linejoin: round;
        stroke-width: 2.09px;
      }
    </style>
  </defs>
  <path class="cls-2" d="M100.34,26.62c51.98.31,93.97,26.06,93.78,57.52-.19,31.46-42.48,56.71-94.46,56.4-51.98-.31-93.97-26.06-93.79-57.52.19-31.46,42.48-56.71,94.46-56.4Z"/>
  <path class="cls-2" d="M100.32,29.98c49.51.3,89.51,23.61,89.34,52.08-.17,28.47-40.44,51.31-89.95,51.01-49.51-.29-89.51-23.61-89.34-52.08.17-28.47,40.44-51.31,89.95-51.01Z"/>
  <path class="cls-2" d="M7.36,93.94s14.71,70.05,90.95,71.95c76.23,1.9,90.91-62.27,93.83-69.34"/>
  <path class="cls-2" d="M48.87,152.1s17.03,21.55,51.01,21.59c33.98.04,46.46-17.54,46.46-17.54"/>
  <path class="cls-1" d="M62.87,128.24c10.01-5.79,20.83-9.35,37.44-9.33,20.1.03,31.74,5.75,37.84,9.53"/>
</svg>