<?xml version="1.0" encoding="UTF-8"?>
<svg id="Warstwa_1" xmlns="http://www.w3.org/2000/svg" version="1.1" viewBox="0 0 200 200.3">
  <!-- Generator: Adobe Illustrator 29.3.1, SVG Export Plug-In . SVG Version: 2.1.0 Build 151)  -->
  <defs>
    <style>
      .st0 {
        stroke-linecap: round;
      }

      .st0, .st1 {
        fill: none;
      }

      .st0, .st1, .st2 {
        stroke: #000;
        stroke-linejoin: round;
        stroke-width: 2.1px;
      }

      .st2 {
        fill: #515151;
        opacity: .9;
      }
    </style>
  </defs>
  <path class="st1" d="M100.3,26.6c52,.3,94,26.1,93.8,57.5s-42.5,56.7-94.5,56.4c-52-.3-94-26.1-93.8-57.5.2-31.5,42.5-56.7,94.5-56.4h0Z"/>
  <path class="st1" d="M100.3,30c49.5.3,89.5,23.6,89.3,52.1-.2,28.5-40.4,51.3-89.9,51-49.5-.3-89.5-23.6-89.3-52.1.2-28.5,40.4-51.3,89.9-51Z"/>
  <path class="st1" d="M7.4,93.9s14.7,70.1,90.9,71.9c76.2,1.9,90.9-62.3,93.8-69.3"/>
  <path class="st1" d="M48.9,152.1s17,21.6,51,21.6c34,0,46.5-17.5,46.5-17.5"/>
  <path class="st0" d="M62.9,128.2c10-5.8,20.8-9.3,37.4-9.3,20.1,0,31.7,5.8,37.8,9.5"/>
  <path class="st2" d="M100.8,56.7c41,.2,75.5,16.3,86.1,38,0,0-16.8,38.4-87.2,38.4-69.3,0-86.1-38-86.1-38,9.9-22.3,45.2-38.6,87.2-38.4Z"/>
</svg>