<?xml version="1.0" encoding="UTF-8"?>
<svg id="Warstwa_1" xmlns="http://www.w3.org/2000/svg" version="1.1" viewBox="0 0 68.5 66">
  <!-- Generator: Adobe Illustrator 29.2.1, SVG Export Plug-In . SVG Version: 2.1.0 Build 116)  -->
  <defs>
    <style>
      .st0 {
        stroke-width: 6.8px;
      }

      .st0, .st1, .st2, .st3 {
        fill: none;
        stroke: #122653;
        stroke-linecap: round;
        stroke-linejoin: round;
      }

      .st1 {
        stroke-width: 1.08px;
      }

      .st2 {
        stroke-width: 2.09px;
      }

      .st3 {
        stroke-width: 3.24px;
      }
    </style>
  </defs>
  <path class="st0" d="M64.81,18.48C49.52,2.83,10.93,10.35,6.94,19.64c-5.21,12.15,14.3,14.67,29.31,14.77,15.01.11,28.13-5.24,28.14-5.17,2.35,15.92-7.06,26.4-24.97,27.78-17.23,1.33-30.57-4.05-33.66-20.96"/>
  <path class="st1" d="M38.62,55.12c-1.73-5.87,8.23-7.77,8.2-1.86"/>
  <path class="st1" d="M41,53.83c0-2.56,3.47-2.31,3.56-.1"/>
  <path class="st1" d="M31.03,54.61c-.22.11,1.51-4.25,3.44-.34"/>
  <path class="st1" d="M27.82,54.23c.03-5.57,7.97-5.21,9.5-.54"/>
  <path class="st1" d="M36.38,51.43c0-2.22,3.29-2.75,3.59-.82"/>
  <path class="st1" d="M33.97,49.85c1.31-5.14,8.44-4.72,9.18-.19"/>
  <path class="st1" d="M46.1,50.94c0-1.61,1.21-2.39,1.99-2.71,1.4-.58,3.61.56,3.72,2.58"/>
  <path class="st1" d="M44.34,49.79c.06-1.8,1.16-2.96,1.5-3.41,2.45-3.18,8.06-1.06,8.97,2.69"/>
  <path class="st1" d="M28.16,52.18c-.2-2.45-5.05-2.35-5.2.37"/>
  <path class="st1" d="M20.32,51.99c-.11-3.41,3.15-5.35,6.26-4.79,1.88.34,3,1.86,2.93,3.64"/>
  <path class="st1" d="M28.9,48.48c.02-3.51,4.66-3.4,5.93-.82"/>
  <path class="st1" d="M26.79,47.13c.02-4.67,9.06-4.92,10.11-.77"/>
  <path class="st1" d="M16.13,49.3c.23-.43.4-.74.49-.95,1.07-2.33,4.34-2.84,6.1-.56"/>
  <path class="st1" d="M18.45,50.26c.23-1.28,1.75-1.65,2.51-.9"/>
  <path class="st1" d="M41.4,46.9c.08-.83.72-1.6,1.65-1.9,1.41-.46,2.73.53,2.79,1.38"/>
  <path class="st1" d="M39.8,46.25c-.31-4.26,6.66-5.45,8.19-1.36"/>
  <path class="st1" d="M29.88,49.83c.68-2,3.59-1.86,4.09-.21"/>
  <path class="st1" d="M47.7,52.67c-.7-2.17,2.11-3.93,2.71-.96"/>
  <path class="st1" d="M53.84,43.75c0-1.42,2.13-1.96,2.68-.27"/>
  <path class="st1" d="M51.61,43.75c-.36-4.49,5.67-5.09,6.68-.97"/>
  <path class="st1" d="M13,43.74c.68-1.98,2.87-1.6,3.26,0"/>
  <path class="st1" d="M11.57,42.61s.57-1.73,2.22-2.23c1.98-.59,3.62.82,4.16,2.47"/>
  <path class="st1" d="M35.24,32.06c-.86.36-1.71.72-2.56,1.11-1.85.84-3.54,1.57-5.42,2.31"/>
  <path class="st1" d="M41.3,31.96c-1.55.62-2.98,1.37-4.08,2.46M55.75,14.49c-.08-.16-.52-.09-1.17.12"/>
  <path class="st1" d="M49.78,30.72c-1.45.81-2.86,1.59-4.07,2.39M58.45,14.99c-.41-.42-1.41-.04-2.31.65"/>
  <line class="st3" x1="3.69" y1="6.91" x2="28.16" y2="39.68"/>
  <line class="st3" x1="11.21" y1="2.63" x2="30.57" y2="40.71"/>
  <path class="st2" d="M54.08,14.16c-3.23-1.1-12.47,1.72-12.78,5.26-.31,3.48,11.22,1.07,7.68,5.45-2.49,3.08-18.54,1.72-18.57,7.79"/>
  <path class="st2" d="M57.38,15.18c3.17-.78-6.7,1.22-6.99,3.18-.48,3.21,13.22,2.44,6.38,8.02-4.28,3.49-18.09,3.11-19.86,8.34"/>
  <path class="st2" d="M60.85,17.5c-5.84-.03,3.99,4.09,3.17,7.82-.75,3.43-7.11,2.62-9.11,5.09"/>
  <path class="st2" d="M24.33,18.68c-1.06,2.81,7.4,3.22,8.89,1.15,1.9-2.63-7.85-3.92-8.89-1.15Z"/>
  <path class="st2" d="M35.27,22.96c-1.47.09-5.4,2.3-3,2.83,4.22.93,10.18-3.25,3-2.83Z"/>
  <path class="st2" d="M39.03,15.87c-.74-.61-4.39-2.44-4.4-.25,0,2.68,6.1,1.66,4.4.25Z"/>
  <path class="st2" d="M53.75,55.41c-2.33,4.85-8.14,6.61-10.95,7.24-6.71,1.5-22.49,1.37-24.98-7.51"/>
</svg>