<?xml version="1.0" encoding="UTF-8"?>
<svg id="Warstwa_1" xmlns="http://www.w3.org/2000/svg" version="1.1" viewBox="0 0 68.5 66">
  <!-- Generator: Adobe Illustrator 29.3.0, SVG Export Plug-In . SVG Version: 2.1.0 Build 146)  -->
  <defs>
    <style>
      .st0 {
        stroke-width: 3.2px;
      }

      .st0, .st1, .st2, .st3 {
        fill: none;
        stroke: #f44e54;
        stroke-linecap: round;
        stroke-linejoin: round;
      }

      .st1 {
        stroke-width: 2.1px;
      }

      .st2 {
        stroke-width: 1.1px;
      }

      .st3 {
        stroke-width: 6.8px;
      }
    </style>
  </defs>
  <path class="st3" d="M64.8,18.5C49.5,2.8,10.9,10.4,6.9,19.6c-5.2,12.1,14.3,14.7,29.3,14.8,15,.1,28.1-5.2,28.1-5.2,2.3,15.9-7.1,26.4-25,27.8-17.2,1.3-30.6-4-33.7-21"/>
  <path class="st2" d="M38.6,55.1c-1.7-5.9,8.2-7.8,8.2-1.9"/>
  <path class="st2" d="M41,53.8c0-2.6,3.5-2.3,3.6,0"/>
  <path class="st2" d="M31,54.6c-.2.1,1.5-4.2,3.4-.3"/>
  <path class="st2" d="M27.8,54.2c0-5.6,8-5.2,9.5-.5"/>
  <path class="st2" d="M36.4,51.4c0-2.2,3.3-2.8,3.6-.8"/>
  <path class="st2" d="M34,49.8c1.3-5.1,8.4-4.7,9.2-.2"/>
  <path class="st2" d="M46.1,50.9c0-1.6,1.2-2.4,2-2.7,1.4-.6,3.6.6,3.7,2.6"/>
  <path class="st2" d="M44.3,49.8c0-1.8,1.2-3,1.5-3.4,2.5-3.2,8.1-1.1,9,2.7"/>
  <path class="st2" d="M28.2,52.2c-.2-2.5-5-2.3-5.2.4"/>
  <path class="st2" d="M20.3,52c-.1-3.4,3.1-5.3,6.3-4.8,1.9.3,3,1.9,2.9,3.6"/>
  <path class="st2" d="M28.9,48.5c0-3.5,4.7-3.4,5.9-.8"/>
  <path class="st2" d="M26.8,47.1c0-4.7,9.1-4.9,10.1-.8"/>
  <path class="st2" d="M16.1,49.3c.2-.4.4-.7.5-1,1.1-2.3,4.3-2.8,6.1-.6"/>
  <path class="st2" d="M18.5,50.3c.2-1.3,1.8-1.7,2.5-.9"/>
  <path class="st2" d="M41.4,46.9c0-.8.7-1.6,1.7-1.9,1.4-.5,2.7.5,2.8,1.4"/>
  <path class="st2" d="M39.8,46.2c-.3-4.3,6.7-5.5,8.2-1.4"/>
  <path class="st2" d="M29.9,49.8c.7-2,3.6-1.9,4.1-.2"/>
  <path class="st2" d="M47.7,52.7c-.7-2.2,2.1-3.9,2.7-1"/>
  <path class="st2" d="M53.8,43.8c0-1.4,2.1-2,2.7-.3"/>
  <path class="st2" d="M51.6,43.8c-.4-4.5,5.7-5.1,6.7-1"/>
  <path class="st2" d="M13,43.7c.7-2,2.9-1.6,3.3,0"/>
  <path class="st2" d="M11.6,42.6s.6-1.7,2.2-2.2c2-.6,3.6.8,4.2,2.5"/>
  <path class="st2" d="M35.2,32.1c-.9.4-1.7.7-2.6,1.1-1.9.8-3.5,1.6-5.4,2.3"/>
  <path class="st2" d="M41.3,32c-1.5.6-3,1.4-4.1,2.5M55.8,14.5c0-.2-.5,0-1.2.1"/>
  <path class="st2" d="M49.8,30.7c-1.5.8-2.9,1.6-4.1,2.4M58.5,15c-.4-.4-1.4,0-2.3.6"/>
  <line class="st0" x1="3.7" y1="6.9" x2="28.2" y2="39.7"/>
  <line class="st0" x1="11.2" y1="2.6" x2="30.6" y2="40.7"/>
  <path class="st1" d="M54.1,14.2c-3.2-1.1-12.5,1.7-12.8,5.3-.3,3.5,11.2,1.1,7.7,5.4-2.5,3.1-18.5,1.7-18.6,7.8"/>
  <path class="st1" d="M57.4,15.2c3.2-.8-6.7,1.2-7,3.2-.5,3.2,13.2,2.4,6.4,8-4.3,3.5-18.1,3.1-19.9,8.3"/>
  <path class="st1" d="M60.8,17.5c-5.8,0,4,4.1,3.2,7.8-.8,3.4-7.1,2.6-9.1,5.1"/>
  <path class="st1" d="M24.3,18.7c-1.1,2.8,7.4,3.2,8.9,1.1,1.9-2.6-7.9-3.9-8.9-1.1Z"/>
  <path class="st1" d="M35.3,23c-1.5,0-5.4,2.3-3,2.8,4.2.9,10.2-3.2,3-2.8Z"/>
  <path class="st1" d="M39,15.9c-.7-.6-4.4-2.4-4.4-.2,0,2.7,6.1,1.7,4.4.2Z"/>
  <path class="st1" d="M53.8,55.4c-2.3,4.8-8.1,6.6-11,7.2-6.7,1.5-22.5,1.4-25-7.5"/>
</svg>