<?xml version="1.0" encoding="UTF-8"?>
<svg id="Warstwa_1" xmlns="http://www.w3.org/2000/svg" version="1.1" viewBox="0 0 68.5 66">
  <!-- Generator: Adobe Illustrator 29.3.0, SVG Export Plug-In . SVG Version: 2.1.0 Build 146)  -->
  <defs>
    <style>
      .st0 {
        stroke-width: 2.1px;
      }

      .st0, .st1, .st2, .st3 {
        fill: none;
        stroke: #f44e54;
        stroke-linecap: round;
        stroke-linejoin: round;
      }

      .st1 {
        stroke-width: 6.8px;
      }

      .st2 {
        stroke-width: 1.1px;
      }

      .st3 {
        stroke-width: 3.2px;
      }
    </style>
  </defs>
  <path class="st1" d="M64.8,18.7c-15.2-15.7-53.8-8.5-57.9.8-5.3,12.1,14.2,14.7,29.2,14.9,15,.2,28.2-5.1,28.2-5,2.3,15.9-7.2,26.4-25.1,27.6-17.2,1.2-30.5-4.2-33.5-21.2"/>
  <path class="st2" d="M37.9,55.4c-.5-6.3,8.7-6.6,8.7-2"/>
  <path class="st2" d="M40.8,54.3c0-2.6,3.3-2.3,3.3-.6"/>
  <path class="st2" d="M30,54.5c0-2.3,3.9-3.3,5,.3"/>
  <path class="st2" d="M27.6,54.3c.5-5.3,8.2-5.5,9.5-.5"/>
  <path class="st2" d="M36.2,51.5c0-2.2,3.7-2.9,4-.6"/>
  <path class="st2" d="M33.8,49.9c1.3-5.1,8.2-5,9.4.1"/>
  <path class="st2" d="M46,51.3c.5-4,5.9-5.2,7-1.3"/>
  <path class="st2" d="M44.6,50.6c1-8.5,9.5-7,10.2-1.9"/>
  <path class="st2" d="M27.1,51.5c-.4-1.8-4.1-2.4-4.2,1.6"/>
  <path class="st2" d="M20.3,52.2c-.1-4.5,3.2-6,6.1-5,1.7.8,2.8,1.9,2.8,3.7"/>
  <path class="st2" d="M28.1,48.3c1.1-3.6,6.1-3.2,6.9-.7"/>
  <path class="st2" d="M26.6,47.2c0-4.7,8.6-5.9,10.3-.8"/>
  <path class="st2" d="M16.1,48.8c0-3.3,5.1-4.1,6.3-1.6"/>
  <path class="st2" d="M17.9,50.5c-.3-2.5,2.6-3.1,2.9-1"/>
  <path class="st2" d="M41.2,46.9c.8-2.5,3.8-2.9,4.7-.7"/>
  <path class="st2" d="M39.8,46.2c0-4.1,5.8-5.5,8.1-1.7"/>
  <path class="st2" d="M29.7,49.9c.3-2.6,3.7-2.3,4.2-.5"/>
  <path class="st2" d="M48.3,52.6c-.6-1.7,1.8-4,2.9-1.4"/>
  <path class="st2" d="M54.2,44c0-1.4,1.9-1.9,2.2-.4"/>
  <path class="st2" d="M52,44c-.7-4.4,6.1-5.4,6.1-1.1"/>
  <path class="st2" d="M12.9,43.6c.7-2,2.6-1.7,3.2.1"/>
  <path class="st2" d="M11.1,43.1s0-2.1,2.6-2.9c2-.6,4.3,1.3,4.3,3.4"/>
  <path class="st2" d="M35.1,32.1c-.9.4-1.7.7-2.6,1.1-1.9.8-3.5,1.5-5.4,2.3"/>
  <path class="st2" d="M55.7,14.7c0-.2-.5,0-1.2.1M41.2,32.1c-1.6.6-3,1.4-4.1,2.4"/>
  <path class="st2" d="M58.4,15.2c-.4-.4-1.4,0-2.3.6M49.7,30.9c-1.5.8-2.9,1.6-4.1,2.4"/>
  <path class="st3" d="M3.7,6.8l24.3,32.9"/>
  <path class="st3" d="M11.3,2.6l19.1,38.2"/>
  <path class="st0" d="M54.1,14.3c-3.2-1.1-12.5,1.6-12.8,5.2-.3,3.5,11.2,1.1,7.6,5.5-2.5,3.1-18.6,1.6-18.6,7.7"/>
  <path class="st0" d="M57.4,15.4c3.2-.8-6.7,1.2-7,3.1-.5,3.2,13.2,2.5,6.3,8.1-4.3,3.5-18.1,3-19.9,8.2"/>
  <path class="st0" d="M60.8,17.7c-5.8,0,4,4.1,3.1,7.8-.8,3.4-7.1,2.6-9.1,5"/>
  <path class="st0" d="M24.3,18.7c-1.1,2.8,7.4,3.3,8.9,1.2,1.9-2.6-7.8-4-8.9-1.2Z"/>
  <path class="st0" d="M35.2,23c-1.5,0-5.4,2.3-3,2.8,4.2,1,10.2-3.2,3-2.8Z"/>
  <path class="st0" d="M39,16c-.7-.6-4.4-2.5-4.4-.3,0,2.7,6.1,1.7,4.4.3Z"/>
  <path class="st0" d="M53.5,55.6c-2.4,4.8-8.2,6.6-11,7.2-6.7,1.5-22.5,1.2-24.9-7.7"/>
</svg>