<?xml version="1.0" encoding="UTF-8"?>
<svg id="Warstwa_1" xmlns="http://www.w3.org/2000/svg" version="1.1" viewBox="0 0 1920 1080">
  <!-- Generator: Adobe Illustrator 29.3.1, SVG Export Plug-In . SVG Version: 2.1.0 Build 151)  -->
  <defs>
    <style>
      .st0, .st1 {
        stroke-width: 7px;
      }

      .st0, .st1, .st2, .st3 {
        fill: none;
        stroke: #1e1212;
        stroke-linejoin: round;
      }

      .st0, .st3 {
        stroke-linecap: round;
      }

      .st4 {
        fill: #1e1212;
      }

      .st2 {
        stroke-width: 1.3px;
      }

      .st3 {
        stroke-width: 5px;
      }
    </style>
  </defs>
  <path class="st0" d="M1068.2,479.7c-88.2,49.4-182.3,113.3-217.3,106.7-121.5-22.9-265.1-158.1-424.3-163.2-107.2-3.4-239,48.2-322.2,125.6-22.5,20.9-63.8,63.2-78.5,79.4-17.4,19.2-11.2,39.4-11.2,39.4,0,0,25.7-3.5,36.8,6.8"/>
  <path class="st0" d="M18.6,667.1c6.9,29.3,21,39.1,37.4,50.1,15.5,10.4,42.4,24.5,84,38,82.1,26.5,143.5,49.6,229.7,63.2,94.9,15,200,19.1,294.2-5.4,117.6-30.6,152.7-66.6,207.8-64,75,3.5,170.8,134.5,188.5,148.5"/>
  <path class="st0" d="M1078.6,472.1c8.3,7,22.2,25.8,28.2,50.9,6.4,26.8-1.6,63.6-22,104.9-7.8,15.8-38.2,53.8-38.2,53.8,0,0,30,45,41.2,85.3,20.7,74.3-6.2,107.5-27.6,130.5"/>
  <path class="st0" d="M405.6,422.7c19.4-20.1,63-52.9,70.8-58.1,36.9-24.9,107.5-55,134.7-48.7,12.4,2.9,8.5,12.4,16.3,19.7,13,12.1,38.8-3.4,52.5,12.6,10.7,12.5-4.9,30.8,4.9,40.3,7.6,7.4,22.4,9.4,29.4,17.6,10.7,12.4-21.2,35.9-9.5,52.8,7.7,11.1,46.8,5.9,55.3,17.1,8.4,11.1,2,22.3,4.4,23.1,14.6,4.8,24,1.7,30,1.2s6.9,2.6,7.1,6.4c.3,5.4,2.2,16.8,13.6,22.5,15.2,7.5-32.1,26.2-38.9,32.5"/>
  <path class="st0" d="M352.3,816.1c7.3,51.6,41.3,103.6,83.5,135.8,18.3,14,50.1,29.4,50.1,29.4,0,0-44.1-32.6-60.3-48.9-18.4-18.4-33.5-44.1-43.4-68.1-6.3-15.4-13.2-46-13.2-46"/>
  <path class="st0" d="M486,981.3c-4.1-8.1-6-16.2-4.5-22,1.2-4.9,12.5-2.3,13.6-7.1,1.2-5.3-7.3-10-5.8-15.2,2.4-8.6,12-11.4,12.9-16.6s-5.3-11.2-2.9-16.8c1.7-4.1,8.3-5.6,9.4-9.4,2.1-7.4-13.1-10.1-8.5-21.2,1.3-3.1,14.8-6.2,15-13.8s-18.5-10.4-23.6-28.6"/>
  <path class="st0" d="M664.7,812.9c13.4,19.6,37.6,43.9,56.2,58.6,16.8,13.3,66.5,47.5,90.8,40.6,28.1-8,4-26.4-5.5-43.1-1.8-3.2.5-5.4,3.1-5.9,3.8-.8,9.2.2,10.4-7.1s-4.6-5-3.4-15.6c.6-5,12.9-4.4,10.6-15.6-1.7-8.3-12.3-4.7-12.1-13.9.2-8.1,7.3-11.1,8.6-17.6,2.6-12.9-6.3-26.1-15.8-31.4"/>
  <path class="st0" d="M315.5,720.9c-3.4-3.9,17.4,16.6,27.5,24.1,12.1,9,22.2,19,36.9,22.6,7.8,1.9,66.4-27.5,72.4-41.3,3.6-8.2-73.4-32.3-108-38.1"/>
  <path class="st0" d="M207.2,599.7c57.2,6.9,53.3,87.5-.9,94.1"/>
  <path class="st0" d="M139.4,722.6c36-12.3,43.1-35.3,42.5-70.5"/>
  <path class="st0" d="M152.5,735.1c17-6,32.8-20.8,36.6-37.5"/>
  <path class="st0" d="M129.8,682.1c16-1.1,32.9-9.3,34.3-29.9"/>
  <path class="st1" d="M117.6,608.5c16.7,1.3,29.1,16.4,27.8,33.8-1.3,17.4-15.9,30.5-32.6,29.2-16.7-1.3-29.1-16.4-27.8-33.8,1.3-17.4,15.9-30.5,32.6-29.2Z"/>
  <path class="st4" d="M115.4,628.6c6.8.5,12,6.5,11.4,13.3-.5,6.8-6.5,12-13.3,11.4-6.8-.5-12-6.5-11.4-13.3.5-6.8,6.5-12,13.3-11.4Z"/>
  <path class="st2" d="M115.4,628.6c6.8.5,12,6.5,11.4,13.3-.5,6.8-6.5,12-13.3,11.4-6.8-.5-12-6.5-11.4-13.3.5-6.8,6.5-12,13.3-11.4Z"/>
  <path class="st0" d="M852.8,586.7c17.5,5.1,30.9,7.2,44,9.9,21.1,4.4-27.7,12.9-23.4,25.3,2.1,6.2,11.7,10.5,23.1,18.6,5.4,3.8-11.8,10.6-9.1,14.8,2.8,4.4,13.5,9.4,21.6,14.5,8.7,5.5-20.1,6.4-21.1,10.8-.8,3.8,11.5,19.2,9.3,20.4-2.1,1.2-18.5,6.3-17.1,11.7,2.5,10,24.9,28,22.6,28.2-4.1.3-50.1,4.6-64.7,11.4"/>
  <path class="st3" d="M494.9,952.6c-52.3-16.4-97.2-64.5-125.9-134.3"/>
  <path class="st3" d="M502.2,920.3c-34.4-8.6-54.6-23.2-64.2-29.6-13.5-9-50.3-38.3-69-72.4"/>
  <path class="st3" d="M508.7,893.6c-19.6-.1-46.4-16.1-60-22.8-29-14.4-46.8-25.2-79.6-52.4"/>
  <path class="st3" d="M515.1,859c-21.5,2.2-47.1-3.5-64.5-7.8-19-4.7-50.3-16.6-81.5-32.9"/>
  <path class="st3" d="M430.1,423.5c23-28.4,57.5-50.1,81.6-63.7,39.1-22.1,71.2-30.2,110.4-33"/>
  <path class="st3" d="M449.5,424.8c36.2-39.1,68.1-57.7,104.6-70.1,24.9-8.4,44.4-14.5,74.5-18.1"/>
  <path class="st3" d="M465.3,426.9c27.5-27.7,62.2-46.8,88.6-56.9,49.6-19,53.3-17.8,113.4-29"/>
  <path class="st3" d="M481.8,429.9c17.2-16.8,48.1-37.3,87.7-52.5,32.4-12.5,70.8-20.4,111.5-28.1"/>
  <path class="st3" d="M497.1,433.5c35.5-24.4,55.8-36.2,78.7-45,33.6-13,84.1-26.3,108.1-26.1"/>
  <path class="st3" d="M514.3,438.1c21.6-15.4,40.1-28.2,60.1-37.2,18.4-8.3,68-24.6,107.7-27.2"/>
  <path class="st3" d="M530.6,443.3c43.6-36.8,126.9-58.3,152.6-57"/>
  <path class="st3" d="M697.6,396c-31.4.4-56.9,7.2-82.1,15.6-25.3,8.4-44.2,18.3-71.3,36.5"/>
  <path class="st3" d="M715.6,408c-33.9-8.1-114.5,16.3-157.4,45"/>
  <path class="st3" d="M715.1,419c-51.3-7-109.8,20.9-141.9,40.2"/>
  <path class="st3" d="M710,429.3c-46.9-5.7-102.1,20.9-123.5,36.2"/>
  <path class="st3" d="M704.7,439.8c-42.2-.2-74.1,14.5-104.6,31.9"/>
  <path class="st3" d="M702.2,449.5c-23.1.4-41.5,5.5-51.8,9.4-7.4,2.8-23.2,9.7-35.3,20"/>
  <path class="st3" d="M704.6,459.2c-20.6,1.7-51.2,5.5-78.2,25.3"/>
  <path class="st3" d="M732,467.4c-29.5-2.3-73.2,8.9-95.2,22.4"/>
  <path class="st3" d="M757.7,473.7c-23.5-2.7-81.2,5.5-107.9,22.8"/>
  <path class="st3" d="M763.4,481.9c-35.3-6.2-83.4,10-102.1,20.8"/>
  <path class="st3" d="M764.6,490.1c-35.2-3.4-61.6,4.1-90.9,19"/>
  <path class="st3" d="M685.9,515.7c23.6-10.5,34.9-12.1,41.7-13.6,7.6-1.7,22.4-4.4,36.1-3.4"/>
  <path class="st3" d="M700.6,523.6c25.6-16.9,71.2-20.2,98.5-22"/>
  <path class="st3" d="M715.9,531.7c16.3-10.7,29.5-14.7,41.7-17.1,10.6-2.1,24.8-5.3,44.2-5.1"/>
  <path class="st3" d="M730,539.1c11.3-9.2,25.2-13.1,31.9-14.8,8.8-2.3,33-5.8,42.9-5.5"/>
  <path class="st3" d="M741.4,544.9c26.1-17.8,61.2-17.2,70.6-17.8"/>
  <path class="st3" d="M753,550.7c17.1-10.6,42.6-14.3,64.2-14.8"/>
  <path class="st3" d="M763.4,555.6c17.3-8.6,33.8-9.9,39.5-9.2"/>
  <path class="st3" d="M824.8,899c-35.2,14.8-124.5-49.8-145.8-90"/>
  <path class="st3" d="M819.8,889.5c-34.1,7.8-109.1-44.1-128.7-84"/>
  <path class="st3" d="M811,876.2c-14.1.9-37.5-8-56.6-21.6-15-10.7-40.7-33.1-52.8-52.2"/>
  <path class="st3" d="M811.4,862.8c-25.6-3.3-40-10.8-48.8-17.3-17.5-12.9-31.8-23.3-49.9-46.8"/>
  <path class="st3" d="M818.1,850.5c-37.5-3.4-59.2-17.1-90.8-56.2"/>
  <path class="st3" d="M822.7,835.1c-9,1.9-25.3,1.8-41.8-7.1-18.7-10.1-31.7-22.7-43.8-37.6"/>
  <path class="st3" d="M826.9,824.5c-14.3,1.7-29.7-2.1-39.2-7-15.8-8.2-24.8-14.8-38.9-30.7"/>
  <path class="st3" d="M814.9,811.5c-31.3-2.5-45.2-18.9-55.2-30.4"/>
  <path class="st3" d="M820.3,799.7c-11.8,1.3-37.9-6.5-44.6-24.6"/>
  <path class="st3" d="M824,789.6c-20.3-.5-28.2-6.3-36.1-18.7"/>
  <path class="st3" d="M1086.3,480c-20.1,30.3-57.3,56.2-72.4,67.8-14.2,10.9-71.6,43.6-112.1,51.1"/>
  <path class="st3" d="M1094.8,492.8c-20.9,32.8-75.3,66.5-101.7,81.2-26.4,14.7-69.5,28.6-113.4,38.3"/>
  <path class="st3" d="M1101.8,507.8c-21.3,26.4-80.8,66.8-110.9,82-17.8,9-59.9,26.2-117.9,30.5"/>
  <path class="st3" d="M1106.8,523c-21.9,25.5-64,52.2-94.2,67.5-38.8,19.7-77.6,37.1-135.2,36.8"/>
  <path class="st3" d="M1109,539.9c-26.7,29.1-69.8,54.6-105.7,71-33.4,15.3-69.8,23.5-113.4,24.6"/>
  <path class="st3" d="M1107.3,561.8c-24.1,20.9-56.1,45.1-86.4,58.2-29.7,12.9-60.5,22.7-123.4,22"/>
  <path class="st3" d="M1101.7,586.2c-32.2,29.8-58.7,40.6-79.8,48.9-23.8,9.3-52.3,15-98.5,15.1-9.6,0-25.1-.4-32.8-.6"/>
  <path class="st3" d="M1091.5,613.3c-49.4,33.1-122.5,50.8-203.7,42.6"/>
  <path class="st3" d="M888.2,679.9c36.5,5.5,82.9,18,108.6,28.7,34.4,14.3,42,19.2,91.4,60.2"/>
  <path class="st3" d="M906.1,674.5c63.8,6,104.4,10.2,155.6,32.6"/>
  <path class="st3" d="M895.5,677c27.3,3.8,56.2,8.7,93.4,17.6,31.6,7.6,64.7,23.2,90.6,49"/>
  <path class="st3" d="M892.3,690.6c95.4,17.6,186.4,94.4,202.6,133.8"/>
  <path class="st3" d="M888.9,684.5c73.9,17.1,142.3,37.5,204.8,110.7"/>
  <path class="st3" d="M895.8,696.4c53.5,15.3,152.8,62.8,195.9,148.7"/>
  <path class="st3" d="M892.5,702.9c106.4,33.8,168.5,101,192,160.7"/>
  <path class="st3" d="M883.2,707.6c23.5,5,56.5,23.1,66.8,29.5,57,35,100,82.5,124.8,143.1"/>
  <path class="st3" d="M880.9,714.9c36.6,13.3,59.2,28.9,77,42.7,52.5,40.7,81.1,75.6,105.9,136.2"/>
  <path class="st3" d="M889.1,726.2c2.7,1.3,39.8,24.2,53.1,33.6,35.8,25.5,73.4,67.6,98.1,116.4"/>
  <path class="st3" d="M1079.2,637.4c-29.2,18.6-71.6,23.6-87.8,25.4-36,4-62.9,2.6-93.6.3"/>
  <path class="st3" d="M1061.3,662.4c-10.4,5.9-41.8,9.4-61,10.1-32.1,1.2-51.9.4-92.1-3.3"/>
  <path class="st3" d="M1067.6,479.9c-7.8,17.7-31.2,39.9-69.9,64.7-31.4,20.2-62.6,35.1-109,50.4"/>
  <path class="st3" d="M1044.2,493.4c-31,31.9-57,44.8-77.7,56.6-8.9,5.1-83.9,41.3-94.4,41.7"/>
  <path class="st3" d="M896.9,741.4c-1.1-.7,20.5,10.9,37,23.7s42.4,36.5,56.7,57.6"/>
  <path class="st3" d="M208.7,619.6c8.9-.7,14.9.4,18,1,4.6.9,8.9,1.9,18.5,6.9"/>
  <path class="st3" d="M211.7,633.5c15.3-.7,25.2.2,36.4,5.2"/>
  <path class="st3" d="M212.7,656.8c12.3,2.1,28.5,1.5,35-1.6"/>
  <path class="st3" d="M206,669.8c12.6,3.3,27.8,2.8,37.2-1.7"/>
  <path class="st3" d="M327.7,717.3c12.8,12.3,32.9,27.5,36.9,30.2,12.5,8.6,11.7,7.7,30,15"/>
  <path class="st3" d="M340.6,715.3c19.7,16.7,47.2,33.6,72.9,39.3"/>
  <path class="st3" d="M355.6,713.2c24.7,15.3,51.2,30.1,77.1,30.3"/>
  <path class="st3" d="M370,707.1c24.4,14.4,56.1,24,77.9,24.5"/>
  <path class="st3" d="M301.6,452s11.7,1.9,11.2,10.4c-.5,8.5-10.3,12.1-10.3,12.3,0,0,10.9,4.5,10.7,13.8-.2,9.3-10.2,11.8-10.2,11.8,0,0,9.6,2,9.5,11.8,0,9.8-10.3,11.2-10.3,11.2"/>
  <path class="st3" d="M313.7,464.5s10.6,1.1,10.5,11.2c-.1,10.1-10.4,12.8-10.4,12.8,0,0,11.5,4.5,10.7,13.8-.8,9.3-10.2,11.8-10.2,11.8,0,0,9.6,2,9.5,11.8,0,9.8-10.3,11.2-10.3,11.2"/>
  <path class="st3" d="M312.8,586.6s10.1,4.5,9.6,13c-.5,8.5-9.5,10.8-9.5,11,0,2.4,10.9,4.5,10.7,13.8-.2,9.3-10.2,11.8-10.2,11.8,0,0,9.6,2,9.5,11.8,0,9.8-10.3,11.2-10.3,11.2"/>
  <path class="st3" d="M325.1,526.1s10.7,2.9,9.6,13c-1.1,10.1-11.1,10.8-11.1,10.8,0,0,13,2.7,12.3,13.9-.8,11.2-12,12-12,12,0,0,11.8,1.2,11.2,11.6-.5,10.5-10.3,11.2-10.3,11.2"/>
  <path class="st3" d="M290.6,585.8s10.1,4.5,9.6,13c-.5,8.5-9.5,10.8-9.5,11,0,2.4,10.9,4.5,10.7,13.8-.2,9.3-10.2,11.8-10.2,11.8,0,0,9.6,2,9.5,11.8,0,9.8-10.3,11.2-10.3,11.2"/>
  <path class="st3" d="M287.4,482.7s12.8-.5,13,10.1c.3,10.6-10.5,14.1-10.5,14.3,0,0,11.4,1.6,10.8,12.4-.5,10.8-10.3,13.2-10.3,13.2,0,0,9.6,2,9.5,11.8,0,9.8-10.3,11.2-10.3,11.2"/>
  <path class="st3" d="M325,601.2s10.1,4.5,9.6,13c-.5,8.5-9.5,10.8-9.5,11,0,2.4,10.9,4.5,10.7,13.8-.2,9.3-10.2,11.8-10.2,11.8,0,0,9.6,2,9.5,11.8,0,9.8-10.3,11.2-10.3,11.2"/>
  <path class="st3" d="M335.5,516s10.1,4.5,9.6,13c-.5,8.5-9.5,10.8-9.5,11,0,2.4,10.9,4.5,10.7,13.8-.2,9.3-10.2,11.8-10.2,11.8,0,0,9.6,2,9.5,11.8,0,9.8-10.3,11.2-10.3,11.2"/>
  <path class="st3" d="M345.7,462.9s10,1.5,9.4,12.4c-.6,10.9-9.9,11.4-9.9,11.4,0,0,11.5.6,10.5,11.9-1,11.3-9.5,9.2-9.5,9.2,0,0,11.3.8,11.2,10.5,0,9.8-11.5,9.8-11.5,9.8"/>
  <path class="st3" d="M347.6,529s10.1,4.5,9.6,13-9.5,10.8-9.5,11c0,2.4,10.9,4.5,10.7,13.8-.2,9.3-10.2,11.8-10.2,11.8,0,0,9.6,2,9.5,11.8,0,9.8-10.3,11.2-10.3,11.2"/>
  <path class="st3" d="M347.3,602.1s11.5,1.4,10.4,11.5c-1.1,10.1-11.8,11-11.8,11,0,0,12.2,2.8,12,12.1-.2,9.3-11.5,13.6-11.5,13.6,0,0,11.3,2.1,10.5,12.3-.7,10.2-11.5,9.7-11.5,9.7"/>
  <path class="st3" d="M354.6,428.3s14.5,1.2,14,9.7c-.5,8.5-13.8,10.9-13.8,10.9,0,0,16,2.9,15.8,12.2-.2,9.3-14.7,12.4-14.7,12.4,0,0,13.5,1.5,13.4,11.3,0,9.8-10.1,10.2-10.1,10.2"/>
  <path class="st3" d="M355.6,497.1s13.5,1.6,13,10.1c-.5,8.5-9.5,10.8-9.5,11,0,2.4,10.9,4.5,10.7,13.8-.2,9.3-10.2,11.8-10.2,11.8,0,0,9.6,2,9.5,11.8,0,9.8-10.3,11.2-10.3,11.2"/>
  <path class="st3" d="M359.7,567.3s10.1,4.5,9.6,13c-.5,8.5-9.5,10.8-9.5,11,0,2.4,10.9,4.5,10.7,13.8-.2,9.3-10.2,11.8-10.2,11.8,0,0,9.6,2,9.5,11.8,0,9.8-10.3,11.2-10.3,11.2"/>
  <path class="st3" d="M372.2,530.1s10.1,4.5,9.6,13c-.5,8.5-9.5,10.8-9.5,11,0,2.4,10.9,4.5,10.7,13.8-.2,9.3-10.2,11.8-10.2,11.8,0,0,9.6,2,9.5,11.8,0,9.8-10.3,11.2-10.3,11.2"/>
  <path class="st3" d="M371.1,605.5s10.1,4.5,9.6,13c-.5,8.5-9.5,10.8-9.5,11,0,2.4,10.9,4.5,10.7,13.8-.2,9.3-10.2,11.8-10.2,11.8,0,0,9.6,2,9.5,11.8,0,9.8-10.3,11.2-10.3,11.2"/>
  <path class="st3" d="M384.2,621.4s10.1,4.5,9.6,13c-.5,8.5-9.5,10.8-9.5,11,0,2.4,10.9,4.5,10.7,13.8-.2,9.3-10.2,11.8-10.2,11.8,0,0,9.6,2,9.5,11.8,0,9.8-10.3,11.2-10.3,11.2"/>
  <path class="st3" d="M383.5,470.5s10.1,4.5,9.6,13c-.5,8.5-9.5,10.8-9.5,11,0,2.4,10.9,4.5,10.7,13.8-.2,9.3-10.2,11.8-10.2,11.8,0,0,9.6,2,9.5,11.8,0,9.8-10.3,11.2-10.3,11.2"/>
  <path class="st3" d="M393.5,533s13.7,4.5,13.2,13c-.5,8.5-13.1,10.8-13.1,11,0,2.4,10.9,4.5,10.7,13.8-.2,9.3-10.2,11.8-10.2,11.8,0,0,9.6,2,9.5,11.8,0,9.8-10.3,11.2-10.3,11.2"/>
  <path class="st3" d="M397.1,460.3s10.1,4.5,9.6,13c-.5,8.5-9.5,10.8-9.5,11,0,2.4,10.9,4.5,10.7,13.8-.2,9.3-10.2,11.8-10.2,11.8,0,0,9.6,2,9.5,11.8,0,9.8-10.3,11.2-10.3,11.2"/>
  <path class="st3" d="M408.2,423.2c-.2,9.3-9.9,13.7-9.9,13.7,0,0,9.6,2,9.5,11.8,0,9.8-10.3,11.2-10.3,11.2"/>
  <path class="st3" d="M410.9,423s9.6,3.7,9.2,12.2c-.5,8.5-9.5,10.8-9.5,11,0,2.4,10.9,4.5,10.7,13.8-.2,9.3-10.2,11.8-10.2,11.8,0,0,9.6,2,9.5,11.8,0,9.8-10.3,11.2-10.3,11.2"/>
  <path class="st3" d="M421.3,460.5s10.1,4.5,9.6,13c-.5,8.5-9.5,10.8-9.5,11,0,2.4,10.9,4.5,10.7,13.8-.2,9.3-10.2,11.8-10.2,11.8,0,0,9.6,2,9.5,11.8,0,9.8-10.3,11.2-10.3,11.2"/>
  <path class="st3" d="M432,423.4s10.4,4,10,12.4c-.5,8.5-9.5,10.8-9.5,11,0,2.4,10.9,4.5,10.7,13.8-.2,9.3-10.2,11.8-10.2,11.8,0,0,9.6,2,9.5,11.8,0,9.8-10.3,11.2-10.3,11.2"/>
  <path class="st3" d="M429.5,547.4s10.1,4.5,9.6,13c-.5,8.5-9.5,10.8-9.5,11,0,2.4,10.9,4.5,10.7,13.8-.2,9.3-10.2,11.8-10.2,11.8,0,0,9.6,2,9.5,11.8,0,9.8-10.3,11.2-10.3,11.2"/>
  <path class="st3" d="M428.6,624.9s10.1,4.5,9.6,13c-.5,8.5-9.5,10.8-9.5,11,0,2.4,10.9,4.5,10.7,13.8-.2,9.3-10.2,11.8-10.2,11.8,0,0,9.6,2,9.5,11.8,0,9.8-10.3,11.2-10.3,11.2"/>
  <path class="st3" d="M440.9,636.5s10.1,4.5,9.6,13c-.5,8.5-9.5,10.8-9.5,11,0,2.4,10.9,4.5,10.7,13.8-.2,9.3-10.2,11.8-10.2,11.8,0,0,9.6,2,9.5,11.8,0,9.8-10.3,11.2-10.3,11.2"/>
  <path class="st3" d="M442.3,560.2s10.1,4.5,9.6,13c-.5,8.5-9.5,10.8-9.5,11,0,2.4,10.9,4.5,10.7,13.8s-10.2,11.8-10.2,11.8c0,0,9.6,2,9.5,11.8,0,9.8-10.3,11.2-10.3,11.2"/>
  <path class="st3" d="M442.9,487.1s10.1,4.5,9.6,13c-.5,8.5-9.5,10.8-9.5,11,0,2.4,10.9,4.5,10.7,13.8-.2,9.3-10.2,11.8-10.2,11.8,0,0,9.6,2,9.5,11.8,0,9.8-10.3,11.2-10.3,11.2"/>
  <path class="st3" d="M455.1,425.5c-.5,8.5-9.4,9.1-9.4,9.1,0,0,10.9,4.5,10.7,13.8-.2,9.3-10.2,11.8-10.2,11.8,0,0,9.6,2,9.5,11.8,0,9.8-10.3,11.2-10.3,11.2"/>
  <path class="st3" d="M456.2,448.8s10.1,4.5,9.6,13c-.5,8.5-9.5,10.8-9.5,11,0,2.4,10.9,4.5,10.7,13.8-.2,9.3-10.2,11.8-10.2,11.8,0,0,9.6,2,9.5,11.8,0,9.8-10.3,11.2-10.3,11.2"/>
  <path class="st3" d="M479.6,474.3s10.1,4.5,9.6,13c-.5,8.5-9.5,10.8-9.5,11,0,2.4,10.9,4.5,10.7,13.8-.2,9.3-10.2,11.8-10.2,11.8,0,0,9.6,2,9.5,11.8,0,9.8-10.3,11.2-10.3,11.2"/>
  <path class="st3" d="M479.5,547.7s10.1,4.5,9.6,13c-.5,8.5-9.5,10.8-9.5,11,0,2.4,10.9,4.5,10.7,13.8-.2,9.3-10.2,11.8-10.2,11.8,0,0,9.6,2,9.5,11.8,0,9.8-10.3,11.2-10.3,11.2"/>
  <path class="st3" d="M477.7,624s10.1,4.5,9.6,13c-.5,8.5-9.5,10.8-9.5,11,0,2.4,10.9,4.5,10.7,13.8-.2,9.3-10.2,11.8-10.2,11.8,0,0,9.6,2,9.5,11.8,0,9.8-10.3,11.2-10.3,11.2"/>
  <path class="st3" d="M474.9,701.5s10.1,4.5,9.6,13c-.5,8.5-9.5,10.8-9.5,11,0,2.4,10.9,4.5,10.7,13.8-.2,9.3-10.2,11.8-10.2,11.8,0,0,9.6,2,9.5,11.8,0,9.8-10.3,11.2-10.3,11.2"/>
  <path class="st3" d="M487.7,740.5s10.1,4.5,9.6,13c-.5,8.5-9.5,10.8-9.5,11,0,2.4,10.9,4.5,10.7,13.8-.2,9.3-10.2,11.8-10.2,11.8,0,0,9.6,2,9.5,11.8,0,9.8-10.3,11.2-10.3,11.2"/>
  <path class="st3" d="M489.1,664.2s8.7,4.2,8.3,12.7c-.5,8.5-9.5,10.8-9.5,11,0,2.4,10.9,4.5,10.7,13.8-.2,9.3-10.2,11.8-10.2,11.8,0,0,9.6,2,9.5,11.8,0,9.8-10.3,11.2-10.3,11.2"/>
  <path class="st3" d="M499.5,702.1s13.3.4,12.7,10.9c-.6,10.6-12.6,12.9-12.6,13.1,0,2.4,10.9,4.5,10.7,13.8-.2,9.3-10.2,11.8-10.2,11.8,0,0,9.6,2,9.5,11.8,0,9.8-10.3,11.2-10.3,11.2"/>
  <path class="st3" d="M492.1,586.8s10.1,4.5,9.6,13c-.5,8.5-9.5,10.8-9.5,11,0,2.4,10.9,4.5,10.7,13.8-.2,9.3-14,11.3-14,11.3,0,0,13.4,2.6,13.3,12.3,0,9.8-10.3,11.2-10.3,11.2"/>
  <path class="st3" d="M504.4,528.3s11.1.4,11.6,11.7c.4,11.3-11.5,12.1-11.5,12.3,0,2.4,10.9,4.5,10.7,13.8-.2,9.3-10.2,11.8-10.2,11.8,0,0,9.6,2,9.5,11.8,0,9.8-10.3,11.2-10.3,11.2"/>
  <path class="st3" d="M491.2,489.5s10.1,4.5,9.6,13c-.5,8.5-9.5,10.8-9.5,11,0,2.4,10.9,4.5,10.7,13.8-.2,9.3-10.2,11.8-10.2,11.8,0,0,9.6,2,9.5,11.8,0,9.8-10.3,11.2-10.3,11.2"/>
  <path class="st3" d="M504.1,435.3s10.3,1.1,9.7,8.6-9.5,10.8-9.5,11c0,2.4,10.9,4.5,10.7,13.8-.2,9.3-10.2,11.8-10.2,11.8,0,0,9.6,2,9.5,11.8,0,9.8-10.3,11.2-10.3,11.2"/>
  <path class="st3" d="M516.6,468s11,4.6,10.5,13.1c-.5,8.5-10.4,10.9-10.4,10.9,0,0,10.4,3.6,10.3,13-.2,9.3-10.2,11.8-10.2,11.8,0,0,10,2.9,9.9,12.6,0,9.8-10.3,11.2-10.3,11.2"/>
  <path class="st3" d="M518,541.8s10.1,4.5,9.6,13c-.5,8.5-9.5,10.8-9.5,11,0,2.4,10.9,4.5,10.7,13.8-.2,9.3-10.2,11.8-10.2,11.8,0,0,9.6,2,9.5,11.8,0,9.8-10.3,11.2-10.3,11.2"/>
  <path class="st3" d="M540.4,692.2s9.5,2.5,9,11.6c-.6,9.2-10.9,11.6-10.9,11.6,0,0,10.8,3.6,10.7,12.9-.2,9.3-9.4,11.1-9.4,11.1,0,0,10.4,4.4,9.3,13.7-1.1,9.3-14.6,10.9-14.6,10.9"/>
  <path class="st3" d="M549.7,752.6s10,1.9,9.8,10.6c-.2,8.7-10.6,8.9-10.6,8.9,0,0,9.6,2.6,9.1,10.8-.5,8.3-10.3,8.5-10.3,8.5,0,0,9.7,3.5,9,11.7-.7,8.2-10.5,7.8-10.5,7.8"/>
  <path class="st3" d="M554,607.8s10.1,4.5,9.6,13c-.5,8.5-9.5,10.8-9.5,11,0,2.4,10.9,4.5,10.7,13.8-.2,9.3-10.2,11.8-10.2,11.8,0,0,9.6,2,9.5,11.8,0,9.8-10.3,11.2-10.3,11.2"/>
  <path class="st3" d="M579.9,462.9c-.5,8.5-12.1,9.8-12.1,9.8,0,0,12.3,3.6,12.1,12.9-.2,9.3-9,13.9-9,13.9,0,0,7.8,3.2,7.7,13,0,9.8-13.7,12.3-13.7,12.3"/>
  <path class="st3" d="M563.5,525.6s13.8.9,13.3,12.6c-.5,11.8-13.2,11.1-13.2,11.3,0,2.4,10.9,4.5,10.7,13.8-.2,9.3-10.2,11.8-10.2,11.8,0,0,9.6,2,9.5,11.8,0,9.8-10.3,11.2-10.3,11.2"/>
  <path class="st3" d="M566.7,598.1s10.1,4.5,9.6,13c-.5,8.5-9.5,10.8-9.5,11,0,2.4,10.9,4.5,10.7,13.8-.2,9.3-10.2,11.8-10.2,11.8,0,0,9.6,2,9.5,11.8,0,9.8-10.3,11.2-10.3,11.2"/>
  <path class="st3" d="M565.4,672.2s10.1,4.5,9.6,13c-.5,8.5-9.1,11.7-9.1,11.7,0,0,10.5,3.7,10.3,13-.2,9.3-10.2,11.8-10.2,11.8,0,0,9.7,2.3,9.8,10.9.1,8.6-10.4,10.8-10.4,10.8"/>
  <path class="st3" d="M579.1,732.5s10.1,4.5,9.6,13c-.5,8.5-9.5,11-9.5,11,0,0,10.9,4.5,10.7,13.8-.2,9.3-10.2,11.8-10.2,11.8,0,0,9.6,2,9.5,11.8,0,9.8-10.3,11.2-10.3,11.2"/>
  <path class="st3" d="M576.7,659.4s10.1,4.5,9.6,13c-.5,8.5-9.5,10.8-9.5,11,0,2.4,10.9,4.5,10.7,13.8-.2,9.3-10.2,11.8-10.2,11.8,0,0,9.6,2,9.5,11.8,0,9.8-10.3,11.2-10.3,11.2"/>
  <path class="st3" d="M589.8,697.4s10.1,4.5,9.6,13c-.5,8.5-11.4,11.3-11.4,11.3,0,0,12.7,4.2,12.6,13.5-.2,9.3-10.2,11.8-10.2,11.8,0,0,9.6,2,9.5,11.8,0,9.8-9.2,11.1-9.2,11.1"/>
  <path class="st3" d="M602.1,733.3s12.5,1.2,13.1,11.3c.6,10.1-13,12.7-13,12.7,0,0,12.5,2.2,12.6,12.8,0,10.6-11.5,11.2-11.5,11.2,0,0,12.6,1.6,11.7,12.3-.9,10.6-13.1,12.3-13.1,12.3"/>
  <path class="st3" d="M575.7,562.2s11.2.2,10.7,11.1c-.5,10.9-11.4,13.1-11.4,13.1,0,0,12.7,2.6,12.5,11.9-.2,9.3-10.6,13.5-10.6,13.5,0,0,11.9,1.5,11.8,11.3,0,9.8-10.9,11.2-10.9,11.2"/>
  <path class="st3" d="M528.3,483.3s13.7,3.2,11.9,12.9c-1.8,9.7-11.8,10.9-11.8,11.1,0,2.4,10.9,4.5,10.7,13.8-.2,9.3-10.2,11.8-10.2,11.8,0,0,9.6,2,9.5,11.8,0,9.8-10.3,11.2-10.3,11.2"/>
  <path class="st3" d="M541.4,447.1c-.2,9.3-9.7,11.5-9.7,11.5,0,0,9.6,2,9.5,11.8,0,9.8-10.3,11.2-10.3,11.2"/>
  <path class="st3" d="M514.1,663.7s10.1,4.5,9.6,13c-.5,8.5-11,12.5-11,12.5,0,0,12.4,2.9,12.2,12.2-.2,9.3-10.2,11.8-10.2,11.8,0,0,9.6,2,9.5,11.8,0,9.8-10.3,11.2-10.3,11.2"/>
  <path class="st3" d="M512.6,737.4s10.1,4.5,9.6,13c-.5,8.5-9.5,10.8-9.5,11,0,2.4,10.9,4.5,10.7,13.8-.2,9.3-10.2,11.8-10.2,11.8,0,0,9.6,2,9.5,11.8,0,9.8-10.3,11.2-10.3,11.2"/>
  <path class="st3" d="M525.2,701.1s13.1,3.4,12.2,13.6c-.8,10.1-12.3,12.4-12.3,12.4,0,0,11.4,1.9,11.3,11.2-.2,9.3-12.3,13.3-12.3,13.3,0,0,10.5,2.4,10.4,12.2,0,9.8-10.8,13.5-10.8,13.5"/>
  <path class="st3" d="M529.2,604.7s11.3,1.4,10.2,12.8c-1.1,11.3-11.9,11.6-11.9,11.6,0,0,10.9,4.5,10.7,13.8-.2,9.3-10.2,11.8-10.2,11.8,0,0,11.4.2,9.5,11.8-1.9,11.6-13.2,10.7-13.2,10.7"/>
  <path class="st3" d="M544.2,448.1s10.5,5.6,10,14.1c-.5,8.5-12.1,11.4-12.1,11.6,0,0,12.2,1.4,11.5,11-.6,9.6-11,11.8-11,11.8,0,0,11.6,5.6,11.5,15.3,0,9.8-11.3,13.1-11.3,13.1"/>
  <path class="st3" d="M538.9,523.7s10.1,4.5,9.6,13c-.5,8.5-9.5,10.8-9.5,11,0,2.4,10.9,4.5,10.7,13.8-.2,9.3-10.2,11.8-10.2,11.8,0,0,9.6,2,9.5,11.8,0,9.8-10.3,11.2-10.3,11.2"/>
  <path class="st3" d="M538.9,596.5s13,2.8,12.2,12.4c-.7,9.6-11.5,9.4-11.5,9.4,0,0,12.3,2.1,11.9,13.5-.4,11.4-12.7,11.9-12.7,11.9,0,0,13.1,3,12.1,14.4-1,11.4-11.9,10.8-11.9,10.8"/>
  <path class="st3" d="M555.7,452.5s10.9,5.2,11.2,16.5c.3,11.3-12.2,16.1-12.2,16.1,0,0,12.5,4,12.4,13.3-.2,9.3-12.7,16-12.7,16,0,0,9.4,2.4,9.2,12.9-.2,10.5-14,12.6-14,12.6"/>
  <path class="st3" d="M548.4,541.3s11.7,1.3,11.2,9.8c-.5,8.5-9.3,12.1-9.3,12.3,0,2.4,11,.7,10.7,10.5-.3,9.7-11.4,10.1-11.4,10.1,0,0,12.6,1.9,12.5,11.7,0,9.8-10.1,13.6-10.1,13.6"/>
  <path class="st3" d="M589.9,626.1s11.7,1.3,11.2,9.8c-.5,8.5-12.3,10.8-12.3,10.8,0,0,11.5,2.4,11.9,11.1.4,8.7-13.2,13.4-13.2,13.4,0,0,14.6,2.3,14.2,13.4-.5,11.1-12.7,13.1-12.7,13.1"/>
  <path class="st3" d="M588.8,555.1s11.7,1.3,11.2,9.8c-.5,8.5-12.5,9.7-12.5,9.7,0,0,14.6,1.5,14.3,11.3-.3,9.7-11.8,11.9-11.8,11.9,0,0,12.6,1.9,12.5,11.7,0,9.8-10.1,13.6-10.1,13.6"/>
  <path class="st3" d="M601,659.9s14.4,2.1,14.1,12.7c-.2,10.6-13,12-13,12,0,0,12,5,11.7,14.7-.3,9.7-13,10.5-13,10.5,0,0,12,2.7,11.9,12.4,0,9.8-11,11.6-11,11.6"/>
  <path class="st3" d="M602.6,586s12.9-.8,13.3,10.2c.4,11.1-13,14.7-13,14.7,0,0,12.5,3.2,12,13.7-.5,10.4-12.7,11.3-12.7,11.3,0,0,15,3.4,14.9,13.2,0,9.8-13.3,10.7-13.3,10.7"/>
  <path class="st3" d="M602.3,519.9s11.7,1.3,11.2,9.8c-.5,8.5-10,9.7-10,9.7,0,0,11.6,3.4,11.3,13.1-.3,9.7-14.3,11.3-14.3,11.3,0,0,15.3.9,14.3,11.2-1,10.3-11.6,11-11.6,11"/>
  <path class="st3" d="M603.5,473.3c0,2.4,10.5,3.2,10.2,12.9-.3,9.7-10.6,10.7-10.6,10.7,0,0,12.1,2.7,11,12.7-1.1,9.9-11.9,9.6-11.9,9.6"/>
  <path class="st3" d="M502.4,600.8s14.2,3.1,14,13.8c-.1,10.6-11.7,11.4-11.7,11.4,0,0,10.6,2.8,9.9,13.1-.7,10.3-11.8,12.3-11.8,12.3,0,0,10.4,3,10.3,12.8,0,9.8-8.8,12.2-8.8,12.2"/>
  <path class="st3" d="M455.3,548s10.1,4.5,9.6,13c-.5,8.5-9.5,10.8-9.5,11,0,2.4,10.9,4.5,10.7,13.8-.2,9.3-10.2,11.8-10.2,11.8,0,0,9.6,2,9.5,11.8,0,9.8-10.3,11.2-10.3,11.2"/>
  <path class="st3" d="M452.5,650.9s10.1,4.5,9.6,13c-.5,8.5-9.5,10.8-9.5,11,0,2.4,10.9,4.5,10.7,13.8-.2,9.3-10.2,11.8-10.2,11.8,0,0,9.6,2,9.5,11.8,0,9.8-10.3,11.2-10.3,11.2"/>
  <path class="st3" d="M466.1,689.5s9.8,5.1,8.8,13.6c-1,8.4-10.2,10.2-10.2,10.4,0,2.4,10.6,5.1,9.9,14.4-.7,9.3-10.9,11.2-10.9,11.2,0,0,9.4,2.6,8.7,12.3-.7,9.7-10.9,10.6-10.9,10.6"/>
  <path class="st3" d="M453.4,726.6s9.8,5.1,8.8,13.6c-1,8.4-11.6,10.8-11.6,10.8,0,0,11,4,10.3,13.3-.7,9.3-12.4,12.8-12.4,12.8,0,0,11.9,3.9,11.2,13.6-.7,9.7-12.9,11.3-12.9,11.3"/>
  <path class="st3" d="M466.9,611.1s11.5,4.7,10.5,13.2c-1,8.4-11.9,11.1-11.9,11.1,0,0,11.6,3.8,10.8,13.1-.7,9.3-13.3,13-13.3,13,0,0,12,5.3,11.3,15.1-.7,9.7-10.9,10.6-10.9,10.6"/>
  <path class="st3" d="M466.4,532.3s11.7,6.1,10.7,14.6c-1,8.4-11.3,13.4-11.3,13.4,0,0,13.8,4.5,13,13.8-.7,9.3-11.2,12-11.2,12,0,0,10.5,2.7,9.8,12.4-.7,9.7-10.4,11.5-10.4,11.5"/>
  <path class="st3" d="M479,429.4c0,8.5-13,9.9-13,9.9,0,0,12.7,1.5,13,10.8.3,9.3-9.6,12.3-9.6,12.3,0,0,9.6,1.6,10,11.3.4,9.8-9.7,11.7-9.7,11.7"/>
  <path class="st3" d="M408.7,496.5s10.1,4.5,9.6,13c-.5,8.5-9.5,10.8-9.5,11,0,2.4,10.9,4.5,10.7,13.8-.2,9.3-10.2,11.8-10.2,11.8,0,0,9.6,2,9.5,11.8,0,9.8-10.3,11.2-10.3,11.2"/>
  <path class="st3" d="M406.8,571.1s10.1,4.5,9.6,13c-.5,8.5-9.5,10.8-9.5,11,0,2.4,10.9,4.5,10.7,13.8-.2,9.3-10.2,11.8-10.2,11.8,0,0,9.6,2,9.5,11.8,0,9.8-10.3,11.2-10.3,11.2"/>
  <path class="st3" d="M395.5,616.5s11.4.4,10.9,8.9c-.5,8.5-9.5,10.8-9.5,11,0,2.4,10.9,4.5,10.7,13.8-.2,9.3-10.2,11.8-10.2,11.8,0,0,9.6,2,9.5,11.8,0,9.8-10.3,11.2-10.3,11.2"/>
  <path class="st3" d="M417.4,633s10.1,4.5,9.6,13c-.5,8.5-9.5,11-9.5,11,0,0,10.9,4.5,10.7,13.8-.2,9.3-11.3,12.3-11.3,12.3,0,0,10.7,1.6,10.6,11.3,0,9.8-10.3,11.2-10.3,11.2"/>
  <path class="st3" d="M420.2,560.8s7.8,2.2,7.3,10.7c-.5,8.5-11,11.9-11,11.9,0,0,11.8,3.5,11.6,12.8-.2,9.3-10.3,13.7-10.3,13.7,0,0,10.3,2.6,10.2,12.4,0,9.8-8.1,11.1-8.1,11.1"/>
  <path class="st3" d="M616.5,508.4s10.9,3.5,9.9,11.9c-1.1,8.4-9.3,8-9.3,8,0,0,11.1,4.3,10.4,13.6-.7,9.3-11.5,11.9-11.5,11.9,0,0,13.1,3.9,12.4,13.6-.7,9.7-10.9,10.1-10.9,10.1"/>
  <path class="st3" d="M616,577.5s12.6.2,13,10.8c.4,10.5-11.4,13.2-11.4,13.2,0,0,11.6,4,11.1,13.3-.6,9.3-13.1,9.7-13.1,9.7,0,0,12.4,6.7,11.9,16.4-.5,9.7-8.5,10.8-8.5,10.8"/>
  <path class="st3" d="M629.1,542s12.9,1.2,12.5,12.2c-.4,11-11.9,10.9-11.9,10.9,0,0,14.1,4.5,13.5,13.8-.6,9.3-13.1,12.9-13.1,12.9,0,0,12.4,3.5,11.8,13.3-.5,9.8-10.2,10.4-10.2,10.4"/>
  <path class="st3" d="M646.9,506.2s7.2,2.1,6.7,10.6c-.5,8.5-10.3,12-10.3,12,0,0,11,3.4,10.7,12.7-.2,9.3-9.9,12-9.9,12,0,0,9.8,4.3,9.7,14.1-.1,9.8-7.5,11.1-7.5,11.1"/>
  <path class="st3" d="M617.8,650.5s10.2,4.1,9.7,14c-.5,10-10.5,10.6-10.5,10.6,0,0,11.6,4.2,10.8,13.5-.8,9.3-11.2,13.1-11.2,13.1,0,0,10.6,1.4,9.8,11.1-.7,9.7-12.9,10-12.9,10"/>
  <path class="st3" d="M646.9,579.1s7.6,2.6,6.7,11.1c-1,8.4-11.7,11.3-11.7,11.3,0,0,11.6,4.1,10.9,13.4-.7,9.3-11.1,13.1-11.1,13.1,0,0,10.2,3.2,9.5,13-.7,9.7-8.7,10.6-8.7,10.6"/>
  <path class="st3" d="M642.3,651.4s10.2,3.7,9.2,12.1c-1,8.4-11.7,11.3-11.7,11.3,0,0,11.6,4.1,10.9,13.4-.7,9.3-10,11.5-10,11.5,0,0,12.1,1.1,12.5,12.2.4,11.1-11.1,12.9-11.1,12.9"/>
  <path class="st3" d="M761.2,575.4s14.8-.6,13.4,11.3c-1.3,12-12.9,12.6-12.9,12.6,0,0,14.3-.3,14.3,12.6,0,12.9-14.2,12.1-14.2,12.1,0,0,14.3,2.4,12.9,13.9-1.4,11.5-14.8,9.8-14.8,9.8"/>
  <path class="st3" d="M758.8,647.5s13.8,1.5,13,13c-.7,11.5-13.7,13.1-13.7,13.1,0,0,12.9,2.4,13.1,13.3.2,11-12.2,11.7-12.2,11.7,0,0,13.9,4.8,12.8,15.8-1.1,11-12.6,11.4-12.6,11.4"/>
  <path class="st3" d="M778.8,562.8s13.9,3.6,12.7,13.2c-1.3,11.2-15.2,10.2-15.2,10.2,0,0,14.1,1.1,13.4,13.6-.8,12.6-13.7,12.1-13.7,12.1,0,0,14.2,3.7,13.1,15.3-1.1,11.5-12.6,10.6-12.6,10.6"/>
  <path class="st3" d="M772.2,687.4s13.3.4,13.4,12.2c0,11.8-12.8,11.7-12.8,11.7,0,0,13.5,2.1,13.1,13-.4,10.9-12.1,13.1-12.1,13.1,0,0,15.3.5,13.9,12-1.4,11.5-16.3,8.9-16.3,8.9"/>
  <path class="st3" d="M790.7,628.5s10.9.6,9.7,12.4c-.9,9.2-11.3,8.8-11.3,8.8,0,0,13.3,3.6,12.3,14.8-1,11.2-12.6,11.5-12.6,11.5,0,0,11.5,2.4,10.4,13.1-1.1,10.7-12.4,10.1-12.4,10.1"/>
  <path class="st3" d="M804.6,593s13.5.3,12.6,12.4-15.1,10.5-15.1,10.5c0,0,13.9,2.9,13,14.5s-14.7,10.5-14.7,10.5c0,0,13.8,2.9,13,13.9-.9,11-12,9.7-12,9.7"/>
  <path class="st3" d="M627.3,714.6s13.9,1.2,13.9,11.6c0,10.4-12.8,11.2-12.8,11.2,0,0,13.9,3.5,13.1,12.8-.7,9.3-12.3,10.8-12.3,10.8,0,0,12.4,6.8,11.8,15.4-.6,8.6-13.2,11.7-13.2,11.7"/>
  <path class="st3" d="M642.1,725.4s11.3.7,10.8,10.7c-.5,10-11.1,12.4-11.1,12.4,0,0,11.6,4.1,10.9,13.4-.7,9.3-11.1,13.1-11.1,13.1,0,0,10.2,3.2,9.5,13-.7,9.7-8.7,10.6-8.7,10.6"/>
  <path class="st3" d="M653.5,514.3s15.3,6.1,14.4,14.5c-1,8.4-12.7,11-12.7,11,0,0,12.9,1.7,12.6,13.3-.3,11.6-12.6,12.8-12.6,12.8,0,0,12.5,4.3,11.8,14-.7,9.7-12.2,10.4-12.2,10.4"/>
  <path class="st3" d="M653.5,590.2s12.9,5.6,11.9,14.1c-1,8.4-11.7,11.3-11.7,11.3,0,0,11.6,4.1,10.9,13.4-.7,9.3-12.8,9.7-12.8,9.7,0,0,13.4,3.9,12.7,13.6-.7,9.7-11.3,10.9-11.3,10.9"/>
  <path class="st3" d="M652.8,686.2s12.9,2.5,12.9,13.4c0,11-12.3,12.1-12.3,12.1,0,0,12.6,2.3,12.7,12.4,0,10.1-12.4,12.6-12.4,12.6,0,0,12.9,3.2,13.1,14.2.2,11-13,12.5-13,12.5"/>
  <path class="st3" d="M678.5,714.5s12.8,2,11.9,12.4c-.9,10.4-12.5,9.4-12.5,9.4,0,0,14.3,3.7,13.6,14.6-.8,10.8-13.5,11.1-13.5,11.1,0,0,12.9.6,12.7,11.7-.2,11-14.1,11.8-14.1,11.8"/>
  <path class="st3" d="M665.7,629.7s14.3,3,13.4,13.4c-.9,10.4-11.7,11.3-11.7,11.3,0,0,11.6,4.1,10.9,13.4-.7,9.3-11.2,9.7-11.2,9.7,0,0,10.4,3.9,9.8,13.6-.7,9.7-11.2,10.4-11.2,10.4"/>
  <path class="st3" d="M667.5,556.6s14.3,3,13.4,13.4c-.9,10.4-11.7,11.3-11.7,11.3,0,0,11.6,4.1,10.9,13.4-.7,9.3-11.2,9.7-11.2,9.7,0,0,10.4,3.9,9.8,13.6-.7,9.7-11.2,10.4-11.2,10.4"/>
  <path class="st3" d="M685.9,515.7s13.9,6,13,16.4c-.9,10.4-14.6,8.9-14.6,8.9,0,0,12.1,5.7,11.4,15-.7,9.3-12.3,12.7-12.3,12.7,0,0,10.4,3.9,9.8,13.6-.7,9.7-11.2,10.4-11.2,10.4"/>
  <path class="st3" d="M681.3,595.4s14.3,3,13.4,13.4c-.9,10.4-11.7,11.3-11.7,11.3,0,0,11.6,4.1,10.9,13.4-.7,9.3-11.2,9.7-11.2,9.7,0,0,10.4,3.9,9.8,13.6-.7,9.7-11.2,10.4-11.2,10.4"/>
  <path class="st3" d="M694.5,681.1s11.6,1.9,10.6,12.3c-.9,10.4-12.4,9.6-12.4,9.6,0,0,12,2,11.9,12-.1,10-13.4,10.8-13.4,10.8,0,0,13.4,5.4,12.8,15.1-.7,9.7-11.2,10.4-11.2,10.4"/>
  <path class="st3" d="M694.7,608.5s14.3,3,13.4,13.4c-.9,10.4-11.7,11.3-11.7,11.3,0,0,11.6,4.1,10.9,13.4-.7,9.3-11.2,9.7-11.2,9.7,0,0,11.9,2.1,10.7,13.7-1.2,11.6-13.1,10.9-13.1,10.9"/>
  <path class="st3" d="M705.1,717s11.3,2.4,10.8,12.8c-.5,10.4-10.6,11-10.6,11,0,0,9.8,3,9.7,12.5-.1,9.5-12.7,10.9-12.7,10.9,0,0,12.5,2,11.8,12.5-.7,10.5-12.3,10.3-12.3,10.3"/>
  <path class="st3" d="M708.7,647.2s11.9,2.5,11.2,12.3c-.8,9.8-12.1,9.9-12.1,9.9,0,0,11.1,3.6,10.5,13.3-.6,9.7-12,10-12,10,0,0,11.9,2.5,11,12.8-.9,10.3-12.2,10.6-12.2,10.6"/>
  <path class="st3" d="M708.5,572.4s11.9,1.3,11.4,12.6c-.5,11.3-13.9,10.9-13.9,10.9,0,0,14.6,2.4,13.9,14-.8,11.6-11.5,11.2-11.5,11.2,0,0,11.1,3.2,10.8,13.7-.3,10.5-10,10.6-10,10.6"/>
  <path class="st3" d="M721.1,534.4s11.5,4.1,11.1,12.8-13.9,10.9-13.9,10.9c0,0,14.6,2.4,13.9,14s-11.5,11.2-11.5,11.2c0,0,11.1,3.2,10.8,13.7-.3,10.5-10,10.6-10,10.6"/>
  <path class="st3" d="M735.4,572.3s11.9,1.3,11.4,12.6c-.5,11.3-13.9,10.9-13.9,10.9,0,0,14.6,2.4,13.9,14-.8,11.6-11.5,11.2-11.5,11.2,0,0,11.1,3.2,10.8,13.7-.3,10.5-10,10.6-10,10.6"/>
  <path class="st3" d="M719.3,707.7s11.9,1.3,11.4,12.6c-.5,11.3-13.9,10.9-13.9,10.9,0,0,14.6,2.4,13.9,14-.8,11.6-11.5,11.2-11.5,11.2,0,0,11.1,3.2,10.8,13.7-.3,10.5-10,10.6-10,10.6"/>
  <path class="st3" d="M732.4,673.3s11.9,1.3,11.4,12.6c-.5,11.3-13.9,10.9-13.9,10.9,0,0,14.6,2.4,13.9,14-.8,11.6-11.5,11.2-11.5,11.2,0,0,11.1,3.2,10.8,13.7-.3,10.5-10,10.6-10,10.6"/>
  <path class="st3" d="M745.2,686.7s14,2,13.6,13.3c-.5,11.3-14,12-14,12,0,0,14.1,2,13.3,13.6-.8,11.6-13.6,10.5-13.6,10.5,0,0,12.2,3,11.3,14.3-.9,11.3-12.9,11.8-12.9,11.8"/>
  <path class="st3" d="M749.9,610.4s11.9,1.3,11.4,12.6c-.5,11.3-13.9,10.9-13.9,10.9,0,0,12.3,1,11.6,14.3-.7,13.4-14.9,12.4-14.9,12.4,0,0,14.5,2.8,13.2,15-1.3,12.1-12.5,10.4-12.5,10.4"/>
  <path class="st3" d="M760.1,554.1c0,8.4-12.6,6.6-12.6,6.6,0,0,13.8,3,13,14.2-.8,11.1-13.4,10.8-13.4,10.8,0,0,13.2,1.4,12.9,11.9-.3,10.5-12.3,11.8-12.3,11.8"/>
  <path class="st3" d="M699.9,534.1s12.4,3.6,11.2,14c-1.2,10.4-15.7,9.8-15.7,9.8,0,0,13.4,6,12.4,15.3-1,9.3-13.8,10.4-13.8,10.4,0,0,11.7,1.7,11,12.9-.7,11.1-9.9,10.2-9.9,10.2"/>
  <path class="st3" d="M612.8,722.3s15.2,2.5,14.6,13.1c-.6,10.6-10.8,11.5-10.8,11.5,0,0,10.3,4.9,10.3,13.2,0,8.3-11.2,11.1-11.2,11.1,0,0,11,5,11,13.8,0,8.7-11.3,10.2-11.3,10.2"/>
  <path class="st3" d="M322.1,434.9s12.8-1.6,12.3,6.2c-.5,8.5-8.9,11.4-8.9,11.4,0,0,11.1,3.9,11.5,13.2.3,9.3-9.6,12.4-9.6,12.4,0,0,9.6,1.5,10.1,11.3.4,9.7-9.7,11.7-9.7,11.7"/>
  <path class="st3" d="M301.4,522.8s10.1,4.5,9.6,13c-.5,8.5-9.5,10.8-9.5,11,0,2.4,10.9,4.5,10.7,13.8-.2,9.3-10.2,11.8-10.2,11.8,0,0,9.6,2,9.5,11.8,0,9.8-10.3,11.2-10.3,11.2"/>
  <path class="st3" d="M278.1,487.4s11.1-.5,10.9-12.2c0-7.5-11.5-8.2-11.5-8.2,0,0,11,0,10.4-10.2-.4-5.7-9.4-7.7-9.4-7.7"/>
  <path class="st0" d="M220.8,760.6c11.1.8,25-3.2,35.1-9.8,12.4-8.1,13.5-34.4,25.5-36.7,31.5-6.2,42.8-16.7,44-33"/>
  <path class="st3" d="M576,562.4c5-1.2,12.5-2.8,14-12.6,1.5-9.9-13.1-12-13.1-12,0,0,15.3-1.8,15.7-13.2.4-11.3-13.2-11.4-13.2-11.4,0,0,14.2-4.3,14.8-14.3.5-10-13.4-13.1-13.4-13.1,0,0,15.6-8.2,15.3-16.2"/>
  <path class="st3" d="M628.3,666.2c13.2,1,12.3,16.4,1,19.2"/>
  <path class="st3" d="M814.7,658c13.2,3.2,14.5,21.7-1.7,22.1"/>
  <path class="st3" d="M814.9,632.1s14.4.4,15.4-10.8-12.7-15.4-12.7-15.4c0,0,15-.5,16.3-11.6s-10.1-14.7-10.1-14.7"/>
  <path class="st3" d="M826.7,672.2s12.8.9,13.9-10.1-11.4-15-11.4-15c0,0,12.8-.4,13.6-10.9,1-13-12.5-14.8-12.5-14.8,0,0,14.6-.6,15.5-12.5s-12-14.5-12-14.5"/>
</svg>