<?xml version="1.0" encoding="UTF-8"?>
<svg id="Warstwa_1" data-name="Warstwa 1" xmlns="http://www.w3.org/2000/svg" viewBox="0 0 200 200.3">
  <defs>
    <style>
      .cls-1 {
        stroke-width: .77px;
      }

      .cls-1, .cls-2 {
        fill: none;
        stroke: #000;
        stroke-linecap: round;
        stroke-linejoin: round;
      }

      .cls-2 {
        stroke-width: 1.31px;
      }
    </style>
  </defs>
  <path class="cls-1" d="M156.45,156.78c-5.85,1.73-12.26,2.81-21.5,3.43-14.01.93-27.26,1.68-37.08-3.23"/>
  <path class="cls-1" d="M149.88,150.46c-4.82,3.88-11.59,7.84-19.15,8.17-8.25.37-15.92-2.02-23.34-5.73"/>
  <path class="cls-1" d="M149.39,150.32c-11.32,4.52-25.43,7.98-41,2.08"/>
  <path class="cls-1" d="M110.9,153.48c7.73.72,21.56,1.07,27.67-5.09"/>
  <path class="cls-1" d="M156.52,156.63c1.94-1.79-.35-4.1-2.37-5.02-2.97-1.35-7-2.61-10.89-3.08-9.37-1.15-11.6-1.4-21.88-.57"/>
  <path class="cls-1" d="M77.05,160.06c3,3,14.74-.98,17.84-2.31,12.99-5.57,21.68-8.72,35.31-12.19,13.39-3.42,27.71.34,33.18,6.14,1.54,1.63,1.12,3.97-.53,4.68-2.47,1.06-3.69.7-6.27.33"/>
  <path class="cls-1" d="M24.61,147.44c8.61,12.39,25.51,14.14,35.87,14.72,11.38.63,25.38-4.91,35.27-9.86,13.13-6.57,26.85-9.34,40.22-11.79,8.49-1.56,35.37-1.07,37.5,11.74.83,5-6.66,4.6-9.79,3.31"/>
  <path class="cls-1" d="M7.76,114.82c0,25.15,20.86,40.12,44.06,41.23,13.7.65,25.35-2.32,39.69-8.99,12.91-6.01,21.69-9.13,35.76-10.79,12.02-1.42,30.14-2.57,40.99,3.63,3.44,1.97,11.15,7.73,10.5,12.3-.24,1.69-3.76,5.16-5.24,2.19"/>
  <path class="cls-1" d="M179.13,152.84c5.07.77,6.96-3.3,4.59-7.1-7.46-11.93-34.73-17.96-54.27-9.77"/>
  <path class="cls-1" d="M184.58,149.61c6.35-4.76,1.23-10.19-3.4-13.09-6.43-4.02-19.76-10.45-40.78-4.02"/>
  <path class="cls-1" d="M188.01,146.46c6.36-3.78,3.15-10.62.43-12.89-7.64-6.36-20.62-11.99-52.14.16"/>
  <path class="cls-1" d="M192.31,140.02c4.85-3.82.31-9.4-4.07-14.01-2.23-2.35-5.81-4.24-12.23-5.13-29.18-4.03-42.27,8.26-60.83,17.55"/>
  <path class="cls-1" d="M185.97,123.65c-11.3-11.33-30.17-7.91-45.84-4.35-5.9,1.34-16.57,6.41-22.41,8.12-13.02,3.83-34.86,5.76-47.25-.43"/>
  <path class="cls-1" d="M148.49,117.47c-5.26,1.61-12.13,4-17.93,8.25-5.09,3.73-11.37,7.13-17.72,8.57-17.3,3.93-49.86-2.87-56.84-6.66"/>
  <path class="cls-1" d="M111.33,139.36c-9.53,1.29-17,1.18-18.95,1.09-3.96-.19-8.16-.74-12.03-1.58-11.15-2.42-24.7-6.61-34.2-12.95"/>
  <path class="cls-1" d="M8.91,102.37c-1.94,1.62-2.09,3.6-2.12,6.08-.03,2.59.48,5.52,1.91,9.05,3,7.43,7.67,14.4,13.74,19.51,18.22,15.35,36.96,16.61,65.6,11.3"/>
  <path class="cls-1" d="M90.23,140.73c-21.51,3.59-49.73,4.5-67.12-11.44-7.88-7.23-17.71-21.38-12.92-31.01,1.93-3.88,6.15-9.69,13.12-9.33"/>
  <path class="cls-1" d="M88.86,148.11c-8.64,1.26-13.77-.16-18.87-.76-6.24-.73-13.47-2.91-18.76-5.56"/>
  <path class="cls-1" d="M65.79,151.02c-20.14-2.08-29.3-8.95-38.28-18.15"/>
  <path class="cls-1" d="M78.63,139.02c-7.34.4-10.08.4-15.6-.36-14.84-2.06-20.9-3.21-33.39-12.18-2.22-1.59-11.12-9.61-13.92-18.63-2.43-7.84,1.01-15.52,8.03-18.94"/>
  <path class="cls-1" d="M78.61,138.8c-29.27-4.95-44.99-13.7-54.46-27.61-3.46-5.08-5.21-18.95-.69-22.45"/>
  <path class="cls-1" d="M90.65,117.91c-10.39,10.39-40.77,14.19-58.97,1.95"/>
  <path class="cls-1" d="M89.65,117.68c-4.11,1.47-11.27,2.91-18.07,3.33-12.7.78-17.64.8-26.94-2.21-6.43-2.09-11.91-5.71-16.05-10.93-2.72-3.43-9.74-15.55-1.37-21.45"/>
  <path class="cls-1" d="M54.78,121.23c-10.01-2.08-16.77-7.38-18.29-9.01-5.64-6.08-10.08-16.77-5.67-27.13"/>
  <path class="cls-1" d="M89.09,117.72c-13.45,2.32-31.8,1.22-43.29-8.28-6.52-5.39-11.29-14.57-10.54-24.67"/>
  <path class="cls-1" d="M191.02,127.56c3.18-9.54-18.47-18.33-24.63-20.04-22.08-6.13-36.73,15.02-56.84,19.33-4.64.99-9.22,5.37-27.82,3.18"/>
  <path class="cls-1" d="M70.97,126.84c9.56,2.69,14.13,2.69,14.53,2.73,2.92.29,5.36.3,8.3.14,6.09-.32,15.37-4.28,20.33-7.59,16.87-11.25,36.82-28.73,58.69-18.64,4.64,2.14,22.13,14.93,18.63,21.93"/>
  <path class="cls-1" d="M192.45,124.41c4.96-14.88-13.05-24.92-25.06-26.63-6.16-.88-11.67-2.58-17.9-1.15-20.34,4.69-37.54,21.05-59.27,21.05"/>
  <path class="cls-1" d="M150.1,101.59c-11.45,1.77-10.76,1.97-17.15,5.66-13.69,7.9-27.34,14.62-46.8,13.91"/>
  <path class="cls-1" d="M115.71,120.26c-8.09,2.7-20.45,7.18-32.78,3.17"/>
  <path class="cls-1" d="M88.94,117.68c-.19.37,13.09-4.97,23.75-11.78,7.04-4.5,21.18-8.61,25.67-9.47"/>
  <path class="cls-1" d="M190.59,110.38c-1.2-5.98-9.22-11.68-14.46-13.89-10.56-4.44-25.24-5.22-36.08-.57-7.75,3.32-13.77,9.82-21.05,13.46"/>
  <path class="cls-1" d="M190.73,109.09c6.99-13.97-18.58-21.61-28.06-23.19-36.86-6.14-64.38,27.93-100.21,4.04"/>
  <path class="cls-1" d="M181.57,99.07c-11.09-5.55-21.05-14.4-44.02-12.19"/>
  <path class="cls-1" d="M146.49,93.34c-12.23,0-18.36.19-29.77,5.18-12.66,5.54-16.39,8.27-28.11,13.23-6.19,2.62-17.64,3.91-23.41,3.02-11.28-1.73-22.48-8.69-27.97-17.17"/>
  <path class="cls-1" d="M88.61,111.51c-7.94.83-14.96.33-20.34-1.2-8.73-2.48-25.06-10.82-28.21-25.55"/>
  <path class="cls-1" d="M109.03,101.88c-14.34,6-32.01,3.98-33.25,3.77-9.24-1.48-22.88-3.21-31.64-20.71"/>
  <path class="cls-1" d="M120.29,92.63c-20.52,6.84-30.93,11.6-53.04,5-6.03-1.8-13.46-3.97-18.73-12.3"/>
  <path class="cls-1" d="M22.96,88.82c2.14-1.98,6.41-3.66,9.45-4.1,4.34-.63,10.39-.38,14.7.34,12.65,2.11,24.21,7.28,35.67,13.01"/>
  <path class="cls-1" d="M73.62,92.91c-6.79-4.7-16.32-12.79-29.26-14.55-14.5-1.97-34.16,4.42-36.01,24.5"/>
  <path class="cls-1" d="M8.04,103.22c-3.1-3.1-2.76-9.16-1.92-11.86,2.49-7.99,14.06-15.3,24.38-12.48"/>
  <path class="cls-1" d="M23.21,78.46c3.7-4.28,12.82-5.71,14.72-5.83,9.06-.53,16.15,1.45,23.89,7.3"/>
  <path class="cls-1" d="M77.93,95.31c-8.73-7.09-15.04-15.24-20.06-18.72-11.71-8.11-36.11-13.77-45.7,6.43"/>
  <path class="cls-1" d="M100.69,97.41c-16.07,2.08-20.56-4.12-23.69-8.03-6.22-7.78-10.09-16.78-20.84-21.23-7.94-3.29-23.6-4.76-30.79,2.43"/>
  <path class="cls-1" d="M24.95,70.66c2.95-6.16,9.19-8.91,12.02-9.38,7.01-1.17,14.59-.24,20.95,2.75,5.35,2.51,14.71,10.96,16.7,16.96,3.37,10.2,5.54,13.99,14.95,16.73"/>
  <path class="cls-1" d="M165.68,85.47c.46.23-3.53-2.29-5.44-2.72-4.06-.9-7.06-3.85-15.17-4.23-12.8-.61-24.31,5.28-35.94,16.4"/>
  <path class="cls-1" d="M121.18,84.78c-15.99,13.27-37.55,12.44-48.57-7.96"/>
  <path class="cls-1" d="M126.46,82.47c-4.75,1.68-9.6,2.96-10.61,3.15-4.04.74-9.29,1.4-13.4,1.21-11.64-.53-18.63.01-30.97-11.75"/>
  <path class="cls-1" d="M171.84,87.19c1.05.52-1.61-2.61-1.86-2.86-1.63-1.63-3.26-3.54-5.15-4.87-6.3-4.41-13.63-6.89-21.33-7.45-9.9-.71-16.24,4.42-28.16,8.11-12.02,3.72-29.35,5.81-38.51-.5"/>
  <path class="cls-1" d="M175.99,88.19c-1.76-5.29-6.65-7.65-10.31-11.31-13.51-13.51-36.19-9.34-44.34-4.68-11.39,6.5-14.66,12.04-35.5,10.71"/>
  <path class="cls-1" d="M71.18,74.47c17.32,8.89,29.48,2.74,33.61,1,11.68-4.95,18.33-8.05,28.88-10.73,12.28-3.12,24.31-2.13,35.88,6.13,7.65,5.46,10.02,10.58,10.02,18.9"/>
  <path class="cls-1" d="M184.44,92.63c-.83,1.66,3.27-6.35.64-12.8-6.89-16.91-20.65-14.65-30.71-16.08"/>
  <path class="cls-1" d="M182.14,73.87s-4.1-5.6-5.87-7.02c-4.49-3.59-11.07-6.63-16.61-8.02-12.73-3.18-28.6.84-45.62,12.78"/>
  <path class="cls-1" d="M64.38,67.81c24.27,12.99,46.11-1.12,64.65-4.82"/>
  <path class="cls-1" d="M61.36,65.69c15.01,5.08,26.41,3.38,38.46-.84,15.26-5.34,28.05-16.67,44.94-15.26,8.54.71,23.24,6.54,33.98,19.83"/>
  <path class="cls-1" d="M107.85,62.1c14.94-4.97,19.62-5.17,22.18-5.56,10.06-1.51,19.18.2,28.92,2.15"/>
  <path class="cls-1" d="M179.03,69.84c-2.14-13.83-23.86-26.07-34.83-20.59"/>
  <path class="cls-1" d="M178.09,65.78c4.05,1.33,13.5,8.77,14.66,17.65.53,4.05-.66,8.41-4.88,12.63"/>
  <path class="cls-1" d="M184.37,69.42c-1.37-8.68-9.52-17.42-14.25-19.79-3.72-1.86-7.15-1.78-10.17-1.15"/>
  <path class="cls-1" d="M54.22,61.77c14.37,4.04,30.14,1.66,40.08-1.48,16.23-5.13,30.11-19.2,49.35-11.09"/>
  <path class="cls-1" d="M143.77,48.82c-2.38-2.08-5.44-3.33-7.76-3.82-7.67-1.62-15.29-1.67-23.08.67-8.82,2.65-14.64,6.44-23.28,9.6-7.62,2.79-12.76,3.55-19.45,4.73-3.74.66-12.82,2.2-25.8.31"/>
  <path class="cls-1" d="M65.67,60.78c10.84-2.11,19.11-7.82,22.87-10.03,6.83-4.02,21.73-9.86,29.54-11.42,8.42-1.68,15.9-.69,23.98,2,2.53.84,9.01,5.31,18.12,7.32"/>
  <path class="cls-1" d="M160.38,48.1c-1.22-1.09-2.55-2.47-8.35-5.34-5.84-2.89-11.01-2.7-16.84-3.68"/>
  <path class="cls-1" d="M41.39,60.34c11.36-.93,21.94-4.06,23.64-4.8,19.53-8.37,30.97-16.18,52.83-16.18"/>
  <path class="cls-1" d="M38.43,60.92c5.2-3.2,8.32-6.91,11.51-8.17,5.15-2.03,13.87-1.36,25.4-2.5"/>
  <path class="cls-1" d="M56.31,51.2c12.48-9.68,21.93-3.61,32.82-6.21"/>
  <path class="cls-2" d="M156.36,156.37s-8.82,3.19-24.2,4.28c-24.05,1.71-34.39-3.72-34.39-3.72,0,0-9.24,3.36-14.58,4.13-5.34.77-6.77-1.05-6.77-1.05,0,0-13.13,4.15-30.29.21-20.8-4.78-21.69-13.25-21.69-13.25,0,0-8.24-3.7-13.69-17.17-1.55-3.82-3.26-14.57-3.26-14.57,0,0-1.09-3.62-.97-6.78.12-3.16,1.52-5.96,1.52-5.96,0,0-3.26-2.29-2.1-10.05.78-5.25,6.28-9.39,6.28-9.39,0,0,1.78-4.74,4.97-7.88,3.19-3.14,7.77-4.69,7.77-4.69,0,0,2.61-4.35,6.09-6.77,3.48-2.41,7.82-2.89,7.82-2.89,0,0,4.2-3.75,8.57-6.53,4.43-2.82,8.96-3.12,8.96-3.12,0,0,2.9-3.7,11.26-5.1,7.54-1.26,19.63-.44,19.63-.44,0,0,7.42-3.5,14.79-5.03,7.37-1.53,14.69-1.1,14.69-1.1,0,0,4.47-1.24,8.88-1.4,4.41-.16,8.75.76,8.75.76,0,0,9.06.82,16.34,3.25,3.91,1.3,9.56,5.75,9.56,5.75,0,0,9.39-.99,15.89,6.64,7.35,8.63,8.07,14.4,8.07,14.4,0,0,7.17,6.58,8.18,13.96,1.28,9.38-4.36,13.14-4.36,13.14,0,0,3.02,2.89,3.61,7.64.49,3.91-1.47,6.36-1.47,6.36,0,0,3.15,6.06,2.85,10.31-.28,3.89-2.19,7.97-2.19,7.97,0,0,3.43,4.7,3.57,7.06.16,2.53-2.19,4.56-2.19,4.56,0,0-.36,2.46-1.5,4.08-1.14,1.62-3.06,2.41-3.06,2.41,0,0-.11.85-.85,1.54-.74.69-2.12,1.23-2.12,1.23,0,0-.51,2.22-2.01,3.14-1.5.92-3.98.52-3.98.52,0,0-.7,1.68-2.89,2.18-2.19.5-2.27-.91-2.27-.91,0,0-1.14,2.05-3.66,2.52-2.52.47-6.43-.63-6.43-.63,0,0-1.43,1.1-3.21,1.2-1.78.1-3.91-.81-3.91-.81Z"/>
</svg>