<?xml version="1.0" encoding="UTF-8"?>
<svg id="Warstwa_1" data-name="Warstwa 1" xmlns="http://www.w3.org/2000/svg" viewBox="0 0 200 200.3">
  <defs>
    <style>
      .cls-1 {
        stroke-width: 1.31px;
      }

      .cls-1, .cls-2 {
        fill: none;
        stroke: #000;
        stroke-linecap: round;
        stroke-linejoin: round;
      }

      .cls-2 {
        stroke-width: .77px;
      }
    </style>
  </defs>
  <path class="cls-2" d="M186.25,63.51c0-13.09-26.79-18.53-36.93-19.66-6.96-.77-15.22-.76-21.38,1-10.16,2.9-16.63,6.95-29.12,8.93-14.85,2.34-27.99-1.85-42.55-2.88-11.03-.78-32.69,6.36-32.69,14.19"/>
  <path class="cls-2" d="M23.75,63.32c-1.18-3.47-.68-7.28,0-8.17,3.63-4.7,9.25-7.41,16.04-8.92,12.73-2.83,24.52-.85,30.86.24,10.84,1.86,20.67,4.3,30.78,2.78,7.25-1.09,14.2-3.16,22.1-3.63"/>
  <path class="cls-2" d="M72.8,46.92c-11.21-3.92-18.83-4.69-22.01-4.96-10.22-.85-23.45,1.16-27.75,14.32"/>
  <path class="cls-2" d="M188.09,75.01c1.34-7.68-2.73-8.75-5.22-10.78-7-5.71-14.25-9.86-24.23-12.01-6.87-1.48-14.68-2-21.72-1.32-14.18,1.37-16.16,3.58-27.41,5.66-12.4,2.29-27.42,3.39-53.16-5.95"/>
  <path class="cls-2" d="M70.5,55.12c6.52,1.58,25.91,5.84,33.75,5.92,9.81.11,16.29-2.46,29.22-3.92"/>
  <path class="cls-2" d="M19.73,74.68c.79-4.71,2.23-7.67,2.7-8.41,3.21-5.14,9.61-9.07,15.33-10.05,24.79-4.25,23.96,8.79,57.85,11.44,7.28.57,23.26-6.13,29.94-8.51,9.26-3.31,18.84-2.86,28.46-1.47,15.85,2.3,30.65,11.32,36.88,21.93,1.25,2.13,1.78,5.99.47,8.62"/>
  <path class="cls-2" d="M18.68,77.41c1.84-4.53,4.2-8.86,8.18-10.81,16.15-7.89,33.71-3.04,61.11.26"/>
  <path class="cls-2" d="M40.1,62.82c9.6-1.23,22.95,1.77,29.07,4.87,7.75,3.92,19.57,9.9,28.29,8.65,18.37-2.63,28.66-8.04,47.48-9.29,5.97-.4,19.15,1.3,21.43,2.44"/>
  <path class="cls-2" d="M100.09,67.79c14.35-2.72,12.91-2.62,18.72-3.39,8.87-1.17,14.39-.29,20.28-.29,15.89,0,31.72,4.94,43.8,14.89,1.68,1.38,6.19,5.06,7.62,8.48.58,1.4,1.78,4.31.58,6.71"/>
  <path class="cls-2" d="M190.25,103.41c1.14-3.43,1.16-8.98.33-10.2-3.96-5.86-14.78-11.16-23.96-12.15-12.54-1.35-23.32,4.39-40.66,5.26-7.5.38-18.22.23-25.34-2.32-4.55-1.62-11.37-4.85-18.54-9.22"/>
  <path class="cls-2" d="M96.01,76.81c3.7.72,5.98,1.53,10.86,1.7,8.05.28,16.43.08,26.78-2.18,6.34-1.39,16.44-1.99,34.73,4.98"/>
  <path class="cls-2" d="M188.99,106.78c1.14-7.91-8.21-14.3-14.51-16.05-14.58-4.05-33.55,1.01-48.36.3-7.39-.35-10.16-1.25-20.84-5.18"/>
  <path class="cls-2" d="M170.23,113.16c-10.09-1.69-16.79-3.92-22.92-6.41-15.31-6.24-29.26-14.23-43.88-21.54"/>
  <path class="cls-2" d="M16.62,97.67c.51-3.61,2.63-10.78,7.85-15.82,8.25-7.97,14.57-19.22,52.68-10.04"/>
  <path class="cls-2" d="M76.53,71.68c19.73,9.89,28.51,21.86,35.1,26.1,9.36,6.02,26.35,14.56,45.82,15.32,18.41.72,20.53.94,32.78-2.53"/>
  <path class="cls-2" d="M189.69,110.67c.3-4.19-2.16-4.55-3.64-5.04-4.43-1.48-14.39-.02-19.17-.08-14.89-.19-30.2-4.55-43.16-9.87"/>
  <path class="cls-2" d="M128.96,97.49c19.87,1.26,24.09.04,31.84,0,9.34-.05,18.97,1.51,25.41,8.14"/>
  <path class="cls-2" d="M49.93,68.36c-23.74-.88-35.54,13.23-35.54,13.23,0,0-1.16,3.44.37,8.04"/>
  <path class="cls-2" d="M20.02,87.09s-8.6,5.02-9.37,6c-.76.98-.95,5.94-.66,9.58"/>
  <path class="cls-2" d="M16.42,97.33l-7.26,6.7s-1.47-.17-.65,9.73"/>
  <path class="cls-2" d="M23.04,138.21c-1.22-.58-9.45-5.09-10.8-6.17-1.35-1.08-6.71-10.58-3.83-16.76,1.14-2.46,3.1-9.59,8.72-17.33,6.07-8.36,16.39-17.49,30.49-21.52,10.9-3.11,26.48-.93,39.87,9.96,4.13,3.36,31.29,27.96,48.56,36.15,7.84,3.72,21.72,7.5,31.8,6.89,11.3-.68,18.65-6.23,23.18-10.64"/>
  <path class="cls-2" d="M190.94,109.42s.61,6.46-.73,8.06c-1.35,1.6-14.63,6.03-26.55,4.82-11.82-1.2-23.42-2.46-39.57-10.94-2.36-1.24-16.75-13.71-25.96-25.02"/>
  <path class="cls-2" d="M190.95,119.7c-3.81,6.29-14.03,10.05-27.77,11.77-3.01.38-14.34,3.27-43.21-9.43"/>
  <path class="cls-2" d="M22.75,137.66c-12.6-11.65-13.77-36.49,8.82-53.46"/>
  <path class="cls-2" d="M22.79,137.75c-3.93-6.09-4.62-8.03-5.43-12.06-4.06-19.98,23.75-42.29,43.56-39.22,34.48,5.33,44.74,31.86,78.31,45.04"/>
  <path class="cls-2" d="M191.39,118.3c-.44,5.27-.91,5.94-2.36,8.01-1.45,2.07-9.73,6.62-16.89,8.23-6.85,1.53-14.11,3.16-28.83-1.7-27.71-9.14-45.31-28.58-65.33-34.22-8.43-2.38-19.35-5.71-33.95-1.97-9.81,2.51-19.45,6.26-26.94,22.35"/>
  <path class="cls-2" d="M19.04,131.01c-1.89-14.66,14.44-22.49,22.2-23.39,23.1-2.67,48.34,4.99,70.36,17.51"/>
  <path class="cls-2" d="M17.96,116.48c6.62-8.89,15.63-14.25,23.34-15.88,20.45-4.34,41.08,5.91,58.37,16.51,16.75,10.28,30.13,20.79,50.64,25.06,7.76,1.62,28.58,1.26,36.48-7.43,1.99-2.19,2.99-4.89,2.51-8.2"/>
  <path class="cls-2" d="M52.31,107.06c-11.65,1.17-15.89,5.34-15.88,7.9.01,2.92,4.78,5.78,14.31,7.38,11.11,1.86,19.47-3.3,33.99-4.71,6.27-.61,10.81.52,20.92,4.08"/>
  <path class="cls-2" d="M54.89,107.33c-9.17.93-10.28,3.15-9.41,4.55,1.58,2.54,9.87,4.56,16.01,3.99,7.52-.7,13.98-3.85,27.03-1.55"/>
  <path class="cls-2" d="M43.7,107.47c-9.53,2.31-13.13,4.75-12.96,8.2.19,3.72,9.87,6.78,13.47,7.49,10.8,2.11,21.78-2.06,37.67-5.32"/>
  <path class="cls-2" d="M26.68,115.73c1.19,3.6,6.42,7.69,9.79,9.01,5.28,2.06,12.09,2.97,17.74,2.22,6.54-.87,13.52-3.82,18.55-6.18,2.98-1.4,8-4.01,24.51-2.07"/>
  <path class="cls-2" d="M26.99,116.98c5.82,21.07,37.03,20.32,53.13,12.2,6.47-3.26,16.16-12.28,37.46-.71"/>
  <path class="cls-2" d="M26.48,117c1.52,3.02,3.7,9.66,9.24,14.48,7.04,6.12,11.83,9.3,21.23,10.76,17.05,2.64,20.6-6.46,44.08-13.47,2.23-.67,14.91-.51,17.25.26"/>
  <path class="cls-2" d="M119.47,129.49c-8.66-.95-20.34,10.42-24.56,12.86-19.87,11.43-40.63,11.62-57.53-3.61-4.92-4.43-9.92-8.91-11.04-21.71"/>
  <path class="cls-2" d="M35.3,109.48c-8.41,3.75-21.28,16.99-10.15,30.77,8.34,10.33,31.4,12.33,44.06,10.48"/>
  <path class="cls-2" d="M37.97,148.07c6.57,6.53,15.11,8.19,23.86,8.84,15.3,1.13,27.27-4.1,38.47-9.74,8.93-4.49,18.59-11.45,26.98-13.02"/>
  <path class="cls-2" d="M70.47,157.14c12.37,2.15,16.59,1.69,26.05-.94,7.25-2.02,11.21-3.69,19.53-7.91,5.3-2.69,13.16-10.06,24.82-8.67"/>
  <path class="cls-2" d="M183.51,137.78c-5.84,5.48-6.83,7.63-13.87,11.4-19.65,10.51-30.46,7.91-42.89,7-8.54-.62-25.17-1.69-33.22.76"/>
  <path class="cls-2" d="M109.68,151.52c10.02-2.73,28.19-.33,38.12-1.26,8.56-.8,12.69-4.68,24.94-8.69"/>
  <path class="cls-2" d="M164.5,143.67c-10.77-1.1-21.07-.71-33.9,1.56-3.69.65-8.05.71-12.13,1.86"/>
  <path class="cls-2" d="M129.45,145.41c4.6-1.27,17.83,4.62,28.56,2.22"/>
  <path class="cls-2" d="M145.93,141.18c-8.39-.98-16.99-.04-20.69,1.83"/>
  <path class="cls-1" d="M125.17,45.65s-22.55,3.64-27.88,3.64c-6.71,0-12.84.21-19.39-1.43-15.81-3.95-34.01-10.95-49.83-.1-2.52,1.73-2.74,2.66-4.39,7.63-1.42,4.3-.2,8.8-.2,8.8,0,0-2.17,3.85-2.51,4.61-1.09,2.42-1.13,5.03-1.13,5.03l-1.52,3.56s-1.25,1.34-2.22,2.08c-.97.74-1.98,2.41-1.98,2.41,0,0-.18,2.14.07,4.2.24,2.06.91,4.04.91,4.04l-4.4,3.2s-.76,1.81-.89,4.23c-.13,2.42.36,5.43.36,5.43l-1.41,1.88s-.51,2.12-.54,4.53c-.03,2.41.51,4.15.51,4.15,0,0-1.74,4.56-.87,8.24,1.66,7.04,4.26,10.35,4.26,10.35l11.24,6.16s2.12,3.32,6.32,6.04c3.42,2.22,9.87,4.75,9.87,4.75,0,0,3.43,3.78,10.69,5.83,7.77,2.19,20.5,2.18,20.5,2.18,0,0,5.81,1.4,13.51,1.41,7.88,0,15.43-3.29,15.43-3.29,0,0,7.39-.19,18.17.15,16.84.53,25.09,4.38,44.24-2.26,14.35-4.98,21.1-15.41,21.1-15.41,0,0,3.91-2.79,5.13-5.89.98-2.49.76-5.17.76-5.17,0,0,1.27-1.8,1.39-3.45.1-1.36.91-4.37.91-4.37l-.5-2.23s.41-3.15-.03-5.67c-.43-2.52-1.7-4.41-1.7-4.41,0,0,1.41-3.02,1.98-6.12.57-3.1.06-6.38.06-6.38,0,0,.53-.96.55-2.2.02-1.24-.47-2.75-.47-2.75,0,0,2.09-4.91.61-8.52-1.42-3.48-3.79-5.42-3.79-5.42,0,0,.64-1.94.41-4.77-.16-1.97-1.76-4.68-1.76-4.68,0,0,.4-5.59-4.5-9.95-9.72-8.64-26.34-11.43-38.09-12.35-9.11-.71-19,2.29-19,2.29Z"/>
</svg>