<?xml version="1.0" encoding="UTF-8"?>
<svg id="Warstwa_1" data-name="Warstwa 1" xmlns="http://www.w3.org/2000/svg" viewBox="0 0 200 200.3">
  <defs>
    <style>
      .cls-1 {
        stroke-width: 1.31px;
      }

      .cls-1, .cls-2 {
        fill: none;
        stroke: #000;
        stroke-linecap: round;
        stroke-linejoin: round;
      }

      .cls-2 {
        stroke-width: .77px;
      }
    </style>
  </defs>
  <path class="cls-2" d="M123.02,80.25c-1.85,3.7-3.88,7.12-7.21,9.39-1.74,1.19-4.13,1.86-6.41,2.52-8.29,2.41-19.57,1.44-26.77-.96"/>
  <path class="cls-2" d="M100.97,87.91c-6.34,3.17-28.59-1.74-34.52-4.71"/>
  <path class="cls-2" d="M105.78,92.72c-3.44-6.88-15.27-9.93-22.15-8.9-1,.15-8.66.77-11.15.97"/>
  <path class="cls-2" d="M110.85,90.77c0-4.33-4.45-7.99-12.74-8.91-8.37-.93-20.59.91-26.4,2.47"/>
  <path class="cls-2" d="M114.85,89.85c1.57-3.24-5.54-9.32-8.79-10.42-3.13-1.06-10.76-1.74-17.44.51-12.36,4.17-17.67,4.15-20.56,3.43"/>
  <path class="cls-2" d="M115.59,89.73c2.84-6.22-5.35-11.46-7.69-12.48-6.54-2.87-12.06-1.96-19.21.12-3.19.93-7.9,2.65-10.55,3.98"/>
  <path class="cls-2" d="M120.16,84.04c-8.24-8.24-18.42-14.69-30.79-11.31-10.29,2.81-18.74,11.18-42.57,4.92"/>
  <path class="cls-2" d="M89.3,72.8c-5.04,4.09-8.4,8.44-14.35,9.58-6.94,1.33-13.94-.65-19.28-2.16"/>
  <path class="cls-2" d="M42.31,76.33c6.88.86,18.04,2.53,23.16.73,10.54-3.72,13.86-5.61,21.39-6.37,5.2-.52,9.53-1.08,20.22,3.65"/>
  <path class="cls-2" d="M49.17,78.52c7.06,2.59,14.41,3.94,21.44,6.92,11.07,4.71,21.43,12.29,33.96,11.81,5.38-.21,16.83-2.73,19.2-7.52,4.35-8.79-4.44-15.02-7.17-16.86"/>
  <path class="cls-2" d="M120.8,83.94c-.32-13.12-13-16.68-18.16-17.16-6.57-.6-11.22-.87-17.89.26-10.26,1.73-22.37,7.64-32.81,8.13-7.2.34-9.08-.75-15.22-.74"/>
  <path class="cls-2" d="M105.21,63.48c-9-1.41-12.7-1.04-15.22-.88-12.22.81-22.02,10.4-33.68,11.71"/>
  <path class="cls-2" d="M104.59,63.5c-20.63-7.06-32.28.65-39.05,4.15-2.87,1.48-9.56,3.16-12.83,3.72-3.15.54-11.15,1.63-13.77-1.07"/>
  <path class="cls-2" d="M41.32,67.95c3.27,3.38,21.7-3.31,28.49-9.73"/>
  <path class="cls-2" d="M63.1,68.68c6.05-3.44,13.59-8.7,15.48-11.13"/>
  <path class="cls-2" d="M35.48,75.04c1.43-4.06,8.37-10.99,16.66-13.73,18.25-6.02,41.16-5.96,57.05,4.53,3.52,2.33,9.24,5.52,13.63,13.26"/>
  <path class="cls-2" d="M121.17,92.39c15.93-10.86-5.5-28.5-10.77-31.98"/>
  <path class="cls-2" d="M32.3,74.24c3.07-9.89,22.71-18.93,38.5-19.33,4.71-.12,9.36-.07,13.99.72,10.53,1.8,13.4,3.67,17.6,6.22"/>
  <path class="cls-2" d="M26.78,74.3c4.14-7.19,5.23-7.68,8.18-9.8,9.76-6.98,25.2-11.06,37.22-11.45,3.62-.12,15.94-.47,26.57,2.37"/>
  <path class="cls-2" d="M23.53,74.95c1.16-4.09,1.36-6.16,5.14-10.26,5.34-5.79,21.24-12.27,29.06-12.93,10.89-.92,21.02-.83,30.77.96,10.46,1.93,20.5,5.82,30.6,12.54,3.79,2.52,13.99,9.84,14.98,21.65"/>
  <path class="cls-2" d="M27.83,65.05c-.17-2.47,11.62-10.31,13.62-11.49,15.24-8.99,35.99-8.57,51.65.02"/>
  <path class="cls-2" d="M34.41,57.72c2.18-4.51,7.89-9.02,12.05-11.48,17.15-10.11,37.12-2.93,52.37,6.53,4.56,2.83,11.49,8.91,23.49,10.83"/>
  <path class="cls-2" d="M65.06,40.44c9.5-3.66,21.45-.41,33.29,7.17,3.79,2.43,11.06,10.81,23.75,15.38,1.43.51,2.7,1.38,3.77,2.3,2.08,1.79,3.34,3.79,3.34,3.79"/>
  <path class="cls-2" d="M131.21,78.19c1.87,4.16,1.14,7.7.03,10.14-3.85,8.52-14.52,12.21-17.5,12.72-15.9,2.71-28.64-5.35-41.9-12.85-6.55-3.7-15.64-7.75-21.84-9.1"/>
  <path class="cls-2" d="M39.95,75.65c21.35,6.29,34.58,16.78,37.75,18.66,13.59,8.09,38.39,18.99,51.38,4.01,2.69-3.1,4.96-7.49,5-11.31"/>
  <path class="cls-2" d="M44.5,77.65c.41.04-4.23-.96-7.78-.01-3.24.86-5.02,5.19-2.81,8.67,7.95,12.53,26.78,21.94,40.37,26.75,11.26,3.99,23.57,5.03,35.38,3.25,3.35-.5,8.36-1.69,14.11-5.05"/>
  <path class="cls-2" d="M41.17,93.64c-.9-1.09,4.55.25,5.42.85,3.46,2.38,5.45,5.43,8.07,8.6"/>
  <path class="cls-2" d="M38.07,91.35c-.2-.25.22-1.03.39-1.29,2.18-3.48,7.14-1.29,9.68.73,8.82,6.99,16.02,18.4,27,22.29"/>
  <path class="cls-2" d="M56.11,97.65c4.5,2.81,7.75,6.76,12.73,9.11,10.55,4.98,24.04,6.27,35.61,5.73"/>
  <path class="cls-2" d="M45.64,89.22c12.99,8.13,26.77,16.15,42.53,17.66"/>
  <path class="cls-2" d="M37.49,90.42c-3.99-8.67,4.96-7.39,8.35-6.11,8.17,3.09,23.77,12.23,31.3,16.59,2.72,1.58,5.22,2.99,7.56,4.24,15.24,8.17,23.4,9.48,40.93,5.44"/>
  <path class="cls-2" d="M33.62,84.65c1.8-5.78,7.02-4.71,8.33-4.74,4.81-.12,10.4,2.61,14.29,5.28,11.98,8.24,29.35,20.71,52.96,20.56"/>
  <path class="cls-2" d="M45.59,84.17c4.95-.07,16.11,5.01,17.28,5.53"/>
  <path class="cls-2" d="M116.1,62.92c11.64,5.16,31.96,16.6,24.18,34.66-2.17,5.04-10.03,11.37-16.56,13.58"/>
  <path class="cls-2" d="M132.51,72.84c7.91,9.78,5.92,16.28,5.38,19-1.71,8.63-16.35,22.61-41.19,18.64"/>
  <path class="cls-2" d="M40.13,75.72c-6.78-1.49-12.31,2.36-12.43,6.37-.15,5.35,5.08,11.48,8.58,14.72,10.56,9.81,28.78,16.78,42.53,20.37,4.05,1.06,8.09,1.97,11.75,2.48"/>
  <path class="cls-2" d="M128.7,69.54c12.7,7.62,16.49,15,18.14,20.36,2.44,7.89-2.02,15.62-7.76,20.35-10.78,8.87-29.6,12.23-48.45,9.41"/>
  <path class="cls-2" d="M35.57,75.05c-9.62-1.12-14.07.56-15.49,3.3-1.66,3.2,2.46,9.28,4.54,11.51,13.42,14.44,28.04,20.91,46.8,25.45"/>
  <path class="cls-2" d="M22.15,87.72c8.03,13.04,14.8,14.57,20.48,18.51,5.06,3.51,13.6,7.04,19.37,9.3,19.63,7.7,36.54,13.76,57.12,8.02,5.41-1.51,17.75-8.28,25.3-17.87"/>
  <path class="cls-2" d="M22.06,88.09c.21,6.59,5.06,11.13,7.23,13.18,7.23,6.82,21.7,11.51,31.19,13.8"/>
  <path class="cls-2" d="M22.3,92.15c-.14.03,3.87,8.66,7.1,12.45,2.83,3.33,8.06,6.06,11.97,7.89,14.15,6.65,12.51,5.46,24.73,8.46,2.57.63,14.34,1.46,16.68,2.02"/>
  <path class="cls-2" d="M19.49,79.7c-1.47,3.55-1.49,7.46-.49,11.66,1.31,5.48,10.19,13.79,14.62,17.06"/>
  <path class="cls-2" d="M19.38,79.41c-13.19,17.87,5.61,32.09,21.64,38.69,17,7.01,40.76,15.11,61.37,13.27,13.69-1.23,24.29-5.99,36.73-19.37"/>
  <path class="cls-2" d="M34.12,114.94c10.44,7.6,15.78,9.88,20.07,11.79,14.95,6.63,29.72,8.89,45.91,7.64,4.71-.36,11.94-2.1,16.32-3.89,7.33-3.01,13.87-7.2,24.44-20.37"/>
  <path class="cls-2" d="M14.94,96.95c.84,4.39,1.66,10.79,5.96,14.94,5.53,5.35,14.94,6.8,21.89,11.1,13.73,8.5,24.06,16.3,42.81,16.44,8.44.06,21.89-6.15,29.81-8.31"/>
  <path class="cls-2" d="M78.03,139.22c-10.84-1.47-14.45-2.43-21.31-4.58-9.57-3.01-21.82-7.87-29.48-13.63-3.52-2.65-15.69-13.05-12.27-24.25"/>
  <path class="cls-2" d="M14.9,97c-1.73,1.96-3.56,3.42-3.18,6.79,1.05,9.2,5.64,14.59,12.01,19.7,16.58,13.3,31.83,15.8,56.43,16.51"/>
  <path class="cls-2" d="M16.26,117c-.72,2.47,1.88,6.99,3.83,8.63,6.61,5.59,18.07,14.22,23.5,17.1,7.64,4.05,22.77,11.1,41.65,9.95"/>
  <path class="cls-2" d="M95.1,154.5c-5.1.36-11.3.73-13.78.78-5.3.11-18.33.17-24.69-2.56-10.49-4.52-28.18-9.85-36.72-26.75"/>
  <path class="cls-2" d="M95.57,154.69c-14.35,3.69-29.01,3.98-34.11,3.18-12.73-1.98-24.09-7.07-33.52-20.71"/>
  <path class="cls-2" d="M128.27,153.51c-4.34.37-7.67.94-14.25.92-6.84-.02-12.08.51-18.47-.2-14.24-1.58-27-6.34-40.56-11-4.43-1.53-18.78-8.7-29.83-18.13"/>
  <path class="cls-2" d="M75.59,149.23c-.15.29,11.15.66,18.09-.14"/>
  <path class="cls-2" d="M46.78,136.02c10.95,3.69,16.96,5.46,19.23,6.09,4.71,1.31,11.54,2.8,16.41,3.09,15.61.92,27.74.92,41.53-1.53,11.08-1.97,23.74-5.23,31.21-10.74,3.85-2.84,12.42-8.9,18.04-14.89"/>
  <path class="cls-2" d="M83.88,145.52c2.32,1.13,11.81,4.1,14.04,4.56,5.81,1.2,12.82,1.41,18.72,1.16,12.87-.55,23.52-3.27,34.06-8.1,4.11-1.88,4.75-2.24,11.71-6.69"/>
  <path class="cls-2" d="M129.03,153.53c-4.54,1.91-15.21,5.2-18.73,6.05-12.25,2.98-24.62,1.81-36.62-1.19"/>
  <path class="cls-2" d="M139.42,154.53c-2.68,1.24-12.13,4.06-13.79,4.5-5.23,1.38-12.32,2.79-17.78,1.43"/>
  <path class="cls-2" d="M78.37,140.05c5.44.69,11.15.68,12.96.68,5.66,0,16.55-2.24,21.95-3.91,7.11-2.2,12.72-6.57,19.56-13.28,2.86-2.81,10.01-13.43,13.37-22.23"/>
  <path class="cls-2" d="M57.05,138.69c19.37,4.31,35.43,2.95,36.59,2.83,6.75-.73,16.92-2.15,23.19-4.62,12.2-4.81,25.63-12.22,31.59-24.68,2.86-5.99,3.23-17.37-2.83-25.68"/>
  <path class="cls-2" d="M93.31,141.7c0,.51,7.58-.57,8.47-.73,8.3-1.51,18.42-3.13,26.23-6.35,10.72-4.41,23.19-13.17,28.42-24.2,4.03-8.5,5.34-19.49.88-28.4-5.23-10.46-21.93-18.56-32.89-18.56"/>
  <path class="cls-2" d="M129.45,131.27c13.6-6.89,19.52-14.45,21.85-17.91,6.01-8.93,7.3-17.27,4.58-25.58-3.72-11.38-16.38-20.85-30.09-22.37"/>
  <path class="cls-2" d="M140.02,124.1c13.13-10.98,13.71-19.43,14.03-23.62.33-4.31-1.64-12.08-3.68-15.9-5.5-10.3-14.6-13.17-23.37-16.1"/>
  <path class="cls-2" d="M123.85,153.83c17.24-2.71,30.96-10.98,38.81-17.64"/>
  <path class="cls-2" d="M128.24,153.67c21.05-1.49,42.52-10.11,50.47-27.52,2.11-4.62,3.83-12.02,4.23-19.3"/>
  <path class="cls-2" d="M178.28,113.18c.28-.09.36,3.55-1.5,7.89-1.42,3.32-4.57,7.34-6,8.7-6.61,6.3-16.96,15.88-49.31,17.81-9.83.59-23.78-.55-36.89-2.09"/>
  <path class="cls-2" d="M173.9,117.91c-1.23,4.74-4.99,8.72-6.99,10.55-4.66,4.27-10.69,8.06-20.06,9.57"/>
  <path class="cls-2" d="M182.79,106.77c2.85,6.22.66,20.69-3.74,26.46-19.51,25.54-48.62,21.15-50.81,20.6"/>
  <path class="cls-2" d="M136.95,155.7c10.8.05,20.89-2.1,23.04-2.85,16.38-5.72,28.82-19.54,28.33-35.02-.08-2.65-1.71-9.64-4.8-13.43"/>
  <path class="cls-2" d="M121.85,63.01c-.21-.14,4.14-.82,4.88-.95,3.67-.67,6.94-.67,10.66-.63,10.94.11,18.39.99,28.9,4.71,8.37,2.96,18.94,13.15,19.05,23.49.07,5.83-.47,11.18-2.95,16.47-2.27,4.86-6.35,9.79-9.59,12.38"/>
  <path class="cls-2" d="M127.68,63.49c5.2.11,9.71.2,13.32.36,5.58.26,10.53,1.3,15.88,2.88,15.42,4.57,24.82,16.85,20.84,33.25-4.65,19.16-24.42,30.15-42.13,36.57-6.03,2.19-19.27,4.85-25.35,5.23-2.3.14-17.21.66-27.9.13"/>
  <path class="cls-2" d="M175.35,79.9c4.82,14.83-6.24,34.21-21.49,45.36-18.71,13.68-44.29,15.74-56.67,17.01"/>
  <path class="cls-2" d="M148.9,64.96c22.41,7.11,23.23,19.51,20.93,30.29-3.65,17.15-23.17,36-40.76,39.18"/>
  <path class="cls-2" d="M144.44,64.18c2.33.34,10.31,4.09,13.27,6.69,5.47,4.81,10.93,11.66,9.64,22.21-1.94,15.85-15.58,33.84-39.32,41.52"/>
  <path class="cls-2" d="M140.16,67.35c-2.39-1.2,4.28,1.31,4.62,1.48,3.37,1.69,6.2,3.9,9.1,6.28,8.58,7.05,15.54,18.63,9.84,30"/>
  <path class="cls-2" d="M157.19,70.79c1.68,3.07,5.9,10.8,6.29,15.31"/>
  <path class="cls-2" d="M131.87,61.16c-8.95-1.3-12.81-3.18-14.04-3.62-4.4-1.55-7.22-3.29-14.05-6.6"/>
  <path class="cls-2" d="M116.3,56.86c12.91,3.39,22.74-.68,39.18,5.64"/>
  <path class="cls-2" d="M155.55,62.54c-9.58-9.57-31.6-9.31-45.95-9.29"/>
  <path class="cls-2" d="M103.72,50.91c4.78-.79,12.02-2.01,16.4-1.98,13.85.09,20.94,3.01,29.53,9.52"/>
  <path class="cls-2" d="M162.58,64.72c-5.77-5.97-11.44-10.31-13.8-11.56-12.13-6.42-31.81-6.89-45.11-2.45"/>
  <path class="cls-2" d="M98.78,47.29c18.33-6.11,39.1-4.77,55.58,5.3,4.15,2.54,8.41,7.01,13.26,13.93"/>
  <path class="cls-1" d="M15.4,96.41s-3.28,1.36-3.39,7.47c-.11,5.96,4.04,12.28,4.04,12.28,0,0-.02,2.82.58,4.46.69,1.91,2.84,4.43,2.84,4.43,0,0,1.12,3.35,3.2,6.35,2.09,3,5.14,5.53,5.14,5.53,0,0,6.19,8.27,8.94,10.43,3.42,2.68,10.5,7.18,16.91,8.82,9.92,2.54,20.01,2.06,20.01,2.06,0,0,9.65,2.32,18.56,3.08,3.53.3,14.69-.9,14.69-.9,0,0,6.9,1.62,19-1.73,2.24-.62,11.82-3.31,11.82-3.31,0,0,11.44-.28,17.83-1.82,10.61-2.56,20.14-7.55,27.53-17.79,2.9-4.01,5.2-13.86,4.86-18.08-.62-7.66-4.28-13.33-4.28-13.33,0,0,4.01-9.78-.36-22.62-2.96-8.69-16.16-15.62-16.16-15.62,0,0-4.55-12.67-28.37-20.07-6.29-1.95-18.82-2.47-25.38-1.69-5.74.69-14.81,2.82-14.81,2.82,0,0-10.56-6.03-18.98-7.65-8.42-1.62-14.68,1.15-14.68,1.15,0,0-13.43,2.31-18.45,5.4-9.23,5.68-12.13,11.34-12.13,11.34,0,0-2.08,1.33-3.71,3.22-1.63,1.89-2.82,4.34-2.82,4.34,0,0-2.04,1.84-3.15,4.38-1.11,2.53-1.29,5.76-1.29,5.76,0,0-1.5.56-2.49,1.68-.99,1.12-1.47,2.79-1.47,2.79,0,0-3.2,3.93-4.18,8.16-.97,4.24.14,8.65.14,8.65Z"/>
</svg>