<?xml version="1.0" encoding="UTF-8"?>
<svg id="Warstwa_1" data-name="Warstwa 1" xmlns="http://www.w3.org/2000/svg" viewBox="0 0 200 200.3">
  <defs>
    <style>
      .cls-1 {
        stroke-width: .77px;
      }

      .cls-1, .cls-2 {
        fill: none;
        stroke: #000;
        stroke-linecap: round;
        stroke-linejoin: round;
      }

      .cls-2 {
        isolation: isolate;
        opacity: .99;
        stroke-width: 1.31px;
      }
    </style>
  </defs>
  <path class="cls-1" d="M115.33,85.8c-27.87-.72-48.22,20.93-72.44,7.77-14.92-8.1-16.97-15.26-16.97-23.12"/>
  <path class="cls-1" d="M188.72,104.14c-5.97-7.87-9.99-12.35-19.76-16.69-8.25-3.66-14.96-4.41-23.91-4.84-15.51-.74-27.3,2.02-42.2,7.24-20.72,7.25-28.18,20.03-57.24,13.83-11.18-2.38-27.36-20.47-19.78-33.55"/>
  <path class="cls-1" d="M55.1,97.29c4.42-3.14,10.53-5.04,13.47-5.04,3.78.01,8.12,1.24,12.31.45"/>
  <path class="cls-1" d="M52.36,96.31c.6-2.16,2.05-5.65,10.27-8.57,10.05-3.58,17.09,1.5,25.93-2.66"/>
  <path class="cls-1" d="M79.61,93.31c8.89-4.45,17.27-20,26.1-26.86,13.63-10.6,31.62-13.2,50.32-11.29"/>
  <path class="cls-1" d="M80.09,93.57c15.87-6.48,21.91-11.12,27.08-17.18,10.48-12.26,28.66-21.67,44.66-21.43,4.93.08,10.02.78,15.19,2.14,7.32,1.93,15.94,6.04,16.62,14.32"/>
  <path class="cls-1" d="M100.64,87.28c4.15-1.48,11.53-9.14,26.11-17.85,10.15-6.06,31.39-10.2,45.25-3.78,13.42,6.22,22.72,13.49,18.86,20.9"/>
  <path class="cls-1" d="M189.89,100.69c3.15-4.2,1.83-11.51.52-14.14-3.87-7.74-15.07-13.73-23.78-15.72-15.09-3.43-28.84-.73-41.58,6.07-3.68,1.96-10.99,7.06-18.44,9.25"/>
  <path class="cls-1" d="M189,104.91c4.26-11.55-13.74-28.33-45.46-28.24-6.09.02-13.36,1.92-28.87,9.28"/>
  <path class="cls-1" d="M190.88,117.56c2.05-3.96,1.72-11.34-6.11-16.43-25.82-16.79-58.23-11.34-69.49-8.74-6.19,1.43-11.39,3.19-18.97,6.48-6.94,3.02-17.95,5.71-33.64,6.58"/>
  <path class="cls-1" d="M149.09,90.07c-10.77.72-16.7,1.15-23.36,3.54-7.87,2.83-17.67,8.38-25.13,12.11-16.52,8.26-31.69,17.39-62.73-5.48"/>
  <path class="cls-1" d="M151.58,90.06c-21.63,1.37-29.07,6.67-37.31,12.03-9.23,6-18.54,15.41-29.99,17.99-8.25,1.86-17.86,2.59-27.83-.41-21.12-6.36-40.87-24.29-31.77-47.39"/>
  <path class="cls-1" d="M25.16,70.91c-15.94,4.21-13.33,29.23-.55,40.3,11.08,9.6,28.25,14.21,45.93,12.32,5.8-.62,15.82-3.07,20.2-4.78"/>
  <path class="cls-1" d="M95.82,115.34c-11.58,8.73-26.84,15.72-35.96,16.65-19.81,2.01-55.52-13.11-51.57-37.75.56-3.48,1.77-6.41,6.14-10.47"/>
  <path class="cls-1" d="M9.06,104.92c-2.95,13.74,3.46,19.07,8.68,23.31,12.56,10.2,34.43,12.57,49.39,9.99,26.18-4.51,40.61-25.88,62.99-38.23,6.19-3.41,20.96-9.54,39.39-5.97"/>
  <path class="cls-1" d="M188.85,130.87c4.52-5.85,2.5-14.88-1.3-19.68-6.22-7.84-14.56-10.85-23.98-10.3-27.09,1.59-31.68,7.04-58.35,23.71-6.89,4.31-12.23,6.97-30.91,11.94"/>
  <path class="cls-1" d="M188.66,131.33c.57-14.49-13.8-19.87-17.41-20.84-17.95-4.81-29.27.95-40.96,7.26-6,3.24-29.81,16.26-37.02,19.49-23.88,10.67-45.64,12.36-59.98,6.83-11.52-4.44-19.42-11.1-22.04-21.57"/>
  <path class="cls-1" d="M162.17,101.14c-9.71,1.89-16.93,4.54-31.78,16.31"/>
  <path class="cls-1" d="M19.08,136.3c6.49,10.06,11.02,12.79,18.07,15.98,7.35,3.33,22.23,2.91,28.15,2.07,22.5-3.2,39.91-9.56,58.06-22.89,14.3-10.5,16.02-14.18,33.59-15.76,12.96-1.16,29.59,6,31.34,16.45.69,4.09,0,11.02-5.44,14.65"/>
  <path class="cls-1" d="M178.82,152.17c8.85-7.39,1.73-19.61-1.13-22.34-6.44-6.15-18.72-7.75-26.81-6.28-10.79,1.96-18.65,8.06-27.1,15.01-13.31,10.95-44.39,25.34-61.7,16.69"/>
  <path class="cls-1" d="M79.56,158.19c12.74,2.52,27.82-4.06,34.46-7.73,13.66-7.54,19.06-15.24,34.21-18.34,5.46-1.12,21.17-.86,28.33,7.91,8.66,10.59-2.6,17-4.78,17"/>
  <path class="cls-1" d="M83.99,158.97c18.51,8.54,41.23-3.35,45.43-7.06,3.72-3.28,13.34-10.1,17.53-12.84,5.56-3.64,20-10.33,30.97,2.84"/>
  <path class="cls-1" d="M179.34,145.13c-7.08-11.07-18.63-8.85-34.03.65-5.96,3.68-11.21,6-21.35,9.77"/>
  <path class="cls-1" d="M172.12,156.26c6.52-10.95-7.68-10.19-11.52-9.6-12.96,1.99-19.9,14.77-34.18,15.69-2.58.17-11.39.59-14.25-1.86"/>
  <path class="cls-1" d="M172.13,156.88c-5.8,3.93-18.34,6.16-35.7,3.09"/>
  <path class="cls-1" d="M171.57,148.32c-4.08,8.99-20.76,9.94-28.84,7.63"/>
  <path class="cls-1" d="M26.16,70.21c6.42-25.31,41.6-35.14,65.08-31.97,8.07,1.09,12.57,3.91,23.92,5.22"/>
  <path class="cls-1" d="M32.96,86.28c-6.93-12.19,8.12-26.2,15.17-31.54,17.17-12.99,34.91-16.26,66.4-11.14"/>
  <path class="cls-1" d="M62.98,52.26c11.66-1.32,21.83-1.69,32.04-4.95,10.6-3.38,19.04-3.63,22.78-3.76,7.82-.27,16.86,2.03,21.29,3.11,3.91.95,12.45,3.79,19.23,8.5"/>
  <path class="cls-1" d="M121.16,43.59c11.56-1.59,38.88-1.13,49.76,14.34"/>
  <path class="cls-1" d="M145.17,55.06c-21.48-6.51-35.23.28-43.45.28-17.33,0-39.34-10.05-60.26,4.94"/>
  <path class="cls-1" d="M32.14,74.12c5.5-7.51,10.71-12.44,23.53-15.46,16.12-3.8,25.27,3.17,36.52,4.42,4.96.55,8.09,3.26,21.85-1.85"/>
  <path class="cls-1" d="M104.74,67c-9.77,4.84-17.08,3.82-21.26,1.91-10.61-4.85-15.71-12.25-31.77-9.18"/>
  <path class="cls-1" d="M33.98,87.21c-4.68-10.25,11.48-17.89,15.76-18.78,5.32-1.1,10.41-2.52,20.12-.6,9.49,1.88,21.39,7.95,35.17-1.13"/>
  <path class="cls-1" d="M102.01,70.03c-4.38,5.14-11.81,9.88-22.63,7.09-4.25-1.09-38.45-11.95-45.64,9.93"/>
  <path class="cls-1" d="M44.03,93.92c-3.27-8.37,3.61-19.99,36.86-16.26"/>
  <path class="cls-1" d="M52.37,95.91c.07-3.08.92-13.3,18.38-14.92,6.02-.56,12.17.23,15.25-.05,4.02-.37,6.92-2.03,8.62-2.95"/>
  <path class="cls-1" d="M101.84,132.7c-1.08,2.5-11.68,4.48-14.21,5.12-14.81,3.71-36.13,8.78-50.11.19"/>
  <path class="cls-1" d="M149.67,156.59s3.06-2.11,4.99-2.72c4.32-1.36,8.96-2.61,13.6-2.01"/>
  <path class="cls-2" d="M172.38,157.14s-10.6,4.29-19.67,4.43c-4.8.08-16.16-1.66-16.16-1.66,0,0-5.2,2.42-12.58,2.71-7.38.28-12.11-2.21-12.11-2.21,0,0-9.94,2.39-19.49,1-4.86-.7-12.43-3.51-12.43-3.51,0,0-4.93.5-9.46-.09-4.02-.52-8.46-2.7-8.46-2.7,0,0-16.13,1.77-27.44-3.89-8.77-4.38-15.34-14.96-15.34-14.96,0,0-3.18-2.98-5.17-6.49-1.99-3.51-2.78-7.53-2.78-7.53,0,0-2.22-4.27-2.8-8.46-.57-4.19.51-8.3.51-8.3,0,0-2.55-5.39-.43-12.57,1.57-5.32,5.8-9.03,5.8-9.03,0,0,.72-4.92,3.66-8.25,2.94-3.32,7.66-5.13,7.66-5.13,0,0,5.18-25.57,44.25-32.13,18.76-3.15,43.51,5.3,43.51,5.3,0,0,19.53-3.58,40.71,2.65,11.78,3.47,16.87,11.75,16.87,11.75,0,0,6.02,2.2,9.31,5.99,3.39,3.92,3.78,7.77,3.78,7.77,0,0,5.71,4.68,7.25,9.32.84,2.52-.18,5.55-.18,5.55,0,0,1.44,5.06.89,8.85-.55,3.73-2.13,5.81-2.13,5.81l-.48,2.83c.52,1.55,1.69,2.62,2.66,7,.59,2.67-.79,6.36-.79,6.36,0,0,1.04,2.67.14,7.89-.39,2.26-2.59,5.68-2.59,5.68,0,0,.51,4.25-.77,9.01-1.3,4.86-5.16,6.27-5.16,6.27,0,0-.33,2.42-1.5,3.49-1.18,1.07-2.43,2.27-2.43,2.27,0,0-2.41,4.31-6.5,4.99"/>
</svg>