<?xml version="1.0" encoding="UTF-8"?>
<svg id="Warstwa_1" xmlns="http://www.w3.org/2000/svg" version="1.1" viewBox="0 0 68.6 64.9">
  <!-- Generator: Adobe Illustrator 29.3.0, SVG Export Plug-In . SVG Version: 2.1.0 Build 146)  -->
  <defs>
    <style>
      .st0 {
        stroke-width: 6.8px;
      }

      .st0, .st1, .st2, .st3 {
        fill: none;
        stroke: #122653;
        stroke-linecap: round;
        stroke-linejoin: round;
      }

      .st1 {
        stroke-width: 3.2px;
      }

      .st2 {
        stroke-width: 2.1px;
      }

      .st3 {
        stroke-width: 1.1px;
      }
    </style>
  </defs>
  <path class="st0" d="M63.5,18.1c-15.3-15.8-54.1-8.5-58.2.8-5.3,12.2,14.3,14.8,29.4,15,15.1.2,28.3-5.1,28.3-5,2.3,16-7.3,26.5-25.3,27.8-17.3,1.2-30.7-4.3-33.7-21.3"/>
  <path class="st3" d="M36.5,55c-.5-6.3,8.7-6.6,8.7-2"/>
  <path class="st3" d="M39.3,53.8c0-2.6,3.3-2.3,3.3-.6"/>
  <path class="st3" d="M28.5,54.1c0-2.3,3.9-3.3,5.1.3"/>
  <path class="st3" d="M26.1,53.8c.5-5.4,8.3-5.5,9.6-.5"/>
  <path class="st3" d="M34.7,51.1c0-2.2,3.7-2.9,4.1-.6"/>
  <path class="st3" d="M32.3,49.5c1.4-5.2,8.2-5,9.4,0"/>
  <path class="st3" d="M44.6,50.9c.5-4.1,6-5.2,7-1.3"/>
  <path class="st3" d="M43.2,50.2c1-8.5,9.5-7,10.2-1.9"/>
  <path class="st3" d="M25.6,51c-.4-1.8-4.1-2.4-4.2,1.6"/>
  <path class="st3" d="M18.7,51.8c-.1-4.5,3.3-6,6.1-5,1.8.8,2.8,1.9,2.8,3.7"/>
  <path class="st3" d="M26.6,47.9c1.1-3.6,6.1-3.3,6.9-.8"/>
  <path class="st3" d="M25.1,46.7c0-4.7,8.7-6,10.4-.8"/>
  <path class="st3" d="M14.5,48.3c0-3.3,5.1-4.1,6.3-1.6"/>
  <path class="st3" d="M16.3,50c-.3-2.5,2.6-3.1,2.9-1"/>
  <path class="st3" d="M39.7,46.5c.8-2.5,3.8-2.9,4.7-.7"/>
  <path class="st3" d="M38.3,45.8c0-4.1,5.8-5.5,8.1-1.7"/>
  <path class="st3" d="M28.2,49.4c.3-2.6,3.7-2.3,4.2-.5"/>
  <path class="st3" d="M46.9,52.2c-.6-1.7,1.8-4,3-1.5"/>
  <path class="st3" d="M52.8,43.6c0-1.4,1.9-1.9,2.2-.4"/>
  <path class="st3" d="M50.6,43.6c-.7-4.4,6.1-5.5,6.1-1.1"/>
  <path class="st3" d="M11.3,43.1c.7-2,2.6-1.7,3.2,0"/>
  <path class="st3" d="M9.5,42.6s0-2.1,2.6-2.9c2-.6,4.4,1.3,4.4,3.4"/>
  <path class="st3" d="M33.6,31.6c-.9.4-1.7.7-2.6,1.1-1.9.8-3.6,1.6-5.5,2.3"/>
  <path class="st3" d="M54.4,14c0-.2-.5,0-1.2.1M39.7,31.5c-1.6.6-3,1.4-4.1,2.4"/>
  <path class="st3" d="M57.1,14.6c-.4-.4-1.4,0-2.3.6M48.3,30.3c-1.5.8-2.9,1.6-4.1,2.4"/>
  <path class="st1" d="M2.1,6.1l24.4,33.1"/>
  <path class="st1" d="M9.7,1.8l19.2,38.4"/>
  <path class="st2" d="M52.7,13.7c-3.2-1.1-12.5,1.7-12.9,5.2-.3,3.5,11.3,1.1,7.7,5.5-2.5,3.1-18.7,1.6-18.7,7.7"/>
  <path class="st2" d="M56,14.7c3.2-.8-6.7,1.2-7,3.1-.5,3.2,13.3,2.5,6.4,8.1-4.3,3.5-18.2,3-20,8.3"/>
  <path class="st2" d="M59.5,17.1c-5.9,0,4,4.1,3.1,7.9-.8,3.4-7.2,2.6-9.2,5.1"/>
  <path class="st2" d="M22.8,18.1c-1.1,2.8,7.4,3.3,8.9,1.2,1.9-2.6-7.9-4-8.9-1.2Z"/>
  <path class="st2" d="M33.7,22.4c-1.5,0-5.4,2.3-3,2.8,4.2,1,10.3-3.2,3-2.8Z"/>
  <path class="st2" d="M37.5,15.3c-.7-.6-4.4-2.5-4.4-.3s6.1,1.7,4.4.3Z"/>
  <path class="st2" d="M52.1,55.2c-2.4,4.9-8.2,6.6-11.1,7.2-6.8,1.5-22.6,1.2-25.1-7.7"/>
</svg>