<?xml version="1.0" encoding="UTF-8"?>
<svg id="Warstwa_1" xmlns="http://www.w3.org/2000/svg" version="1.1" viewBox="0 0 134.7 65.5">
  <!-- Generator: Adobe Illustrator 29.3.0, SVG Export Plug-In . SVG Version: 2.1.0 Build 146)  -->
  <defs>
    <style>
      .st0 {
        stroke-width: 1.1px;
      }

      .st0, .st1, .st2, .st3 {
        fill: none;
        stroke: #f4f4f4;
        stroke-linecap: round;
        stroke-linejoin: round;
      }

      .st1 {
        stroke-width: 3.2px;
      }

      .st2 {
        stroke-width: 2.1px;
      }

      .st3 {
        stroke-width: 6.8px;
      }
    </style>
  </defs>
  <path class="st3" d="M65.1,18.4c-15.3-15.8-54.1-8.5-58.2.8-5.3,12.2,14.3,14.8,29.4,15,15.1.2,28.3-5.1,28.3-5,2.3,16-7.3,26.5-25.3,27.8-17.3,1.2-30.7-4.3-33.7-21.3"/>
  <path class="st3" d="M79.3,35.5c-12.6,2.3-8,17.5,2.9,15.7,12.1-2,8.3-17.7-2.9-15.7Z"/>
  <path class="st3" d="M92.7,27.7c0-.5-.5,5.5-.5,6.5,0,2-.9,15.7,1.1,15.9,20.4,4.3,13.1-22.8-.8-12.9"/>
  <path class="st3" d="M124.7,38.5c-4.5-9.4-22.1,2.5-14.9,11,1.5,1.7,5.8,1.5,7.6,1,15.3-4.2,2.2-22.8,9.8-3.2.2.6,1,2.1,2.6,3.3"/>
  <path class="st0" d="M38.1,55.3c-.5-6.3,8.7-6.6,8.7-2"/>
  <path class="st0" d="M40.9,54.1c0-2.6,3.3-2.3,3.3-.6"/>
  <path class="st0" d="M30.1,54.4c0-2.3,3.9-3.3,5.1.3"/>
  <path class="st0" d="M27.7,54.1c.5-5.4,8.3-5.5,9.6-.5"/>
  <path class="st0" d="M36.3,51.4c0-2.2,3.7-2.9,4.1-.6"/>
  <path class="st0" d="M33.9,49.8c1.4-5.2,8.2-5,9.4,0"/>
  <path class="st0" d="M46.2,51.2c.5-4.1,6-5.2,7-1.3"/>
  <path class="st0" d="M44.8,50.5c1-8.5,9.5-7,10.2-1.9"/>
  <path class="st0" d="M27.2,51.3c-.4-1.8-4.1-2.4-4.2,1.6"/>
  <path class="st0" d="M20.3,52.1c-.1-4.5,3.3-6,6.1-5,1.8.8,2.8,1.9,2.8,3.7"/>
  <path class="st0" d="M28.2,48.2c1.1-3.6,6.1-3.3,6.9-.8"/>
  <path class="st0" d="M26.7,47c0-4.7,8.7-6,10.4-.8"/>
  <path class="st0" d="M16.1,48.6c0-3.3,5.1-4.1,6.3-1.6"/>
  <path class="st0" d="M17.9,50.3c-.3-2.5,2.6-3.1,2.9-1"/>
  <path class="st0" d="M41.3,46.8c.8-2.5,3.8-2.9,4.7-.7"/>
  <path class="st0" d="M39.9,46.1c0-4.1,5.8-5.5,8.1-1.7"/>
  <path class="st0" d="M29.8,49.7c.3-2.6,3.7-2.3,4.2-.5"/>
  <path class="st0" d="M48.5,52.5c-.6-1.7,1.8-4,3-1.5"/>
  <path class="st0" d="M54.4,43.9c0-1.4,1.9-1.9,2.2-.4"/>
  <path class="st0" d="M52.2,43.9c-.7-4.4,6.1-5.5,6.1-1.1"/>
  <path class="st0" d="M12.9,43.4c.7-2,2.6-1.7,3.2,0"/>
  <path class="st0" d="M11.1,42.9s0-2.1,2.6-2.9c2-.6,4.4,1.3,4.4,3.4"/>
  <path class="st0" d="M35.2,31.9c-.9.4-1.7.7-2.6,1.1-1.9.8-3.6,1.6-5.5,2.3"/>
  <path class="st0" d="M56,14.3c0-.2-.5,0-1.2.1M41.3,31.8c-1.6.6-3,1.4-4.1,2.4"/>
  <path class="st0" d="M58.7,14.9c-.4-.4-1.4,0-2.3.6M49.9,30.6c-1.5.8-2.9,1.6-4.1,2.4"/>
  <path class="st1" d="M3.7,6.4l24.4,33.1"/>
  <path class="st1" d="M11.3,2.1l19.2,38.4"/>
  <path class="st2" d="M54.3,14c-3.2-1.1-12.5,1.7-12.9,5.2-.3,3.5,11.3,1.1,7.7,5.5-2.5,3.1-18.7,1.6-18.7,7.7"/>
  <path class="st2" d="M57.6,15c3.2-.8-6.7,1.2-7,3.1-.5,3.2,13.3,2.5,6.4,8.1-4.3,3.5-18.2,3-20,8.3"/>
  <path class="st2" d="M61.1,17.4c-5.9,0,4,4.1,3.1,7.9-.8,3.4-7.2,2.6-9.2,5.1"/>
  <path class="st2" d="M24.4,18.4c-1.1,2.8,7.4,3.3,8.9,1.2,1.9-2.6-7.9-4-8.9-1.2Z"/>
  <path class="st2" d="M35.3,22.7c-1.5,0-5.4,2.3-3,2.8,4.2,1,10.3-3.2,3-2.8Z"/>
  <path class="st2" d="M39.1,15.6c-.7-.6-4.4-2.5-4.4-.3s6.1,1.7,4.4.3Z"/>
  <path class="st2" d="M53.7,55.5c-2.4,4.9-8.2,6.6-11.1,7.2-6.8,1.5-22.6,1.2-25.1-7.7"/>
</svg>