<?xml version="1.0" encoding="UTF-8"?>
<svg id="Warstwa_1" xmlns="http://www.w3.org/2000/svg" version="1.1" viewBox="0 0 130 65.5">
  <!-- Generator: Adobe Illustrator 29.2.1, SVG Export Plug-In . SVG Version: 2.1.0 Build 116)  -->
  <defs>
    <style>
      .st0 {
        stroke-width: 6.8px;
      }

      .st0, .st1, .st2, .st3 {
        fill: none;
        stroke: #122653;
        stroke-linecap: round;
        stroke-linejoin: round;
      }

      .st1 {
        stroke-width: 1.08px;
      }

      .st2 {
        stroke-width: 2.09px;
      }

      .st3 {
        stroke-width: 3.24px;
      }
    </style>
  </defs>
  <path class="st0" d="M65.34,18.23C50.05,2.58,11.46,10.1,7.47,19.39c-5.21,12.15,14.3,14.67,29.31,14.77,15.01.11,28.13-5.24,28.14-5.17,2.35,15.92-7.06,26.4-24.97,27.78-17.23,1.33-30.57-4.05-33.66-20.96"/>
  <path class="st0" d="M74.58,40.16c-10.15,1.9-4.87,14.99,3.96,13.48,9.81-1.68,5.15-15.19-3.96-13.48Z"/>
  <path class="st0" d="M89.82,32.64c0-.44-.05,3.97-.02,4.76.06,1.7-1.5,13.66,1.57,14.29,17.25,3.54,8.58-17.34.06-11.72"/>
  <path class="st0" d="M120.73,41.78c-3.65-7.41-17.45,2.27-11.95,9.1,1.57,1.95,4.75,1.73,6.23,1.22,7.75-2.69,5.72-10.31,5.72-10.31,0,0,.19,1.81,1.3,7.6.24,1.25.99,2.71,1.75,3.96"/>
  <path class="st1" d="M39.15,54.87c-1.73-5.87,8.23-7.77,8.2-1.86"/>
  <path class="st1" d="M41.53,53.58c0-2.56,3.47-2.31,3.56-.1"/>
  <path class="st1" d="M31.56,54.36c-.22.11,1.51-4.25,3.44-.34"/>
  <path class="st1" d="M28.35,53.98c.03-5.57,7.97-5.21,9.5-.54"/>
  <path class="st1" d="M36.91,51.18c0-2.22,3.29-2.75,3.59-.82"/>
  <path class="st1" d="M34.5,49.6c1.31-5.14,8.44-4.72,9.18-.19"/>
  <path class="st1" d="M46.63,50.69c0-1.61,1.21-2.39,1.99-2.71,1.4-.58,3.61.56,3.72,2.58"/>
  <path class="st1" d="M44.87,49.54c.06-1.8,1.16-2.96,1.5-3.41,2.45-3.18,8.06-1.06,8.97,2.69"/>
  <path class="st1" d="M28.69,51.93c-.2-2.45-5.05-2.35-5.2.37"/>
  <path class="st1" d="M20.85,51.74c-.11-3.41,3.15-5.35,6.26-4.79,1.88.34,3,1.86,2.93,3.64"/>
  <path class="st1" d="M29.43,48.23c.02-3.51,4.66-3.4,5.93-.82"/>
  <path class="st1" d="M27.32,46.88c.02-4.67,9.06-4.92,10.11-.77"/>
  <path class="st1" d="M16.66,49.05c.23-.43.4-.74.49-.95,1.07-2.33,4.34-2.84,6.1-.56"/>
  <path class="st1" d="M18.98,50.01c.23-1.28,1.75-1.65,2.51-.9"/>
  <path class="st1" d="M41.93,46.65c.08-.83.72-1.6,1.65-1.9,1.41-.46,2.73.53,2.79,1.38"/>
  <path class="st1" d="M40.33,46c-.31-4.26,6.66-5.45,8.19-1.36"/>
  <path class="st1" d="M30.41,49.58c.68-2,3.59-1.86,4.09-.21"/>
  <path class="st1" d="M48.23,52.42c-.7-2.17,2.11-3.93,2.71-.96"/>
  <path class="st1" d="M54.37,43.5c0-1.42,2.13-1.96,2.68-.27"/>
  <path class="st1" d="M52.14,43.5c-.36-4.49,5.67-5.09,6.68-.97"/>
  <path class="st1" d="M13.53,43.49c.68-1.98,2.87-1.6,3.26,0"/>
  <path class="st1" d="M12.1,42.36s.57-1.73,2.22-2.23c1.98-.59,3.62.82,4.16,2.47"/>
  <path class="st1" d="M35.77,31.81c-.86.36-1.71.72-2.56,1.11-1.85.84-3.54,1.57-5.42,2.31"/>
  <path class="st1" d="M41.83,31.71c-1.55.62-2.98,1.37-4.08,2.46M56.28,14.24c-.08-.16-.52-.09-1.17.12"/>
  <path class="st1" d="M50.31,30.47c-1.45.81-2.86,1.59-4.07,2.39M58.98,14.74c-.41-.42-1.41-.04-2.31.65"/>
  <line class="st3" x1="4.22" y1="6.66" x2="28.69" y2="39.43"/>
  <line class="st3" x1="11.74" y1="2.38" x2="31.1" y2="40.46"/>
  <path class="st2" d="M54.61,13.91c-3.23-1.1-12.47,1.72-12.78,5.26-.31,3.48,11.22,1.07,7.68,5.45-2.49,3.08-18.54,1.72-18.57,7.79"/>
  <path class="st2" d="M57.91,14.93c3.17-.78-6.7,1.22-6.99,3.18-.48,3.21,13.22,2.44,6.38,8.02-4.28,3.49-18.09,3.11-19.86,8.34"/>
  <path class="st2" d="M61.38,17.25c-5.84-.03,3.99,4.09,3.17,7.82-.75,3.43-7.11,2.62-9.11,5.09"/>
  <path class="st2" d="M24.86,18.43c-1.06,2.81,7.4,3.22,8.89,1.15,1.9-2.63-7.85-3.92-8.89-1.15Z"/>
  <path class="st2" d="M35.8,22.71c-1.47.09-5.4,2.3-3,2.83,4.22.93,10.18-3.25,3-2.83Z"/>
  <path class="st2" d="M39.56,15.62c-.74-.61-4.39-2.44-4.4-.25,0,2.68,6.1,1.66,4.4.25Z"/>
  <path class="st2" d="M54.28,55.16c-2.33,4.85-8.14,6.61-10.95,7.24-6.71,1.5-22.49,1.37-24.98-7.51"/>
</svg>